<?xml version="1.0" encoding="UTF-8"?>
<svg id="Layer_2" data-name="Layer 2" xmlns="http://www.w3.org/2000/svg" viewBox="0 0 26.66 20.89">
  <defs>
    <style>
      .cls-1 {
        fill: #201d1d;
      }

      .cls-2 {
        fill: none;
        stroke: #000;
        stroke-miterlimit: 10;
        stroke-width: 2px;
      }
    </style>
  </defs>
  <g id="Layer_1-2" data-name="Layer 1">
    <g>
      <path class="cls-2" d="M15.74,2.09V18.79c0,.93-1.09,1.43-1.8,.84l-5.8-4.87H2.22c-.67,0-1.22-.55-1.22-1.22V7.34c0-.67,.55-1.22,1.22-1.22h5.92L13.94,1.26c.71-.6,1.8-.1,1.8,.83Z"/>
      <path class="cls-1" d="M19.35,13.53c-.12,0-.24-.03-.35-.1-.33-.19-.44-.62-.24-.95,.77-1.3,.76-2.79-.03-4.08-.2-.33-.09-.75,.23-.95,.33-.2,.75-.09,.95,.23,1.06,1.75,1.07,3.75,.03,5.51-.13,.22-.36,.34-.6,.34Z"/>
      <path class="cls-1" d="M21.56,15.72c-.12,0-.24-.03-.35-.1-.33-.19-.44-.62-.24-.95,1.59-2.69,1.57-5.78-.05-8.46-.2-.33-.09-.75,.23-.95,.33-.2,.75-.09,.95,.23,1.9,3.13,1.92,6.74,.06,9.88-.13,.22-.36,.34-.6,.34Z"/>
      <path class="cls-1" d="M24.16,17.6c-.12,0-.24-.03-.35-.1-.33-.19-.44-.62-.24-.95,2.3-3.89,2.27-8.34-.08-12.22-.2-.33-.09-.75,.23-.95,.33-.2,.75-.09,.95,.23,2.62,4.33,2.65,9.3,.08,13.64-.13,.22-.36,.34-.6,.34Z"/>
    </g>
  </g>
</svg>