<?xml version="1.0" encoding="UTF-8"?>
<svg id="Layer_2" data-name="Layer 2" xmlns="http://www.w3.org/2000/svg" viewBox="0 0 24.33 18.4">
  <defs>
    <style>
      .cls-1 {
        fill: none;
        stroke: #000;
        stroke-miterlimit: 10;
        stroke-width: 1.25px;
      }
    </style>
  </defs>
  <g id="Layer_1-2" data-name="Layer 1">
    <g>
      <path d="M2.18,6.71c0,.94,.01,1.88,0,2.82,0,.18,.04,.31,.18,.44,.46,.47,.49,1.14,.08,1.66-.1,.12-.13,.23-.1,.38,.13,.59,.24,1.17,.36,1.77,.14,.69-.29,1.22-.98,1.22-.12,.01-.24,0-.36,.01-.77,.07-1.23-.64-1.05-1.3,.15-.56,.24-1.13,.36-1.7,.02-.13,.01-.24-.08-.35-.45-.57-.43-1.18,.08-1.7,.09-.1,.13-.19,.13-.32v-3.55"/>
      <path class="cls-1" d="M19.92,12.8c0,.48-.02,.96,0,1.44,.04,.72-.29,1.28-.85,1.74-.79,.65-1.75,1.01-2.75,1.28-1.54,.42-3.12,.55-4.72,.5-1.72-.05-3.41-.3-4.99-.98-.7-.3-1.35-.67-1.82-1.27-.26-.33-.4-.7-.39-1.11,0-1.1,0-2.21,0-3.31,0-.32,.03-.33,.34-.21,2.05,.75,4.09,1.52,6.15,2.25,.81,.29,1.68,.29,2.5,0,1.69-.59,3.37-1.22,5.05-1.84,.4-.15,.8-.29,1.19-.44,.23-.08,.27-.06,.28,.17,0,.59,0,1.19,0,1.78h0Z"/>
      <g id="kmQvjB.tif">
        <path class="cls-1" d="M23.71,5.42c0,.31-.13,.49-.47,.63-1.27,.52-2.56,1.02-3.83,1.52-2.03,.8-4.05,1.6-6.08,2.4-.79,.32-1.57,.33-2.36,0-.64-.26-1.28-.52-1.93-.77-.98-.39-1.95-.78-2.94-1.16l-.11-.04L.8,5.87c-.07-.04-.12-.12-.18-.2v-.5c.11-.2,.27-.33,.48-.41,.61-.24,1.22-.48,1.82-.72,1.82-.71,3.63-1.44,5.44-2.15,1.1-.43,2.17-.9,3.3-1.26h.99c.93,.29,1.81,.68,2.71,1.03,1.8,.7,3.59,1.43,5.38,2.13,.83,.33,1.66,.66,2.49,.99,.29,.12,.48,.31,.47,.65Z"/>
      </g>
    </g>
  </g>
</svg>