<?xml version="1.0" encoding="UTF-8"?>
<svg id="Layer_2" data-name="Layer 2" xmlns="http://www.w3.org/2000/svg" viewBox="0 0 17.9 19.93">
  <defs>
    <style>
      .cls-1 {
        fill: #fff;
      }

      .cls-2 {
        stroke: #000;
        stroke-miterlimit: 10;
        stroke-width: .5px;
      }
    </style>
  </defs>
  <g id="Layer_1-2" data-name="Layer 1">
    <g id="fMeo4K.tif">
      <path class="cls-1" d="M17.32,11.41c.63,1.17,.3,2.6-.78,3.38-.19,.13-.25,.27-.25,.49-.01,1.32-.64,2.24-1.82,2.81-.13,.06-.27,.15-.36,.25-1.38,1.82-3.8,1.76-5.05-.15-.03-.04-.06-.07-.12-.15-.6,.99-1.42,1.57-2.54,1.61-1.06,.04-1.91-.39-2.56-1.23-.1-.15-.27-.27-.42-.34-1.18-.58-1.81-1.51-1.82-2.83,0-.21-.04-.33-.22-.46C.25,14-.05,12.59,.58,11.36c.06-.12,.04-.34-.01-.46-.49-1.05-.4-2.03,.28-2.96,.09-.1,.16-.28,.13-.39-.33-1.32,.51-2.83,1.96-3.18,.03-.01,.06-.04,.07-.04,0-.43-.09-.87,.02-1.24,.1-.36,.31-.76,.61-.97,.84-.57,1.73-1.09,2.66-1.57,.39-.19,.87-.22,1.32-.25,.52-.04,.94,.22,1.32,.64,.66-.78,1.51-.81,2.35-.48,.73,.27,1.42,.69,2.12,1.06,.12,.06,.22,.16,.33,.24,1.12,.72,1.36,1.27,1.14,2.47,.45,.3,.94,.54,1.32,.88,.66,.61,.9,1.42,.73,2.32-.04,.22,0,.39,.13,.57,.69,.9,.78,1.87,.27,2.89-.1,.21-.1,.34,0,.54Z"/>
      <g>
        <path class="cls-2" d="M17.32,10.87c.51-1.02,.42-1.99-.27-2.89-.13-.18-.18-.34-.13-.57,.16-.9-.07-1.7-.73-2.32-.37-.34-.87-.58-1.32-.88,.22-1.2-.01-1.75-1.14-2.47-.1-.07-.21-.18-.33-.24-.7-.37-1.39-.79-2.12-1.06-.84-.33-1.69-.3-2.35,.48-.37-.42-.79-.69-1.32-.64-.45,.03-.93,.06-1.32,.25-.93,.48-1.82,1-2.66,1.57-.3,.21-.51,.61-.61,.97-.1,.37-.02,.81-.02,1.24-.01,0-.04,.03-.07,.04-1.45,.36-2.29,1.87-1.96,3.18,.03,.1-.04,.28-.13,.39-.69,.93-.78,1.91-.28,2.96,.06,.12,.07,.34,.01,.46-.63,1.23-.33,2.63,.79,3.44,.18,.13,.22,.25,.22,.46,.01,1.32,.64,2.24,1.82,2.83,.15,.07,.31,.19,.42,.34,.64,.84,1.5,1.27,2.56,1.23,1.12-.04,1.94-.63,2.54-1.61,.06,.07,.09,.1,.12,.15,1.26,1.91,3.68,1.97,5.05,.15,.09-.1,.22-.19,.36-.25,1.18-.57,1.81-1.5,1.82-2.81,0-.22,.06-.36,.25-.49,1.08-.78,1.41-2.21,.78-3.38-.1-.19-.1-.33,0-.54Zm-10.41,3.53c.54,.18,.97,.48,1.3,.94,.73,1.09,.46,2.54-.63,3.29-1.08,.73-2.53,.45-3.29-.63-.13-.19-.36-.37-.58-.46-.99-.42-1.63-1.45-1.47-2.5,.04-.31-.06-.48-.33-.63-.67-.39-1.12-1.14-1.05-1.93,.03-.42,.21-.69,.16-1.14-.03-.51-.09-1.02-.15-1.53-.07-.61,.15-1.18,.58-1.6,.21-.22,.25-.42,.18-.7-.34-1.17,.36-2.33,1.5-2.56,1.23-.24,2.33,.58,2.47,1.82,.01,.15,.06,.33,.16,.42,.21,.16,.45-.03,.45-.34,.03-1.12-.9-2.24-2.05-2.5-.51-.12-.63-.27-.61-.79,.01-.81,.79-1.29,1.41-1.69,.13-.09,.27-.18,.42-.25,.64-.37,1.38-.67,2.09-.73,1.42-.1,1.08,1.56,1.08,2.44,.04,3.77,.07,7.52,.07,11.27,0,.03-.02,.07-.02,.09-.39-.25-.76-.51-1.15-.76-.09-.06-.22-.12-.34-.12-.15,.01-.37,.06-.43,.16-.12,.19,.01,.36,.22,.42Zm9.33-.16c-.12,.07-.24,.15-.36,.21-.22,.12-.28,.28-.25,.54,.15,1.2-.43,2.12-1.57,2.59-.15,.06-.31,.18-.4,.31-.67,.96-1.66,1.36-2.69,1.06-1.05-.31-1.7-1.21-1.72-2.41V6.73c0-.24,0-.48,.01-.72,.01-.6,.31-.96,.9-1.08,.22-.04,.46-.09,.42-.37-.04-.3-.3-.31-.54-.25-.25,.06-.49,.16-.76,.25,0-.94-.04-1.88,.01-2.81,.07-1.35,1.69-.76,2.45-.42,.21,.09,.46,.21,.73,.33,.87,.45,1.87,1.08,1.84,1.99-.01,.49-.1,.61-.58,.7-1.12,.24-2,1.24-2.08,2.36,0,.22-.04,.51,.28,.52,.31,.03,.33-.22,.34-.46,.1-1.06,1-1.87,2.05-1.85,1.03,.01,1.9,.81,1.99,1.85,.01,.24,0,.49-.07,.72-.15,.45,.19,.78,.42,1.14,.28,.45,.39,.99,.21,1.5-.1,.3-.3,.57-.36,.88-.13,.57,.46,.96,.49,1.54,.03,.64-.27,1.29-.76,1.69Z"/>
        <path d="M13.76,12.13c.07,0,.11,.01,.15,0,.25-.03,.51,0,.53,.31,.02,.31-.23,.37-.48,.39-.68,.04-1.24,.33-1.61,.89-.22,.34-.33,.77-.44,1.18-.07,.24-.09,.5-.4,.46-.32-.03-.32-.28-.29-.54,.09-1.04,.59-1.83,1.51-2.33,.25-.14,.32-.29,.3-.56-.08-1-.81-1.83-1.79-2.01-.14-.03-.29,0-.4-.07-.13-.08-.23-.22-.34-.33,.13-.11,.26-.32,.39-.32,.34,.01,.69,.07,1.01,.19,1.06,.43,1.66,1.24,1.83,2.37,0,.05,.01,.11,.02,.16,0,.05,.02,.11,.03,.19Z"/>
        <path d="M4.92,11.97c-.18-.05-.31-.08-.44-.12-1.16-.34-2.03-1.42-2.11-2.61-.02-.25,0-.51,.3-.55,.32-.04,.37,.22,.4,.47,.09,.93,.56,1.6,1.43,1.95,.86,.34,1.65,.16,2.34-.44,.19-.17,.39-.26,.58-.04,.19,.22,.07,.45-.14,.57-.41,.25-.84,.49-1.28,.67-.23,.09-.38,.16-.47,.43-.26,.87-1.1,1.49-1.96,1.51-.24,0-.47-.05-.44-.31,.02-.14,.24-.34,.39-.37,.69-.1,1.15-.45,1.39-1.17Z"/>
      </g>
    </g>
  </g>
</svg>