<?xml version="1.0" encoding="UTF-8"?>
<svg id="Layer_2" data-name="Layer 2" xmlns="http://www.w3.org/2000/svg" viewBox="0 0 26.96 23.68">
  <defs>
    <style>
      .cls-1 {
        stroke: #020202;
      }

      .cls-1, .cls-2 {
        fill: none;
        stroke-linecap: round;
        stroke-linejoin: round;
      }

      .cls-3 {
        fill: #020202;
      }

      .cls-2 {
        stroke: #000;
        stroke-width: .77px;
      }
    </style>
  </defs>
  <g id="Layer_1-2" data-name="Layer 1">
    <g>
      <g>
        <path class="cls-1" d="M10.91,8.19c.6,.5,1.13,1.02,1.64,1.59v11.68c-2.64-2.99-6.51-3.2-10.53-3.54V4.53c2.66,.22,5.24,1.14,7.45,2.61"/>
        <path class="cls-1" d="M24.86,17.91c-4.03,.34-7.89,.56-10.53,3.54V9.78c2.64-2.99,6.5-4.91,10.53-5.25v13.38Z"/>
        <path class="cls-3" d="M13.85,23.68h-.74c-.06,0-.13-.01-.18-.04C5.91,20.18,.48,20.19,.41,20.19c-.09-.02-.21-.04-.29-.12-.08-.08-.12-.18-.12-.28V6.51c0-.22,.18-.4,.41-.4s.41,.18,.41,.4v12.89c1.42,.06,6.27,.48,12.39,3.48h.54c6.12-3,10.97-3.42,12.39-3.48V6.51c0-.22,.18-.4,.41-.4s.41,.18,.41,.4v13.28c0,.11-.04,.21-.12,.28-.08,.08-.15,.15-.29,.12-.07-.02-5.51,0-12.51,3.45-.06,.03-.12,.04-.18,.04Z"/>
      </g>
      <g>
        <polygon class="cls-3" points="10.22 8.95 8.58 7.1 15.42 .81 17.07 2.65 10.22 8.95"/>
        <g>
          <polygon class="cls-3" points="8.37 7.29 10.01 9.14 7.29 9.96 8.37 7.29"/>
          <polygon class="cls-3" points="17.32 2.41 15.69 .55 16.07 .21 17.69 2.07 17.32 2.41"/>
          <path class="cls-3" d="M16.16,.11c.27-.25,.86-.04,1.32,.47s.6,1.13,.33,1.38"/>
        </g>
      </g>
      <path class="cls-2" d="M6.69,10.14c-.1-.16-.21-.33-.37-.42s-.38-.08-.48,.08c-.13,.2,0,.47,.12,.68,.18,.3,.35,.59,.53,.89-.69,.07-1.38,.15-2.08,.22-.2,.02-.42,.05-.55,.22-.11,.15-.13,.37-.07,.55s.18,.33,.32,.45c.34,.3,.77,.46,1.11,.77s.57,.86,.35,1.27c-.12,.22-.34,.34-.53,.48s-.39,.33-.41,.59,.26,.52,.45,.36"/>
    </g>
  </g>
</svg>