<?xml version="1.0" encoding="UTF-8"?>
<svg id="Layer_2" data-name="Layer 2" xmlns="http://www.w3.org/2000/svg" viewBox="0 0 33.51 16.2">
  <defs>
    <style>
      .cls-1 {
        fill: #fff;
      }
    </style>
  </defs>
  <g id="Layer_1-2" data-name="Layer 1">
    <g>
      <path d="M32.59,8.91c-.23,0-.46-.09-.64-.26C27.25,4.05,22.18,1.73,16.89,1.83,8.14,1.95,1.64,8.57,1.57,8.63c-.35,.36-.93,.37-1.29,.02-.36-.35-.37-.93-.02-1.29C.54,7.07,7.33,.14,16.85,0c5.85-.09,11.31,2.38,16.38,7.34,.36,.35,.37,.93,.01,1.29-.18,.18-.42,.27-.65,.27Z"/>
      <path d="M17.13,16.2c-.1,0-.19,0-.29,0C7.33,16.06,.54,9.13,.26,8.84c-.35-.36-.34-.94,.02-1.29,.36-.35,.94-.34,1.29,.02,.06,.07,6.57,6.68,15.32,6.8,5.28,.03,10.36-2.22,15.06-6.82,.36-.35,.94-.35,1.29,.01,.35,.36,.35,.94-.01,1.29-4.99,4.87-10.4,7.34-16.1,7.34Z"/>
      <ellipse cx="16.39" cy="8" rx="7.15" ry="7.55"/>
      <ellipse class="cls-1" cx="21.26" cy="5.48" rx="2.91" ry="1.48"/>
    </g>
  </g>
</svg>