<?xml version="1.0" encoding="UTF-8"?>
<svg id="Layer_2" data-name="Layer 2" xmlns="http://www.w3.org/2000/svg" viewBox="0 0 21.1 21.17">
  <g id="Layer_1-2" data-name="Layer 1">
    <g id="bFspdn.tif">
      <g>
        <path d="M4.78,1.75c.31-.02,.55,.15,.75,.35,.56,.54,1.1,.58,1.81,.22,.47-.24,.7-.48,.78-1C8.32,.06,8.41,0,9.7,0c.73,0,1.47,0,2.2,0,.75,.01,1.03,.23,1.06,.96,.03,.75,.27,1.21,1.07,1.45,.54,.16,.92,.21,1.32-.18,.1-.1,.23-.16,.35-.24,.52-.35,.77-.33,1.22,.12,.69,.69,1.38,1.37,2.06,2.06,.43,.43,.51,.76,.12,1.18-.63,.68-.71,1.34-.25,2.14,.15,.26,.24,.47,.59,.48,.31,0,.62,.05,.92,.09,.4,.06,.66,.29,.68,.69,.06,1.14,.07,2.28,0,3.42-.03,.41-.31,.61-.69,.69-.35,.07-.69,.14-1.04,.19-.19,.03-.31,.12-.35,.31,0,.03-.02,.06-.03,.08-.47,.88-.46,1.67,.29,2.43,.35,.36,.27,.73-.08,1.09-.72,.73-1.45,1.46-2.18,2.18-.36,.35-.74,.42-1.09,.08-.74-.72-1.47-.76-2.32-.24-.22,.14-.39,.23-.42,.51-.03,.32-.11,.64-.18,.96-.1,.47-.34,.7-.81,.71-1.03,.02-2.06,.01-3.09,0-.43,0-.71-.24-.81-.67-.07-.34-.15-.69-.2-1.04-.03-.25-.16-.37-.39-.43-.22-.06-.45-.11-.63-.24-.48-.33-.88-.22-1.27,.15-.14,.13-.32,.23-.48,.34-.35,.23-.7,.21-1-.09-.77-.75-1.52-1.51-2.27-2.27-.3-.3-.36-.7-.07-.99,.73-.74,.76-1.5,.26-2.36-.13-.23-.22-.4-.5-.43-.32-.04-.64-.11-.95-.18-.47-.1-.7-.33-.71-.82-.02-1.03-.02-2.06,0-3.09,0-.43,.23-.79,.67-.79,1.09,0,1.62-.59,1.87-1.58,.06-.23,.08-.39-.06-.58-.2-.26-.38-.53-.56-.8-.25-.36-.25-.72,.06-1.04,.75-.77,1.51-1.52,2.27-2.28,.14-.14,.32-.24,.53-.24Zm12.91,14.44c-.17-.24-.35-.53-.56-.79-.25-.33-.28-.65-.1-1.02,.29-.58,.5-1.2,.63-1.84,.1-.49,.38-.74,.88-.82,1.06-.17,1.06-.19,1.06-1.26q0-1.03-1.04-1.12c-.54-.05-.74-.2-.87-.7-.16-.65-.4-1.26-.74-1.84-.21-.35-.16-.66,.06-.99,.2-.3,.6-.58,.56-.91-.04-.35-.47-.57-.73-.84-.65-.66-.65-.66-1.4-.14-.09,.06-.19,.13-.28,.19-.27,.18-.56,.19-.84,.03-.61-.36-1.27-.62-1.96-.78-.39-.1-.59-.35-.64-.75-.03-.28-.08-.56-.12-.84-.03-.21-.14-.32-.37-.31-.45,.01-.9,0-1.35,0-.23,0-.37,.08-.4,.33-.04,.31-.11,.61-.17,.91-.07,.33-.25,.56-.59,.65-.63,.16-1.23,.42-1.8,.72-.45,.24-.83,.21-1.25-.1-.79-.58-.8-.57-1.49,.13-.25,.25-.63,.48-.69,.77-.07,.33,.33,.61,.54,.91,.24,.35,.27,.69,.05,1.06-.3,.5-.55,1.03-.66,1.6-.11,.6-.44,.86-1.01,.95-.96,.16-.95,.18-.95,1.14,0,1.09,0,1.11,1.05,1.28,.53,.08,.79,.36,.9,.86,.11,.53,.28,1.04,.58,1.49,.33,.49,.3,.91-.06,1.39-.55,.73-.53,.75,.12,1.4,.26,.26,.5,.65,.8,.72,.35,.09,.64-.34,.95-.55,.35-.23,.66-.26,1.02-.04,.47,.3,.97,.54,1.51,.63,.68,.12,.97,.49,1.07,1.15,.12,.84,.15,.83,1.02,.83,1.16,0,1.17,0,1.39-1.16,.08-.39,.28-.62,.67-.73,.38-.11,.79-.2,1.11-.41,.89-.59,1.69-.57,2.45,.2,.15,.15,.29,.12,.43-.03,.35-.37,.72-.72,1.07-1.08,.07-.07,.15-.13,.14-.3Z"/>
        <path d="M10.59,16.1c-3.02,0-5.53-2.51-5.52-5.54,.01-3,2.52-5.5,5.52-5.5,3.02,0,5.53,2.52,5.52,5.54-.01,3-2.51,5.49-5.52,5.49Zm0-1.47c2.25,0,4.04-1.78,4.04-4.01,0-2.27-1.78-4.08-4.03-4.08-2.26,0-4.06,1.79-4.06,4.05,0,2.27,1.77,4.04,4.05,4.05Z"/>
      </g>
    </g>
  </g>
</svg>