<?xml version="1.0" encoding="UTF-8"?>
<svg id="Layer_2" data-name="Layer 2" xmlns="http://www.w3.org/2000/svg" viewBox="0 0 51.7 51.7">
  <defs>
    <style>
      .cls-1 {
        fill: #7c604d;
      }
    </style>
  </defs>
  <g id="Layer_1-2" data-name="Layer 1">
    <path class="cls-1" d="M25.84,51.7c-7.95,0-15.35-3.59-20.29-9.85-.27-.33-.53-.69-.79-1.05C1.65,36.43,0,31.26,0,25.85,0,11.6,11.59,0,25.84,0s25.85,11.6,25.85,25.85c0,.43-.01,.85-.03,1.26-.02,.36-.04,.7-.07,1.03-.22,2.62-.85,5.18-1.87,7.62-.25,.6-.46,1.07-.68,1.5l-.09,.19c-4.43,8.78-13.28,14.24-23.11,14.24Zm0-49.55C12.78,2.15,2.15,12.78,2.15,25.85c0,4.96,1.51,9.7,4.37,13.71,.23,.33,.46,.64,.71,.95,4.54,5.75,11.32,9.04,18.62,9.04,8.92,0,16.98-4.91,21.08-12.83h0s.12-.25,.12-.25c.22-.43,.44-.9,.7-1.53,.93-2.23,1.5-4.58,1.71-6.98,.03-.31,.05-.63,.07-.96,.02-.38,.03-.76,.03-1.15,0-13.07-10.63-23.71-23.71-23.71Z"/>
    <g>
      <path class="cls-1" d="M45.82,18.76c0,2.31-11.07,4.17-20.28,4.17s-19.67-1.81-19.67-4.11c0-1.13,4.81-2.22,7.76-2.97,1.84,.64,3.77,1,5.71,1.19,2.79,.28,5.6,.21,8.4,.14,2.29-.06,4.58-.12,6.85-.48,1.07-.17,2.14-.42,3.17-.77,2.76,.74,8.06,1.74,8.06,2.83Z"/>
      <path class="cls-1" d="M36.62,14.19l-.1,.63c-7.27,2.05-15.15,1.49-22.61,.04,.16-1.24,.41-3.16,.93-4.3,.53-1.14,1.36-2.17,2.49-2.72,1.26-.62,2.76-.6,4.12-.22,1.35,.37,2.59,.46,3.82,1.14,1.23-.68,2.47-.77,3.82-1.14,1.35-.37,2.85-.4,4.11,.22,1.12,.55,1.97,1.58,2.5,2.72,.52,1.14,.76,2.38,.92,3.63Z"/>
      <path class="cls-1" d="M25.5,44.34c-2.83-5.29-5.94-13.86-10.65-20.77-1.83,.28-4.09,.55-5.93,.83,2.03,1.6,4.06,3.21,6.09,4.81-2.19,1.08-4.38,2.15-6.57,3.23,6.35,2.88,10.96,8.27,17.05,11.9Z"/>
      <path class="cls-1" d="M26.19,44.34c2.83-5.29,5.94-13.86,10.65-20.77,1.83,.28,4.09,.55,5.93,.83-2.03,1.6-4.06,3.21-6.09,4.81,2.19,1.08,4.38,2.15,6.57,3.23-6.35,2.88-10.96,8.27-17.05,11.9Z"/>
    </g>
  </g>
</svg>