<?xml version="1.0" encoding="UTF-8"?>
<svg id="Layer_2" data-name="Layer 2" xmlns="http://www.w3.org/2000/svg" viewBox="0 0 51.7 51.7">
  <defs>
    <style>
      .cls-1 {
        fill: #7b604d;
      }
    </style>
  </defs>
  <g id="Layer_1-2" data-name="Layer 1">
    <path class="cls-1" d="M25.84,51.7c-7.95,0-15.35-3.59-20.29-9.85-.27-.33-.53-.69-.79-1.05C1.65,36.43,0,31.26,0,25.85,0,11.6,11.59,0,25.84,0s25.85,11.6,25.85,25.85c0,.43-.01,.85-.03,1.26-.02,.36-.04,.7-.07,1.03-.22,2.62-.85,5.18-1.87,7.62-.25,.6-.46,1.07-.68,1.5l-.09,.19c-4.43,8.78-13.28,14.24-23.11,14.24Zm0-49.55C12.78,2.15,2.15,12.78,2.15,25.85c0,4.96,1.51,9.7,4.37,13.71,.23,.33,.46,.64,.71,.95,4.54,5.75,11.32,9.04,18.62,9.04,8.92,0,16.98-4.91,21.08-12.83h0s.12-.25,.12-.25c.22-.43,.44-.9,.7-1.53,.93-2.23,1.5-4.58,1.71-6.98,.03-.31,.05-.63,.07-.96,.02-.38,.03-.76,.03-1.15,0-13.07-10.63-23.71-23.71-23.71Z"/>
    <g>
      <polygon class="cls-1" points="17.59 15.44 25.77 19.71 25.77 30.13 11.67 23.24 17.59 15.44"/>
      <polygon class="cls-1" points="11.24 24.11 25.76 31.39 25.76 41.98 5.32 31.9 11.24 24.11"/>
      <polygon class="cls-1" points="17.94 14.5 25.77 18.47 25.94 6.65 17.94 14.5"/>
      <polygon class="cls-1" points="34.59 14.5 26.76 18.47 26.92 6.65 34.59 14.5"/>
      <polygon class="cls-1" points="34.92 15.44 26.74 19.71 26.74 30.13 40.84 23.24 34.92 15.44"/>
      <polygon class="cls-1" points="41.27 24.11 26.76 31.39 26.76 41.98 47.19 31.9 41.27 24.11"/>
    </g>
  </g>
</svg>