<?xml version="1.0" encoding="UTF-8"?>
<svg id="Layer_2" data-name="Layer 2" xmlns="http://www.w3.org/2000/svg" viewBox="0 0 51.7 51.7">
  <defs>
    <style>
      .cls-1 {
        fill: #fff;
      }

      .cls-2 {
        fill: #7c604d;
      }
    </style>
  </defs>
  <g id="Layer_1-2" data-name="Layer 1">
    <g>
      <path class="cls-2" d="M25.84,51.7c-7.95,0-15.35-3.59-20.29-9.85-.27-.33-.53-.69-.79-1.05C1.65,36.43,0,31.26,0,25.85,0,11.6,11.59,0,25.84,0s25.85,11.6,25.85,25.85c0,.43-.01,.85-.03,1.26-.02,.36-.04,.7-.07,1.03-.22,2.62-.85,5.18-1.87,7.62-.25,.6-.46,1.07-.68,1.5l-.09,.19c-4.43,8.78-13.28,14.24-23.11,14.24Zm0-49.55C12.78,2.15,2.15,12.78,2.15,25.85c0,4.96,1.51,9.7,4.37,13.71,.23,.33,.46,.64,.71,.95,4.54,5.75,11.32,9.04,18.62,9.04,8.92,0,16.98-4.91,21.08-12.83h0s.12-.25,.12-.25c.22-.43,.44-.9,.7-1.53,.93-2.23,1.5-4.58,1.71-6.98,.03-.31,.05-.63,.07-.96,.02-.38,.03-.76,.03-1.15,0-13.07-10.63-23.71-23.71-23.71Z"/>
      <circle class="cls-2" cx="25.85" cy="25.85" r="19.1"/>
      <path class="cls-1" d="M40.04,34.61c-.36,.49-.7,.99-1.07,1.46-.7,.89-1.49,1.69-2.37,2.41-1.45,1.2-3.06,2.13-4.83,2.78-1.09,.41-2.21,.69-3.36,.86-1.49,.22-2.99,.24-4.49,.06-1.1-.13-2.18-.36-3.23-.71-1.89-.63-3.61-1.55-5.17-2.79-1.54-1.23-2.84-2.68-3.87-4.36-1.78-2.91-2.57-6.07-2.41-9.48,.07-1.45,.33-2.86,.79-4.23,.68-2.01,1.69-3.83,3.07-5.44,1.25-1.46,2.7-2.68,4.37-3.64,.21-.12,.42-.24,.67-.38-2.03,3.37-2.79,6.96-2.29,10.8,.42,3.26,1.75,6.13,3.89,8.62,1.22,1.41,2.65,2.58,4.26,3.52,1.62,.94,3.34,1.59,5.18,1.95,1.83,.36,3.67,.41,5.53,.17,1.85-.25,3.61-.8,5.28-1.63,.01,.01,.02,.02,.03,.03Z"/>
      <circle class="cls-2" cx="15.84" cy="33.44" r="2.55"/>
      <circle class="cls-1" cx="23.31" cy="23.03" r="3.15"/>
      <circle class="cls-1" cx="32.83" cy="29.99" r="3.9"/>
      <circle class="cls-1" cx="31.82" cy="20.16" r="1.73"/>
      <circle class="cls-1" cx="28.49" cy="14.34" r=".95"/>
      <circle class="cls-1" cx="39.47" cy="24.17" r=".95"/>
      <path class="cls-2" d="M12.47,28.37c.2,.8,.63,1.34,1.44,1.63-.81,.28-1.23,.82-1.44,1.63-.22-.8-.63-1.37-1.48-1.62,.84-.27,1.26-.83,1.48-1.63Z"/>
      <path class="cls-1" d="M41.53,20.16c.2,.8,.63,1.34,1.44,1.63-.81,.28-1.23,.82-1.44,1.63-.22-.8-.63-1.37-1.48-1.62,.84-.27,1.26-.83,1.48-1.63Z"/>
    </g>
  </g>
</svg>