<?xml version="1.0" encoding="UTF-8"?>
<svg id="Layer_2" data-name="Layer 2" xmlns="http://www.w3.org/2000/svg" viewBox="0 0 51.7 51.7">
  <defs>
    <style>
      .cls-1 {
        fill: #fff;
      }

      .cls-2 {
        fill: #7c604d;
      }

      .cls-3 {
        fill: none;
        stroke: #7c604d;
        stroke-linecap: round;
        stroke-linejoin: round;
        stroke-width: 2.37px;
      }
    </style>
  </defs>
  <g id="Layer_1-2" data-name="Layer 1">
    <path class="cls-2" d="M25.84,51.7c-7.95,0-15.35-3.59-20.29-9.85-.27-.33-.53-.69-.79-1.05C1.65,36.43,0,31.26,0,25.85,0,11.6,11.59,0,25.84,0s25.85,11.6,25.85,25.85c0,.43-.01,.85-.03,1.26-.02,.36-.04,.7-.07,1.03-.22,2.62-.85,5.18-1.87,7.62-.25,.6-.46,1.07-.68,1.5l-.09,.19c-4.43,8.78-13.28,14.24-23.11,14.24Zm0-49.55C12.78,2.15,2.15,12.78,2.15,25.85c0,4.96,1.51,9.7,4.37,13.71,.23,.33,.46,.64,.71,.95,4.54,5.75,11.32,9.04,18.62,9.04,8.92,0,16.98-4.91,21.08-12.83h0s.12-.25,.12-.25c.22-.43,.44-.9,.7-1.53,.93-2.23,1.5-4.58,1.71-6.98,.03-.31,.05-.63,.07-.96,.02-.38,.03-.76,.03-1.15,0-13.07-10.63-23.71-23.71-23.71Z"/>
    <path class="cls-3" d="M26.43,17.04c.26-.56,.47-1.02,.7-1.49,1.53-3.24,4.95-5.24,8.59-4.84,3.91,.43,6.94,3.23,7.58,6.92,.54,3.12-.28,5.94-2.07,8.51-1.36,1.96-3.11,3.56-4.85,5.17-2.28,2.11-4.58,4.2-6.79,6.37-1.05,1.03-1.91,2.24-2.86,3.37-.1,.12-.19,.24-.34,.42-.07-.11-.1-.17-.15-.24-2.33-3.11-5.18-5.7-8.06-8.27-1.75-1.56-3.47-3.15-5.09-4.83-1.66-1.73-2.85-3.77-3.34-6.16-.53-2.58-.4-5.06,1.06-7.36,3.43-5.41,11.48-5.22,14.61,.37,.36,.64,.64,1.32,1,2.06Z"/>
    <path class="cls-1" d="M10.06,25.84c1.09-1.06,2.23-2.15,3.69-2.67,1.59-.56,3.36-.37,4.91,.2s2.9,1.49,4.24,2.4c1.53,1.04,3.18,2.25,3.51,4.01,.23,1.22-.25,2.51-1.01,3.55s-1.79,1.89-2.81,2.73c-1.32,1.09-2.65,2.17-3.97,3.26-.42,.34-.85,.69-1.37,.86-.52,.17-1.09,.14-1.63,.06-2.56-.37-4.85-1.7-6.62-3.43-.88-.86-1.64-1.82-2.32-2.82-.49-.73-1.6-2.01-1.65-2.89-.05-.83,1.54-1.88,2.13-2.45,.97-.94,1.93-1.87,2.9-2.81Z"/>
    <g>
      <path class="cls-2" d="M12.89,43.33c-.13-.23-3.17-5.68-1.38-10.96,1.01-3,3.32-5.29,6.85-6.8l17.96-7.67,1.46,3.41-17.96,7.67c-2.51,1.07-4.12,2.6-4.78,4.55-1.26,3.7,1.07,7.92,1.09,7.97l-3.23,1.83Z"/>
      <path class="cls-2" d="M17.75,36.82c-.47,.2-.94,.36-1.37,.51l-.62-1.81c.69-.24,1.4-.48,2.01-.84,.41-.25,.96-.66,1.22-1.23,.41-.91,.33-1.7-.31-3l1.72-.84c.89,1.81,.99,3.19,.34,4.63-.37,.82-1.06,1.54-2,2.1-.32,.19-.65,.35-.98,.49Z"/>
      <g>
        <path class="cls-1" d="M7.95,30.22c1.24-1,2.69-1.74,4.23-2.16,.86-.23,1.81-.35,2.6,.04,.83,.41,1.32,1.37,1.28,2.29-.04,.92-.57,1.79-1.31,2.34-.37,.27-.8,.48-1.26,.52s-.94-.11-1.25-.46c-.38-.43-.41-1.13-.06-1.59s1.04-.62,1.55-.36"/>
        <path class="cls-2" d="M14.36,33.58c-.27,.12-.55,.19-.83,.21-.66,.05-1.3-.19-1.7-.64-.55-.62-.59-1.62-.09-2.28,.5-.66,1.48-.89,2.22-.52l-.48,.97c-.28-.14-.69-.05-.88,.21-.19,.25-.17,.66,.04,.9,.18,.2,.48,.3,.8,.28,.31-.03,.65-.17,.98-.41,.65-.48,1.06-1.2,1.09-1.93,.03-.74-.37-1.48-.98-1.78-.53-.27-1.24-.27-2.22,0-1.46,.4-2.85,1.11-4.03,2.06l-.68-.85c1.29-1.05,2.83-1.83,4.43-2.26,.79-.21,1.95-.44,2.99,.08,1,.5,1.63,1.63,1.58,2.8-.05,1.05-.62,2.08-1.53,2.75-.23,.17-.47,.31-.71,.41Z"/>
      </g>
      <rect class="cls-1" x="33.38" y="17.96" width="1.09" height="5.18" transform="translate(-5.34 14.96) rotate(-23.11)"/>
      <rect class="cls-1" x="31.45" y="18.78" width="1.09" height="5.18" transform="translate(-5.82 14.27) rotate(-23.11)"/>
      <rect class="cls-1" x="18.84" y="24.31" width="11.83" height="1.09" transform="translate(-7.77 11.71) rotate(-23.11)"/>
    </g>
  </g>
</svg>