<?xml version="1.0" encoding="UTF-8"?>
<svg id="Layer_2" data-name="Layer 2" xmlns="http://www.w3.org/2000/svg" viewBox="0 0 51.7 51.7">
  <defs>
    <style>
      .cls-1 {
        fill: #fff;
      }

      .cls-2 {
        fill: #7c604d;
      }
    </style>
  </defs>
  <g id="Layer_1-2" data-name="Layer 1">
    <g>
      <path class="cls-2" d="M25.85,51.7C11.6,51.7,0,40.1,0,25.85S11.6,0,25.85,0s25.85,11.6,25.85,25.85-11.6,25.85-25.85,25.85Zm0-49.55C12.78,2.15,2.15,12.78,2.15,25.85s10.63,23.7,23.7,23.7,23.7-10.63,23.7-23.7S38.92,2.15,25.85,2.15Z"/>
      <g id="_0tY7YY.tif" data-name="0tY7YY.tif">
        <g>
          <path class="cls-2" d="M24.97,6.1c.59,0,1.18,0,1.77,0,.76,.09,1.52,.14,2.27,.27,4.76,.81,8.76,3.01,11.87,6.7,3.88,4.61,5.38,9.95,4.47,15.9-.73,4.78-3.01,8.78-6.7,11.91-4.22,3.58-9.13,5.11-14.63,4.63-3.61-.31-6.9-1.58-9.81-3.75-4.23-3.15-6.85-7.33-7.8-12.53-.15-.82-.22-1.67-.32-2.5,0-.59,0-1.18,0-1.77,.02-.13,.06-.26,.07-.39,.22-3.5,1.3-6.72,3.26-9.61,3.17-4.67,7.53-7.55,13.09-8.57,.81-.15,1.64-.21,2.46-.32ZM11.06,25.85c-.01,8.23,6.54,14.79,14.78,14.81,8.22,.03,14.79-6.52,14.82-14.77,.04-8.23-6.55-14.83-14.8-14.83-8.23,0-14.79,6.55-14.8,14.79Zm-2.55-1.05c-.58,0-1.05,.45-1.07,1.03-.01,.59,.46,1.08,1.05,1.09,.59,0,1.07-.47,1.07-1.07,0-.58-.47-1.04-1.05-1.05Zm18.41,18.32c0-.57-.48-1.04-1.06-1.04-.59,0-1.07,.48-1.06,1.08,0,.57,.48,1.04,1.06,1.04,.59,0,1.07-.48,1.06-1.08ZM14.64,13.62c0-.58-.45-1.05-1.02-1.06-.57-.01-1.05,.46-1.06,1.03-.01,.57,.45,1.05,1.03,1.06,.58,0,1.05-.44,1.06-1.02Zm23.5,1.02c.58,0,1.04-.49,1.03-1.06-.01-.57-.5-1.04-1.06-1.03-.57,.01-1.03,.49-1.02,1.06,0,.58,.48,1.03,1.06,1.02ZM14.64,38.12c0-.58-.46-1.04-1.04-1.04-.57,0-1.05,.47-1.05,1.04,0,.57,.48,1.05,1.05,1.05,.57,0,1.04-.47,1.04-1.05Zm22.44-.02c0,.58,.45,1.05,1.02,1.06,.57,.01,1.05-.46,1.06-1.03,.01-.57-.45-1.05-1.03-1.06-.58,0-1.05,.44-1.06,1.02Zm7.12-12.25c0-.6-.41-1.04-.97-1.05-.59,0-1.07,.48-1.06,1.07,0,.59,.49,1.06,1.08,1.05,.55-.01,.96-.46,.95-1.07ZM25.85,7.53c-.6,0-1.05,.41-1.05,.97,0,.59,.47,1.06,1.06,1.06,.6,0,1.05-.42,1.05-.97,0-.59-.47-1.06-1.07-1.06Z"/>
          <path class="cls-1" d="M8.51,24.8c.58,0,1.04,.47,1.05,1.05,0,.59-.47,1.07-1.07,1.07-.59,0-1.06-.49-1.05-1.09,.01-.57,.49-1.03,1.07-1.03Z"/>
          <path class="cls-1" d="M26.91,43.12c0,.59-.47,1.08-1.06,1.08-.58,0-1.05-.46-1.06-1.04,0-.59,.47-1.08,1.06-1.08,.58,0,1.05,.47,1.06,1.04Z"/>
          <path class="cls-1" d="M14.64,13.62c0,.58-.48,1.03-1.06,1.02-.58,0-1.04-.49-1.03-1.06,.01-.57,.5-1.04,1.06-1.03,.57,.01,1.03,.49,1.02,1.06Z"/>
          <path class="cls-1" d="M38.14,14.64c-.58,0-1.05-.44-1.06-1.02,0-.58,.45-1.05,1.02-1.06,.57-.01,1.05,.46,1.06,1.03,.01,.57-.45,1.05-1.03,1.06Z"/>
          <path class="cls-1" d="M14.64,38.12c0,.58-.47,1.05-1.04,1.05-.57,0-1.05-.48-1.05-1.05,0-.57,.47-1.04,1.05-1.04,.58,0,1.04,.46,1.04,1.04Z"/>
          <path class="cls-1" d="M37.08,38.1c0-.58,.48-1.03,1.06-1.02,.58,0,1.04,.49,1.03,1.06-.01,.57-.5,1.04-1.06,1.03-.57-.01-1.03-.49-1.02-1.06Z"/>
          <path class="cls-1" d="M44.19,25.85c0,.6-.4,1.06-.95,1.07-.59,.01-1.08-.46-1.08-1.05,0-.59,.47-1.07,1.06-1.07,.56,0,.97,.44,.97,1.05Z"/>
          <path class="cls-1" d="M25.85,7.53c.6,0,1.07,.47,1.07,1.06,0,.56-.45,.97-1.05,.97-.59,0-1.07-.48-1.06-1.06,0-.56,.45-.97,1.05-.97Z"/>
        </g>
      </g>
      <g>
        <path class="cls-2" d="M29.81,27.28c-.1,.16,0,.37,.18,.4,1.79,.3,3.35,1.06,4.76,2.16,.42,.32,.8,.69,1.23,.99s.93,.54,1.46,.54,1.21-.24,1.44-.71c-.17,.66-.48,1.29-.94,1.79-.46,.5-1.07,.88-1.73,1.02-.75,.16-1.54,.01-2.27-.22-1.32-.43-2.47-1.21-3.47-2.17-.34,1.16-.15,2.47,.52,3.47s1.86,1.73,3.06,1.87c-.96,.7-2.21,.93-3.38,.73-1.17-.2-2.24-.81-3.09-1.64-.84-.81-1.31-1.87-1.66-2.98-.63,1.17-1.42,2.25-2.36,3.2-.59,.59-1.24,1.14-1.98,1.51s-1.6,.57-2.42,.45-1.58-.54-2-1.25c.79,.3,1.74,.14,2.39-.4,.6-.5,.92-1.27,1.21-1.99,.44-1.1,1.08-2.19,1.53-3.29-1.57,1.5-3.75,2.35-5.92,2.31-.89-.02-1.81-.19-2.53-.71s-1.18-1.41-.97-2.28c.36,.31,.72,.63,1.15,.84s.92,.32,1.38,.18c.34-.1,.62-.33,.91-.53,1.22-.89,2.6-1.55,4.06-1.95,.44-.12,.92-.22,1.31-.44,.31-.18,.41-.58,.21-.88-.74-1.1-2.65-4.2-2.58-6.7,.09-3.09,1.16-6.33,6.7-6.6,1.31-.07,2.64,.3,3.73,1.02,1.09,.73,1.94,1.81,2.38,3.05,.6,1.69,.42,3.58-.15,5.27-.53,1.57-1.29,2.6-2.16,3.94Z"/>
        <path class="cls-2" d="M18.55,29.03c.58-.36,1.24-.6,1.92-.69,.21-.03,.39-.06,.55-.2,.15-.12,.27-.31,.3-.5,.08-.48-.43-.96-.71-1.29-.35-.42-.73-.82-1.12-1.2-.74-.7-1.67-1.26-2.69-1.38-1.13-.13-2.3,.3-3.08,1.13,.7-.09,1.43-.13,2.12-.03s1.39,.42,1.79,1c.34,.49,.43,1.1,.47,1.68,.02,.27-.04,.53,.03,.79,.07,.27,.2,.49,.33,.73,.03-.02,.05-.03,.08-.05Z"/>
        <path class="cls-2" d="M33.28,28.47c-.58-.36-1.24-.6-1.92-.69-.21-.03-.39-.06-.55-.2-.15-.12-.27-.31-.3-.5-.08-.48,.43-.96,.71-1.29,.35-.42,.73-.82,1.12-1.2,.74-.7,1.67-1.26,2.69-1.38,1.13-.13,2.3,.3,3.08,1.13-.7-.09-1.43-.13-2.12-.03s-1.39,.42-1.79,1c-.34,.49-.43,1.1-.47,1.68-.02,.27,.04,.53-.03,.79-.07,.27-.2,.49-.33,.73-.03-.02-.05-.03-.08-.05Z"/>
        <path class="cls-1" d="M25.29,22.32c-1.39-.42-2.71-1.04-3.91-1.86-.03,.28-.1,.55-.07,.83s.12,.57,.31,.78c.19,.21,.46,.34,.72,.43,.71,.25,1.49,.33,2.24,.23,.14-.02,.29-.05,.42-.11s.24-.18,.3-.31Z"/>
        <path class="cls-1" d="M26.42,22.32c1.39-.42,2.71-1.04,3.91-1.86,.03,.28,.1,.55,.07,.83s-.12,.57-.31,.78c-.19,.21-.46,.34-.72,.43-.71,.25-1.49,.33-2.24,.23-.14-.02-.29-.05-.42-.11s-.24-.18-.3-.31Z"/>
      </g>
    </g>
  </g>
</svg>