<?xml version="1.0" encoding="UTF-8"?>
<svg id="Layer_2" data-name="Layer 2" xmlns="http://www.w3.org/2000/svg" viewBox="0 0 51.7 51.7">
  <defs>
    <style>
      .cls-1 {
        fill: #7c604d;
      }
    </style>
  </defs>
  <g id="Layer_1-2" data-name="Layer 1">
    <g>
      <path class="cls-1" d="M25.85,51.7C11.6,51.7,0,40.1,0,25.85S11.6,0,25.85,0s25.85,11.6,25.85,25.85-11.6,25.85-25.85,25.85Zm0-49.55C12.78,2.15,2.15,12.78,2.15,25.85s10.63,23.7,23.7,23.7,23.7-10.63,23.7-23.7S38.92,2.15,25.85,2.15Z"/>
      <g id="_1vntdW.tif" data-name="1vntdW.tif">
        <g>
          <path class="cls-1" d="M46.53,20.18c-.13,.23-.26,.47-.49,.63-.17,.11-.17,.28-.17,.45,0,.44,0,.87,0,1.31,0,.7-.23,.93-.95,.93-3.3,0-6.6,0-9.9,0-.55,0-.57,0-.5,.54,.46,3.33-1.4,6.62-4.52,7.99-.77,.34-.76,.34-.78-.48,0-.14,.03-.3-.02-.42-.43-.93,.24-1.44,.8-1.9,1.48-1.21,2.22-2.73,2.09-4.65,0-.01,0-.03,0-.04-.05-.97-.11-1.04-1.08-1.04-.75,0-1.5,0-2.24,0-.2,0-.39,0-.31,.3,.05,.18-.06,.22-.21,.22-.55-.01-1.1-.03-1.65,.06-.25,.04-.31-.14-.35-.33-.02-.08-.03-.18-.13-.2-.13-.02-.18,.09-.2,.18-.1,.48-.44,.52-.85,.55-1.78,.15-3.55,.06-5.31-.27-.81-.15-1.59-.4-2.32-.77-.2-.1-.29-.24-.35-.47-.49-1.77-.17-3.58-.24-5.37-.04-.93,.12-1.06,1.08-1.06,7.69,0,15.38,0,23.07,0,.4,0,.88,.12,.93-.52,0-.05,.07-.09,.1-.13,.48,0,.96,0,1.44,0,.06,.08,.16,.15,.17,.23,.05,.44,.35,.43,.68,.42,.28-.01,.56,0,.84,0,.23,0,.46,.07,.54,.27,.18,.45,.59,.7,.81,1.11v2.45Z"/>
          <path class="cls-1" d="M4.66,27.28c.47,.03,.94-.02,1.43-.05,1.39-.07,2.5-.73,3.54-1.62,1.21-1.03,2.41-2.09,3.76-2.94,.77-.49,1.58-.66,2.45-.29,.4,.17,.65,.44,.64,.9-.01,.37,.18,.55,.49,.71,1.33,.68,2.77,.94,4.24,1.08,1.82,.17,3.63,.09,5.43-.22,.4-.07,.82-.06,1.22,0,1.8,.25,2.33,1.61,1.94,3.13-.22,.83-.79,1.45-1.38,2.05-.26,.26-.32,.49-.22,.85,.37,1.32,.1,2.51-.91,3.49-.15,.14-.19,.27-.16,.48,.19,1.46-.31,2.63-1.56,3.44-.22,.14-.32,.32-.4,.57-.58,1.93-2.05,3.06-4.06,3.19-3.46,.23-6.72-.54-9.88-1.87-1.56-.66-3.09-1.37-4.79-1.64-.94-.15-1.88-.24-2.82-.21-.37,.01-.49-.11-.49-.48,0-1.08,.01-1.89-.37-2.89-.35-.92-.64-1.86-.86-2.82s-.37-1.93-.46-2.91c-.02-.25-.02-2.82-.05-2.83,.86,.26,1.71,.53,2.57,.78,.23,.07,.46,.1,.69,.12Z"/>
        </g>
      </g>
    </g>
  </g>
</svg>