<svg width="884" height="398" viewBox="0 0 884 398" fill="none" xmlns="http://www.w3.org/2000/svg">
<path d="M133.073 131.193C143.655 126.737 157.105 124.125 164.818 123.953C166.463 121.465 190.666 89.7777 232.14 103.877C281.702 120.724 312.739 164.082 315.524 168.192C303.004 123.983 272.542 98.0445 238.22 85.9842C203.687 73.8495 164.554 83.0654 133.073 131.193Z" fill="#00ADFF" style="fill:#00ADFF;fill:color(display-p3 0.0000 0.6784 1.0000);fill-opacity:1;"/>
<path d="M227.091 110.315C241.572 127.58 247.274 144.776 247.274 168.251C247.274 194.374 233.787 217.842 212.474 233.834C218.668 235.72 225.155 236.726 231.839 236.726C233.663 236.726 235.468 236.624 237.261 236.477C255.006 218.07 265.72 194.265 265.72 168.251C265.72 151.982 263.292 139.275 257.166 124.795C246.734 117.499 240.458 114.213 227.091 110.315Z" fill="#00ADFF" style="fill:#00ADFF;fill:color(display-p3 0.0000 0.6784 1.0000);fill-opacity:1;"/>
<path d="M267.663 266.998C257.081 271.454 243.631 274.066 235.918 274.238C234.272 276.727 210.07 308.414 168.595 294.315C119.034 277.467 87.9966 234.109 85.2119 229.999C97.7314 274.208 128.194 300.147 162.515 312.207C197.048 324.342 236.182 315.126 267.663 266.998Z" fill="#00ADFF" style="fill:#00ADFF;fill:color(display-p3 0.0000 0.6784 1.0000);fill-opacity:1;"/>
<path d="M173.637 287.877C159.157 270.612 153.454 253.416 153.454 229.94C153.454 203.818 166.942 180.35 188.254 164.358C182.06 162.472 175.573 161.466 168.89 161.466C167.065 161.466 165.261 161.568 163.468 161.715C145.723 180.121 135.008 203.927 135.008 229.94C135.008 246.209 137.436 258.916 143.563 273.396C153.994 280.692 160.271 283.978 173.637 287.877Z" fill="#00ADFF" style="fill:#00ADFF;fill:color(display-p3 0.0000 0.6784 1.0000);fill-opacity:1;"/>
<path d="M268.264 131.803C272.72 142.385 275.332 155.835 275.504 163.548C277.993 165.193 309.68 189.396 295.581 230.87C278.733 280.432 235.375 311.469 231.265 314.254C275.475 301.734 301.413 271.272 313.473 236.951C325.608 202.417 316.392 163.284 268.264 131.803Z" fill="#00ADFF" style="fill:#00ADFF;fill:color(display-p3 0.0000 0.6784 1.0000);fill-opacity:1;"/>
<path d="M289.141 225.827C271.876 240.307 254.681 246.01 231.205 246.01C205.083 246.01 181.614 232.522 165.622 211.21C163.737 217.404 162.73 223.891 162.73 230.574C162.73 232.399 162.832 234.203 162.979 235.997C181.386 253.741 205.192 264.456 231.205 264.456C247.474 264.456 260.181 262.028 274.661 255.902C281.957 245.47 285.243 239.194 289.141 225.827Z" fill="#00ADFF" style="fill:#00ADFF;fill:color(display-p3 0.0000 0.6784 1.0000);fill-opacity:1;"/>
<path d="M132.463 266.388C128.008 255.807 125.396 242.356 125.223 234.643C122.735 232.998 91.048 208.796 105.147 167.321C121.995 117.76 165.353 86.7225 169.463 83.9377C125.253 96.4572 99.3147 126.92 87.2544 161.241C75.1198 195.774 84.3356 234.908 132.463 266.388Z" fill="#00ADFF" style="fill:#00ADFF;fill:color(display-p3 0.0000 0.6784 1.0000);fill-opacity:1;"/>
<path d="M111.587 172.366C128.852 157.886 146.048 152.183 169.524 152.183C195.646 152.183 219.114 165.671 235.106 186.983C236.992 180.789 237.998 174.302 237.998 167.619C237.998 165.794 237.896 163.99 237.749 162.197C219.342 144.452 195.537 133.737 169.524 133.737C153.255 133.737 140.547 136.165 126.067 142.292C118.771 152.723 115.486 159 111.587 172.366Z" fill="#00ADFF" style="fill:#00ADFF;fill:color(display-p3 0.0000 0.6784 1.0000);fill-opacity:1;"/>
<path d="M657.047 183.256H628.35V181.146L636.262 178.825V144.325L629.194 143.059V141.054C634.047 140.105 639.533 137.151 642.593 132.403H644.703V144.219H644.808C646.602 141.582 651.666 135.568 657.891 135.568C661.795 135.568 663.694 137.573 663.694 140.21C663.694 143.164 661.162 145.591 658.629 145.696C655.253 144.219 653.776 142.848 651.455 142.109C648.501 142.109 645.336 146.329 644.808 148.651V178.825L657.047 181.146V183.256Z" fill="black" style="fill:black;fill-opacity:1;"/>
<path d="M605.297 184.627C593.902 184.627 583.563 176.187 583.563 160.888C583.563 145.485 593.375 135.462 605.508 135.462C610.783 135.462 614.476 136.939 617.324 139.366C621.65 143.058 623.021 148.65 624.393 150.866L623.654 152.765L592.32 152.554C592.109 153.503 592.003 155.402 592.003 156.879C592.003 167.746 597.7 178.613 610.15 178.613C616.691 178.613 621.122 175.448 623.654 173.338L624.815 175.132C621.333 178.719 614.476 184.627 605.297 184.627ZM592.742 150.022C599.072 149.811 605.508 149.705 611.838 149.389C613.843 149.283 614.581 149.177 614.581 147.595C614.581 143.586 612.049 138.205 604.875 138.205C597.806 138.205 593.902 144.219 592.742 150.022Z" fill="black" style="fill:black;fill-opacity:1;"/>
<path d="M563.032 184.417C555.963 184.417 551.532 180.935 551.532 174.816V171.545C551.532 162.261 551.849 148.44 552.06 142.531L546.046 142.426V140.421C552.06 138.733 556.385 134.408 558.812 129.871H560.606L560.395 137.467C565.986 137.467 571.578 137.362 577.17 137.362V141.265C577.17 142.004 576.853 142.426 576.22 142.531H560.395C560.395 143.059 560.395 144.008 560.395 145.063C560.5 149.917 560.183 159.201 560.183 165.848V172.178C560.183 176.926 562.61 179.563 567.991 179.563C572.422 179.563 575.482 177.77 576.22 177.348L577.064 179.141C575.482 180.724 570.312 184.417 563.032 184.417Z" fill="black" style="fill:black;fill-opacity:1;"/>
<path d="M512.613 183.256H487.081V181.146L495.521 179.036V143.903L488.452 142.637V140.632C494.255 139.26 499.319 136.306 502.273 133.141H504.067V143.375H504.173C507.127 139.893 512.824 135.251 521.053 135.251C529.388 135.251 534.874 139.893 534.874 149.178V179.036L542.998 181.146V183.256H517.783V181.146L526.223 179.036V151.182C526.223 145.485 522.847 140.948 515.989 140.948C510.608 140.948 506.599 143.481 504.173 146.224V179.036L512.613 181.146V183.256Z" fill="black" style="fill:black;fill-opacity:1;"/>
<path d="M463.97 184.627C452.576 184.627 442.237 176.187 442.237 160.888C442.237 145.485 452.048 135.462 464.181 135.462C469.457 135.462 473.149 136.939 475.998 139.366C480.324 143.058 481.695 148.65 483.067 150.866L482.328 152.765L450.993 152.554C450.782 153.503 450.677 155.402 450.677 156.879C450.677 167.746 456.374 178.613 468.824 178.613C475.365 178.613 479.796 175.448 482.328 173.338L483.489 175.132C480.007 178.719 473.149 184.627 463.97 184.627ZM451.415 150.022C457.746 149.811 464.181 149.705 470.512 149.389C472.516 149.283 473.255 149.177 473.255 147.595C473.255 143.586 470.723 138.205 463.548 138.205C456.48 138.205 452.576 144.219 451.415 150.022Z" fill="black" style="fill:black;fill-opacity:1;"/>
<path d="M407.356 184.522C382.879 184.522 366.948 170.067 366.948 147.806C366.948 125.861 383.512 110.668 408.094 110.668C417.906 110.668 425.925 112.462 430.25 114.15L430.672 130.714H428.351C426.347 122.168 424.448 113.834 407.672 113.834C390.475 113.834 378.87 125.967 378.87 146.329C378.87 167.957 391.847 181.567 408.833 181.567C424.342 181.567 427.613 171.861 430.356 163.526L432.783 163.737L429.828 180.301C425.397 182.411 417.168 184.522 407.356 184.522Z" fill="black" style="fill:black;fill-opacity:1;"/>
<path d="M735.352 315.597C731.764 315.597 729.971 313.276 729.971 310.744C729.971 308.001 731.659 305.89 735.457 305.89C736.723 305.89 738.2 306.207 739.15 306.629L747.063 288.377L729.127 245.12L723.957 242.904V240.794H747.379V242.904L738.517 245.12C743.37 257.675 746.957 267.276 750.966 277.932H751.283C755.608 267.17 759.829 255.987 764.049 245.225L754.764 242.904V240.794H774.388V242.904L768.585 245.225C764.787 254.299 753.393 281.835 750.966 287.955C747.59 296.501 741.471 311.693 741.471 311.693C740.627 313.592 738.728 315.597 735.352 315.597Z" fill="black" style="fill:black;fill-opacity:1;"/>
<path d="M704.372 288.272C697.303 288.272 692.872 284.79 692.872 278.671V275.4C692.872 266.116 693.189 252.295 693.4 246.386L687.386 246.281V244.276C693.399 242.588 697.725 238.263 700.152 233.726H701.945L701.734 241.322C707.326 241.322 712.918 241.217 718.51 241.217V245.12C718.51 245.859 718.193 246.281 717.56 246.386H701.734C701.734 246.914 701.734 247.863 701.734 248.918C701.84 253.772 701.523 263.056 701.523 269.703V276.033C701.523 280.781 703.95 283.418 709.331 283.418C713.762 283.418 716.821 281.625 717.56 281.203L718.404 282.996C716.821 284.579 711.652 288.272 704.372 288.272Z" fill="black" style="fill:black;fill-opacity:1;"/>
<path d="M662.959 288.482C651.565 288.482 641.225 280.042 641.225 264.743C641.225 249.34 651.037 239.317 663.17 239.317C668.445 239.317 672.138 240.794 674.987 243.221C679.312 246.913 680.684 252.505 682.055 254.721L681.317 256.62L649.982 256.409C649.771 257.358 649.665 259.257 649.665 260.734C649.665 271.601 655.363 282.468 667.812 282.468C674.353 282.468 678.785 279.303 681.317 277.193L682.477 278.987C678.996 282.574 672.138 288.482 662.959 288.482ZM650.404 253.877C656.734 253.666 663.17 253.56 669.5 253.243C671.505 253.138 672.243 253.032 672.243 251.45C672.243 247.441 669.711 242.06 662.537 242.06C655.468 242.06 651.565 248.074 650.404 253.877Z" fill="black" style="fill:black;fill-opacity:1;"/>
<path d="M632.925 287.111H605.283V285.001L613.723 282.891V245.542H607.288V243.537L613.618 240.794C614.567 224.863 621.214 209.565 636.09 209.565C640.521 209.565 644.636 211.253 644.636 213.891C644.636 216.317 642.315 218.427 640.205 218.744C636.934 217.267 633.769 214.629 629.76 214.313C624.907 214.313 622.375 217.583 622.375 239.001V241.005L636.407 240.9V244.487C636.407 245.12 635.985 245.436 635.352 245.542H622.269L622.375 282.891L632.925 285.001V287.111Z" fill="black" style="fill:black;fill-opacity:1;"/>
<path d="M566.834 288.587C561.664 288.587 557.76 286.688 557.76 281.941C557.76 271.179 575.907 264.532 583.082 261.578L583.293 247.863C583.293 244.803 580.338 242.377 576.013 242.377C565.884 242.377 570.421 252.505 560.609 252.505C559.027 252.505 558.077 251.977 558.077 250.922C558.077 248.707 561.137 245.331 566.201 242.693C569.894 240.794 574.641 239.317 580.022 239.317C587.407 239.317 592.049 241.532 592.049 247.863L591.1 278.565C591.416 280.675 592.577 282.363 595.531 282.363C599.118 282.363 601.017 279.303 601.545 278.67H601.967V281.097C600.806 283.523 596.692 288.06 590.994 288.06C586.352 288.06 584.137 285.844 582.765 282.679H581.921C579.705 284.895 573.586 288.587 566.834 288.587ZM573.164 283.84C577.384 283.84 581.605 281.73 582.554 277.404L583.082 263.794C572.215 268.858 567.15 273.817 567.15 278.459C567.15 282.257 569.683 283.84 573.164 283.84Z" fill="black" style="fill:black;fill-opacity:1;"/>
<path d="M524.408 288.377C516.812 288.377 509.637 286.478 505.628 284.262L504.89 267.803L507.422 267.698C507.844 269.491 508.266 271.285 508.793 272.973C511.22 280.675 515.651 285.528 524.83 285.528C534.431 285.528 540.128 280.042 540.128 271.602C540.128 264.111 535.169 259.785 527.995 256.303L524.724 254.721C513.013 249.024 507 244.381 507 233.62C507 221.909 516.812 214.524 530.633 214.524C537.491 214.524 542.871 216.106 546.775 217.689L546.88 232.776H544.559C544.243 231.088 543.821 229.505 543.399 228.028C541.711 222.014 538.44 217.478 530 217.478C521.559 217.478 516.495 222.331 516.495 229.822C516.495 236.891 519.66 240.478 529.894 245.647L533.059 247.23C542.344 251.872 549.835 257.253 549.835 267.803C549.835 281.519 538.335 288.377 524.408 288.377Z" fill="black" style="fill:black;fill-opacity:1;"/>
<path d="M472.828 287.111H440.333V285.001L451.516 282.68V220.221L440.333 217.9V215.79H472.828V217.9L461.75 220.221V282.68L472.828 285.001V287.111Z" fill="black" style="fill:black;fill-opacity:1;"/>
<path d="M388.71 287.111H364.76V285L373.201 282.468L390.715 235.308C393.036 228.978 395.884 221.592 398.205 215.051H400.949C403.164 221.276 406.013 228.45 408.861 235.941L426.481 282.574L434.077 285V287.111H405.063V285L415.93 282.574L406.751 257.886H386.283L378.054 282.468L388.71 285V287.111ZM387.444 254.51H405.485C404.536 251.661 397.045 231.088 396.623 229.189H396.306C393.88 237.734 390.293 245.964 387.444 254.51Z" fill="black" style="fill:black;fill-opacity:1;"/>
<path d="M769.36 183.36L763.021 183.783L762.387 183.149L763.444 180.402C764.5 177.655 767.141 170.366 768.937 164.872C770.1 161.492 771.579 157.055 776.121 142.476C776.121 141.842 775.699 141.525 775.276 141.525C772.635 142.476 768.092 146.279 765.451 149.448L763.866 147.652C767.775 142.581 774.431 135.82 780.558 135.82C783.199 135.82 783.939 137.088 783.939 138.778C783.939 141.314 781.826 146.701 779.924 151.561L776.121 161.175H776.755C777.495 159.801 778.445 158.111 779.608 156.21C786.897 144.06 792.708 136.031 798.835 136.031C802.321 136.031 803.589 138.039 803.589 140.046C803.589 143.638 800.314 145.856 797.462 145.962L797.039 145.645C795.032 144.06 794.292 143.321 793.341 143.321C790.7 143.321 784.15 153.463 782.249 156.843C778.445 163.076 776.755 166.668 775.276 169.943C772.635 175.543 770.416 180.825 769.36 183.36Z" fill="black" style="fill:black;fill-opacity:1;"/>
<path d="M730.446 184.1C723.051 184.1 717.874 179.663 717.874 170.472C717.874 157.689 728.967 136.348 744.285 136.348C751.997 136.348 756.857 141.419 756.857 150.082C756.857 162.231 746.187 184.1 730.446 184.1ZM730.023 182.198C738.792 182.198 749.884 157.689 749.884 145.645C749.884 140.574 747.455 138.778 744.497 138.778C735.305 138.778 724.741 164.767 724.741 175.331C724.741 179.874 726.854 182.198 730.023 182.198Z" fill="black" style="fill:black;fill-opacity:1;"/>
<path d="M675.669 211.251C672.183 211.251 669.436 209.772 669.436 207.448C669.436 205.546 670.915 204.49 672.288 204.49C673.028 204.49 673.662 205.229 675.669 207.025C677.042 208.293 677.888 208.821 678.944 208.821C681.374 208.821 683.487 205.018 686.551 194.665C688.452 188.326 690.248 181.776 701.235 143.427H692.995L693.84 140.575L702.186 140.363L705.038 131.489C707.891 122.721 711.588 116.171 716.765 112.156C720.357 109.409 724.371 107.825 728.914 107.825C733.985 107.825 737.366 109.726 737.366 111.311C737.366 113.107 735.041 115.114 733.246 115.114C732.506 115.114 731.661 114.269 730.921 113.741C729.231 112.473 726.907 110.994 724.16 110.994C722.047 110.994 720.357 112.367 718.878 114.375C716.976 117.544 714.863 123.249 713.279 128.848L709.898 140.469H720.462L719.512 143.533H708.947L700.284 172.691C697.326 182.621 694.791 191.707 691.833 198.045C687.818 206.286 682.853 211.251 675.669 211.251Z" fill="black" style="fill:black;fill-opacity:1;"/>
</svg>
