<svg width="398" height="398" viewBox="0 0 398 398" fill="none" xmlns="http://www.w3.org/2000/svg">
<path d="M131.071 130.999C141.645 126.547 155.086 123.937 162.793 123.764C164.437 121.278 188.621 89.6143 230.065 103.703C279.59 120.538 310.604 163.864 313.387 167.971C300.876 123.794 270.437 97.875 236.141 85.8236C201.633 73.698 162.529 82.907 131.071 130.999Z" fill="#00ADFF" style="fill:#00ADFF;fill:color(display-p3 0.0000 0.6784 1.0000);fill-opacity:1;"/>
<path d="M225.021 110.136C239.49 127.388 245.189 144.571 245.189 168.029C245.189 194.132 231.711 217.583 210.414 233.563C216.604 235.447 223.086 236.453 229.764 236.453C231.587 236.453 233.391 236.351 235.182 236.204C252.914 217.811 263.621 194.023 263.621 168.029C263.621 151.772 261.194 139.075 255.073 124.605C244.649 117.315 238.377 114.031 225.021 110.136Z" fill="#00ADFF" style="fill:#00ADFF;fill:color(display-p3 0.0000 0.6784 1.0000);fill-opacity:1;"/>
<path d="M265.561 266.703C254.987 271.155 241.547 273.765 233.84 273.938C232.196 276.424 208.011 308.088 166.567 293.999C117.043 277.164 86.0287 233.838 83.2461 229.731C95.7562 273.908 126.196 299.827 160.492 311.878C195 324.004 234.104 314.795 265.561 266.703Z" fill="#00ADFF" style="fill:#00ADFF;fill:color(display-p3 0.0000 0.6784 1.0000);fill-opacity:1;"/>
<path d="M171.605 287.566C157.136 270.314 151.437 253.131 151.437 229.672C151.437 203.57 164.915 180.119 186.212 164.139C180.022 162.254 173.54 161.249 166.861 161.249C165.038 161.249 163.235 161.351 161.443 161.498C143.712 179.891 133.005 203.678 133.005 229.672C133.005 245.929 135.431 258.627 141.553 273.096C151.977 280.387 158.249 283.67 171.605 287.566Z" fill="#00ADFF" style="fill:#00ADFF;fill:color(display-p3 0.0000 0.6784 1.0000);fill-opacity:1;"/>
<path d="M266.163 131.608C270.615 142.182 273.225 155.623 273.398 163.33C275.884 164.974 307.548 189.159 293.459 230.602C276.624 280.127 233.298 311.141 229.191 313.924C273.368 301.414 299.287 270.974 311.339 236.678C323.464 202.17 314.255 163.066 266.163 131.608Z" fill="#00ADFF" style="fill:#00ADFF;fill:color(display-p3 0.0000 0.6784 1.0000);fill-opacity:1;"/>
<path d="M287.024 225.562C269.772 240.032 252.589 245.73 229.13 245.73C203.028 245.73 179.577 232.253 163.597 210.956C161.712 217.146 160.707 223.628 160.707 230.306C160.707 232.129 160.809 233.933 160.956 235.724C179.349 253.456 203.137 264.163 229.13 264.163C245.387 264.163 258.085 261.736 272.554 255.615C279.845 245.191 283.128 238.919 287.024 225.562Z" fill="#00ADFF" style="fill:#00ADFF;fill:color(display-p3 0.0000 0.6784 1.0000);fill-opacity:1;"/>
<path d="M130.462 266.094C126.01 255.52 123.4 242.079 123.227 234.372C120.741 232.728 89.0772 208.544 103.166 167.1C120.001 117.575 163.327 86.5611 167.434 83.7784C123.257 96.2886 97.3379 126.728 85.2865 161.024C73.1609 195.532 82.3698 234.636 130.462 266.094Z" fill="#00ADFF" style="fill:#00ADFF;fill:color(display-p3 0.0000 0.6784 1.0000);fill-opacity:1;"/>
<path d="M109.602 172.141C126.854 157.671 144.037 151.973 167.495 151.973C193.598 151.973 217.049 165.45 233.029 186.747C234.913 180.558 235.918 174.075 235.918 167.397C235.918 165.574 235.817 163.771 235.67 161.979C217.277 144.247 193.489 133.541 167.495 133.541C151.238 133.541 138.54 135.967 124.071 142.089C116.781 152.512 113.497 158.784 109.602 172.141Z" fill="#00ADFF" style="fill:#00ADFF;fill:color(display-p3 0.0000 0.6784 1.0000);fill-opacity:1;"/>
</svg>
