<?xml version="1.0" encoding="UTF-8"?>
<svg id="Layer_2" data-name="Layer 2" xmlns="http://www.w3.org/2000/svg" viewBox="0 0 240.33 258.01">
  <defs>
    <style>
      .cls-1 {
        fill: #f7c442;
        stroke: #0a0a0a;
        stroke-linecap: round;
        stroke-linejoin: round;
        stroke-width: 6px;
      }

      .cls-2 {
        fill: #020202;
      }

      .cls-3, .cls-4 {
        fill: #fff;
      }

      .cls-5 {
        fill: #89d3f7;
      }

      .cls-6 {
        fill: #a7c46a;
      }

      .cls-7 {
        fill: #bde286;
      }

      .cls-8 {
        fill: #aadef6;
      }

      .cls-9 {
        fill: #070707;
      }

      .cls-10 {
        fill: #43758a;
      }

      .cls-11 {
        fill: #0a0a0a;
      }

      .cls-12 {
        fill: #47abe2;
      }

      .cls-13 {
        fill: #578eaa;
      }

      .cls-14 {
        stroke: #000;
        stroke-width: 1.25px;
      }

      .cls-14, .cls-15 {
        fill: none;
        stroke-miterlimit: 10;
      }

      .cls-15 {
        stroke: #070707;
        stroke-width: 10px;
      }

      .cls-4 {
        opacity: .3;
      }
    </style>
  </defs>
  <g id="Layer_1-2" data-name="Layer 1">
    <g id="_2DXTTK.tif" data-name="2DXTTK.tif">
      <path class="cls-1" d="M214.41,54.69c3.04,12.13,10.6,19.6,22.92,22.57-15.2,6.01-16.01,6.81-23.05,22.93-3-12.21-10.41-19.72-23.2-22.82,12.85-3.12,20.27-10.63,23.33-22.68Z"/>
    </g>
    <g id="rHuDRN.tif">
      <g>
        <path class="cls-7" d="M197.13,132.43c0,7.09-1.32,13.87-3.74,20.1-.62,1.59-1.3,3.14-2.05,4.65-1.9,3.84-4.23,7.42-6.93,10.69-.01,.01-.02,.03-.03,.04-1.37,1.65-2.83,3.22-4.37,4.69-.15,.16-.31,.3-.47,.45-.37,.34-.74,.68-1.12,1-.29,.26-.58,.51-.87,.75-.61,.52-1.22,1.02-1.85,1.51-.27,.21-.53,.41-.8,.62-.89,.68-1.79,1.32-2.7,1.92-.27,.18-.55,.36-.82,.54-.22,.14-.43,.27-.65,.41-1.03,.65-2.08,1.25-3.14,1.82-.05,.03-.1,.05-.15,.08-.78,.42-1.57,.81-2.37,1.18-.06,.03-.13,.06-.19,.1-.69,.32-1.38,.62-2.08,.9-.33,.14-.65,.27-.98,.4-.37,.14-.75,.28-1.13,.42-6.01,2.23-12.5,3.45-19.28,3.45-2.41,0-4.79-.15-7.12-.46-.06-.01-.13-.01-.19-.02-.39-.05-.78-.1-1.17-.16-.03-.01-.07-.01-.1-.02-26.7-4.13-47.14-27.2-47.14-55.06,0-17.38,7.96-32.91,20.44-43.13,1.62-1.33,3.32-2.57,5.09-3.71,1.87-1.2,3.81-2.3,5.82-3.27,.02-.01,.03-.02,.05-.03,7.35-3.58,15.61-5.58,24.32-5.58,5.89,0,11.57,.92,16.91,2.62,9.12,2.89,17.22,8.08,23.62,14.88,3.63,3.83,6.71,8.19,9.13,12.93,3.88,7.59,6.06,16.19,6.06,25.29Z"/>
        <path class="cls-12" d="M191.07,107.14c-.02,.28-.08,.56-.19,.83-1.17,2.85-6.16,.44-8.93,1.09-7.21-.01-10.26-.01-11.96,2.24-.15,.2-.29,.41-.42,.64-.97,1.71-1.48,4.45-2.28,8.82q-2.95,15.97,11.43,23.27c2.67,1.34,4.54,2.45,4.41,6.12-.11,2.93,1.29,5.99,2.3,8.9,.04,.11,.08,.22,.1,.34,1.04,3.24,.64,5.9-1.12,8.48-.01,.01-.02,.03-.03,.04-.42,.61-.92,1.21-1.49,1.82-.94,1-1.9,1.96-2.88,2.87-.15,.16-.31,.3-.47,.45-.37,.34-.74,.68-1.12,1-.29,.26-.58,.51-.87,.75-.61,.53-1.23,1.03-1.85,1.51-.27,.21-.53,.41-.8,.62-.89,.68-1.79,1.32-2.7,1.92-.49,.33-.97,.64-1.47,.95-1.03,.65-2.08,1.25-3.14,1.82-.05,.03-.1,.05-.15,.08-.78,.42-1.57,.81-2.37,1.18-.06,.03-.13,.06-.19,.1-.69,.32-1.38,.62-2.08,.9-.33,.14-.65,.27-.98,.4-.37,.14-.75,.28-1.13,.42-8.08,2.92-16.88,3.88-26.4,2.99-.06-.01-.13-.01-.19-.02-.39-.05-.78-.1-1.17-.16-.03-.01-.07-.01-.1-.02-1.81-.35-2.75-1.07-2.56-2.72,.07-.62,.29-1.36,.67-2.27,3.08-7.1,5.66-14.4,8.48-21.59,3.13-8.01-4.68-19.39-13.4-19.44-4.35-.04-8.77-.54-13.02,.11-5.94,.92-8.86-2.32-10.76-6.83-1.83-4.29,3.03-5.31,4.83-7.79,1.14-1.57,2.54-3.49,4.79-3.73,3.41-.38,7.23-.97,6.25,4.63-.7,3.97,1.31,4.56,4.78,4.62,3.7,.04,5.19-1,4.64-4.76-.78-5.48,.88-10.22,3.86-14.9,3.45-5.4,6.47-11.06,9.61-16.65,.42-.75,.85-1.5,1.27-2.25,.42-.73,.84-1.45,1.26-2.17,1.19-2.06,2.8-4.02-.72-5.2-2.33-.78-4.93-5.09-7.15,.05-.94,2.19-2.22,3.21-3.67,3.64-2.67,.82-5.92-.38-8.69,.07-2.89,.46-3.92-1.35-4.92-3.21-.42-.79-.84-1.59-1.39-2.22-1.11-1.28-.77-2,.05-2.56,.02-.01,.03-.02,.05-.03,.34-.23,.77-.42,1.2-.62,12.56-5.64,25.44-6.6,38.71-2.86,.52,.14,.95,.31,1.32,.52,1.46,.81,1.87,2.12,1.8,4-.13,3.02-.04,6.04-.04,9.06-.01,2.85-.38,6.36,3.23,6.93,4.09,.64,8.7,2.1,12.23-1.77,1.24-1.36,2.17-2.38,2.94-3.06h.01l3.22-.47c.07,.05,.15,.11,.23,.19,.86,.69,1.87,1.98,3.37,3.83,.23,.3,.49,.57,.71,.88,1.82,2.63,5.23,5.61,5.05,8.22Z"/>
        <path class="cls-12" d="M112.92,180.27c-15.84-10.27-24.82-24.02-26.91-42.23-.39-3.39,1.08-3.6,3.42-2.46,5.49,2.67,9.23,8.2,9.57,13.11,.5,7.31,4.3,11.43,9.03,15.35,5.08,4.2,6.68,9.15,4.88,16.23Z"/>
      </g>
      <path class="cls-4" d="M197.13,132.43c0,7.09-1.32,13.87-3.74,20.1-3.88-14.17-11.19-27.41-21.31-38.06-.82-.86-1.66-1.7-2.51-2.53-5.41-5.25-11.52-9.78-18.09-13.49-2.98-1.69-6.06-3.2-9.21-4.53-3.35-1.44-6.78-2.66-10.28-3.68-.62-.18-1.25-.35-1.88-.52-1.77-.47-6.72-1.56-11.73-2.62-2.5-.54-5.02-1.06-7.16-1.51,1.87-1.2,3.81-2.3,5.82-3.27,.02-.01,.03-.02,.05-.03,.34-.23,.77-.42,1.2-.62,12.56-5.64,25.44-6.6,38.71-2.86,.52,.14,.95,.31,1.32,.52,9.12,2.89,17.22,8.08,23.62,14.88,.86,.69,1.87,1.98,3.37,3.83,.23,.3,.49,.57,.71,.88,1.82,2.63,5.23,5.61,5.05,8.22,3.88,7.59,6.06,16.19,6.06,25.29Z"/>
      <circle class="cls-15" cx="141.42" cy="132.3" r="59.96"/>
    </g>
    <path class="cls-2" d="M230.83,119.05c2.78,18.6-.2,37.28-8.63,54.02-4.56,9.02-10.51,17.12-17.68,24.09-13.64,13.32-30.84,21.87-49.72,24.69-49.3,7.38-95.42-26.73-102.8-76.03-7.38-49.3,26.72-95.42,76.03-102.8,19.67-2.94,39.27,.54,56.69,10.07,2.61,1.42,3.57,4.7,2.14,7.3-1.42,2.61-4.69,3.56-7.3,2.14-15.35-8.39-32.61-11.46-49.94-8.86-43.44,6.5-73.49,47.13-66.98,90.57,6.5,43.44,47.13,73.49,90.57,66.99,16.64-2.49,31.79-10.01,43.81-21.76,6.32-6.15,11.56-13.29,15.58-21.23,7.42-14.74,10.05-31.2,7.6-47.58-.44-2.94,1.58-5.68,4.52-6.11,2.94-.44,5.68,1.58,6.11,4.52Z"/>
    <g>
      <path d="M87.95,30.45c0,.18-.09,.31-.31,.39-.45,.16-.88,.35-1.3,.57-.9,.47-1.7,1.07-2.38,1.82-.72,.8-1.26,1.71-1.65,2.7-.07,.17-.13,.35-.2,.52-.07,.17-.2,.25-.38,.26-.18,0-.32-.08-.4-.24-.15-.3-.28-.61-.42-.92-.37-.79-.76-1.57-1.3-2.26-.4-.51-.88-.94-1.43-1.28-.73-.45-1.51-.79-2.3-1.12-.08-.03-.16-.06-.23-.12-.25-.21-.2-.59,.09-.72,.19-.09,.4-.15,.59-.23,.69-.28,1.34-.63,1.94-1.06,.76-.54,1.41-1.2,1.95-1.96,.47-.66,.83-1.38,1.12-2.14,.11-.3,.4-.4,.66-.24,.09,.06,.14,.15,.18,.25,.33,.87,.76,1.67,1.33,2.4,.66,.85,1.46,1.56,2.4,2.1,.53,.31,1.07,.57,1.64,.77,.06,.02,.13,.05,.19,.08,.15,.08,.23,.2,.22,.41Z"/>
      <g id="bFspdn.tif">
        <g>
          <path d="M70.72,13.52c.6-.03,1.07,.3,1.45,.67,1.07,1.05,2.12,1.11,3.48,.43,.91-.46,1.36-.93,1.51-1.92,.38-2.45,.55-2.55,3.05-2.55,1.41,0,2.83-.01,4.24,0,1.45,.02,1.98,.44,2.05,1.85,.07,1.45,.53,2.33,2.07,2.8,1.04,.32,1.77,.4,2.54-.36,.19-.19,.44-.32,.67-.47,1.01-.68,1.49-.64,2.36,.22,1.33,1.32,2.66,2.65,3.98,3.98,.83,.83,.99,1.46,.23,2.28-1.21,1.32-1.37,2.58-.48,4.13,.29,.51,.47,.91,1.13,.92,.59,0,1.19,.1,1.78,.18,.76,.11,1.27,.55,1.31,1.33,.11,2.2,.13,4.4,0,6.6-.05,.8-.61,1.18-1.34,1.32-.67,.13-1.33,.26-2,.37-.37,.06-.59,.24-.67,.6-.01,.05-.03,.11-.05,.15-.91,1.69-.88,3.21,.56,4.68,.67,.68,.52,1.41-.16,2.11-1.39,1.42-2.79,2.82-4.21,4.21-.69,.67-1.43,.81-2.11,.15-1.42-1.38-2.83-1.47-4.47-.46-.42,.26-.75,.44-.8,.98-.06,.62-.21,1.23-.34,1.84-.2,.91-.65,1.35-1.57,1.36-1.98,.03-3.97,.03-5.95,0-.84,0-1.38-.45-1.56-1.29-.14-.66-.29-1.33-.38-2-.06-.48-.31-.71-.75-.84-.42-.12-.87-.22-1.22-.46-.93-.64-1.69-.43-2.45,.28-.27,.26-.61,.45-.93,.66-.68,.44-1.36,.4-1.94-.17-1.48-1.45-2.94-2.91-4.38-4.38-.57-.58-.7-1.36-.14-1.92,1.42-1.42,1.46-2.89,.5-4.55-.25-.43-.42-.76-.96-.83-.62-.07-1.23-.22-1.84-.35-.91-.2-1.34-.63-1.36-1.57-.04-1.98-.03-3.97,0-5.95,.01-.82,.44-1.51,1.29-1.52,2.1,0,3.11-1.14,3.6-3.04,.11-.44,.16-.75-.12-1.11-.38-.49-.72-1.02-1.08-1.53-.48-.7-.48-1.4,.11-2,1.44-1.48,2.91-2.93,4.38-4.39,.27-.27,.61-.46,1.02-.46Zm24.89,27.84c-.32-.47-.68-1.02-1.07-1.53-.48-.63-.55-1.25-.2-1.97,.55-1.13,.96-2.31,1.22-3.54,.2-.95,.73-1.43,1.7-1.59,2.05-.34,2.05-.37,2.05-2.43q0-1.99-2.01-2.17c-1.04-.09-1.43-.38-1.68-1.35-.31-1.25-.76-2.44-1.42-3.54-.4-.67-.31-1.28,.12-1.9,.39-.58,1.15-1.12,1.08-1.75-.07-.68-.91-1.09-1.42-1.61-1.25-1.28-1.26-1.27-2.69-.26-.18,.12-.36,.25-.54,.37-.53,.34-1.08,.37-1.62,.05-1.18-.7-2.44-1.19-3.77-1.51-.75-.18-1.14-.68-1.23-1.44-.06-.54-.15-1.08-.23-1.61-.06-.4-.26-.62-.71-.61-.87,.02-1.74,.02-2.61,0-.45,0-.71,.15-.78,.63-.08,.59-.22,1.18-.34,1.76-.13,.64-.49,1.08-1.14,1.25-1.22,.31-2.37,.81-3.47,1.4-.86,.46-1.61,.41-2.42-.19-1.52-1.12-1.55-1.09-2.87,.24-.48,.48-1.21,.93-1.32,1.49-.13,.64,.64,1.18,1.04,1.75,.47,.68,.53,1.32,.09,2.05-.58,.96-1.07,1.98-1.26,3.08-.2,1.15-.85,1.65-1.95,1.84-1.84,.32-1.84,.35-1.84,2.19,0,2.09,0,2.13,2.03,2.46,1.01,.16,1.53,.69,1.73,1.65,.21,1.02,.54,2.01,1.12,2.87,.64,.95,.57,1.76-.12,2.67-1.07,1.4-1.03,1.44,.24,2.69,.5,.5,.95,1.24,1.55,1.39,.68,.16,1.23-.66,1.83-1.05,.67-.44,1.28-.51,1.97-.07,.9,.57,1.88,1.04,2.92,1.22,1.31,.23,1.88,.95,2.06,2.22,.23,1.62,.3,1.61,1.96,1.61,2.24,0,2.25,0,2.68-2.24,.15-.75,.55-1.19,1.28-1.41,.73-.21,1.52-.38,2.13-.78,1.72-1.14,3.26-1.1,4.73,.39,.29,.3,.56,.23,.83-.06,.68-.7,1.38-1.39,2.07-2.08,.13-.13,.29-.25,.26-.57Z"/>
          <path d="M81.91,41.19c-5.83,0-10.66-4.84-10.63-10.67,.02-5.78,4.86-10.6,10.64-10.6,5.82,0,10.66,4.86,10.64,10.69-.02,5.78-4.85,10.59-10.64,10.59Zm0-2.84c4.33,0,7.79-3.43,7.79-7.74,0-4.37-3.44-7.86-7.77-7.86-4.36,0-7.83,3.45-7.83,7.8,0,4.38,3.41,7.8,7.81,7.8Z"/>
        </g>
      </g>
    </g>
    <g>
      <path d="M23.52,54.39c0,.12-.06,.2-.2,.25-.29,.11-.57,.23-.85,.37-.59,.31-1.11,.7-1.55,1.19-.47,.52-.82,1.11-1.08,1.76-.04,.11-.08,.23-.13,.34-.04,.11-.13,.16-.25,.17-.12,0-.21-.05-.26-.15-.1-.2-.18-.4-.28-.6-.24-.51-.5-1.02-.85-1.48-.26-.33-.57-.61-.93-.83-.47-.29-.99-.52-1.5-.73-.05-.02-.11-.04-.15-.08-.16-.14-.13-.38,.06-.47,.13-.06,.26-.1,.39-.15,.45-.18,.87-.41,1.26-.69,.5-.35,.92-.78,1.27-1.28,.31-.43,.54-.9,.73-1.39,.07-.19,.26-.26,.43-.15,.06,.04,.09,.1,.12,.16,.21,.56,.49,1.09,.86,1.57,.43,.56,.95,1.01,1.56,1.37,.34,.2,.7,.37,1.07,.5,.04,.01,.08,.03,.12,.05,.1,.05,.15,.13,.14,.27Z"/>
      <path d="M50.77,92.74H10.38c-.75,0-1.36-.61-1.36-1.36s.61-1.36,1.36-1.36H45.25L9.02,71.05c-.66-.35-.92-1.17-.57-1.83s1.17-.92,1.83-.57l41.12,21.53c.55,.29,.84,.92,.69,1.53-.15,.61-.69,1.03-1.32,1.03Z"/>
      <path d="M39.26,86.64c-.22,0-.43-.05-.63-.15l-21.57-11.29c-.66-.35-.92-1.17-.57-1.83l11.29-21.57c.17-.32,.45-.56,.8-.67,.34-.11,.72-.07,1.03,.09l21.57,11.29c.66,.35,.92,1.17,.57,1.83l-11.29,21.57c-.17,.32-.45,.56-.8,.67-.13,.04-.27,.06-.41,.06Zm-19.74-13.22l19.16,10.03,10.03-19.16-19.16-10.03-10.03,19.16Z"/>
      <path d="M53.33,80.64c-.22,0-.44-.05-.65-.16l-19.21-10.44c-.66-.36-.9-1.18-.55-1.84,.36-.66,1.18-.9,1.84-.55l19.21,10.44c.66,.36,.9,1.18,.55,1.84-.25,.45-.71,.71-1.19,.71Z"/>
      <polygon points="52.29 74.07 57.39 81.33 48.56 81.2 52.29 74.07"/>
    </g>
    <g>
      <path class="cls-3" d="M152.36,23.87h0s0,.01,0,.01c-.06,.97-.4,1.95-.88,2.8-.79,1.38-1.93,2.51-3.06,3.62-1,.98-2.01,1.97-3.22,2.67-1.21,.71-2.65,1.11-4.02,.83-1.52-.32-2.73-1.42-3.87-2.47-1.01-.94-2.02-1.89-3.04-2.83-.28-.26-.56-.52-.83-.78-1.22-1.14-2.44-2.28-3.66-3.42l-1.05-1.4c.28-.26,.57-.52,.86-.76,.37-.3,.74-.59,1.13-.87,3.36-2.38,7.48-3.68,11.59-3.68,.3,0,.6,0,.9,.02-.22,.61-.45,1.23-.68,1.85-.04,.11-.07,.22,.05,.29,.11,.06,.19-.01,.26-.09,.19-.21,.37-.43,.56-.64,.38-.43,.76-.86,1.13-1.3,.69,.08,1.38,.19,2.05,.35,2.18,.5,4.49,1.6,5.4,3.59,.06,.14,.12,.29,.17,.45,.19,.57,.25,1.17,.21,1.76Z"/>
      <path class="cls-13" d="M158.16,3.78c0-.39,0-.39-.49-.38-2.04,.06-4.06-.01-6.05-.26-.35,.61-.7,1.22-1.06,1.83,1.67,.19,3.36,.25,5.07,.21q.44-.02,.44,.34c0,1.46,.04,2.91,0,4.36-.07,2.53-.4,5.04-1.05,7.52-.59,2.26-1.43,4.43-2.66,6.48h0s0,.01,0,.01c-.03,.05-.06,.1-.09,.15-.11,.19-.23,.37-.35,.56-.12,.19-.25,.37-.37,.55-2.37,3.4-5.67,5.97-9.84,7.77-.18,.07-.33,.08-.51,0-2.66-1.14-4.98-2.61-6.92-4.41-.28-.26-.55-.52-.81-.79-.56-.57-1.08-1.17-1.56-1.8-.92-1.2-1.69-2.46-2.31-3.76-.69-1.42-1.23-2.9-1.64-4.41-.53-1.93-.84-3.87-1-5.83-.09-1.15-.14-2.33-.22-3.48h.09c0-1.02,0-2.03,0-3.04,0-.17,.07-.23,.28-.22,2.04,.08,4.06-.02,6.06-.31,2.84-.42,5.55-1.16,7.96-2.55,.25-.14,.41-.14,.66,0,1.08,.66,2.25,1.15,3.48,1.53h0c.31-.61,.63-1.22,.94-1.83-1.55-.47-3.02-1.06-4.37-1.87-.29-.17-.46-.17-.76,0-2.75,1.58-5.85,2.42-9.09,2.91-2.3,.35-4.61,.44-6.93,.36-.24,0-.32,.04-.32,.25,0,1.14,0,2.31,0,3.45h-.09c.07,1.33,.12,2.67,.24,4,.17,2.24,.54,4.46,1.14,6.65,.91,3.32,2.3,6.47,4.52,9.35,.42,.54,.86,1.07,1.33,1.57,2.49,2.71,5.61,4.84,9.29,6.43,.21,.1,.38,.09,.59,0,4.76-2.06,8.53-5,11.24-8.87,1.93-2.76,3.17-5.74,3.97-8.85,.74-2.84,1.12-5.71,1.2-8.61,.05-1.65,0-3.32,0-4.98Z"/>
      <path class="cls-8" d="M154.45,6.83q0-.31-.38-.3c-.09,0-.19,0-.28,0,.03,.03,.06,.07,.08,.12,.09,.2,0,.36-.14,.51-.38,.43-.76,.86-1.14,1.3-1.29,1.48-2.57,2.96-3.86,4.44-.86,.99-1.71,1.97-2.57,2.96-.54,.62-1.09,1.24-1.63,1.86-.38,.43-.76,.87-1.13,1.3-.19,.21-.37,.43-.56,.64-.07,.08-.15,.15-.26,.09-.12-.07-.09-.18-.05-.29,.22-.61,.45-1.23,.68-1.85,.23-.62,.45-1.23,.68-1.85,.65-1.77,1.3-3.55,1.95-5.32,.1-.27,.09-.27-.2-.27h-2.92c-.43,0-.58-.26-.38-.64,.74-1.43,1.47-2.85,2.21-4.28-.98-.33-1.92-.74-2.79-1.26-.23-.14-.36-.14-.58,0h0c-2.14,1.23-4.55,1.89-7.09,2.26-1.79,.26-3.59,.34-5.4,.27-.18,0-.25,.04-.25,.2v2.69h-.07c.06,1.03,.1,2.07,.18,3.11,.14,1.75,.43,3.48,.9,5.19,.16,.56,.33,1.11,.52,1.65,.22,.65,.48,1.28,.77,1.91,.59,1.29,1.32,2.53,2.23,3.71,.53,.68,1.1,1.33,1.71,1.92,1.82,1.79,4.02,3.23,6.56,4.33,.17,.07,.3,.06,.46,0,3.71-1.6,6.64-3.89,8.75-6.91,.2-.28,.39-.57,.57-.86,.06-.11,.13-.21,.19-.32,.07-.12,.14-.24,.21-.36,.08-.14,.16-.29,.24-.44,.06-.11,.12-.22,.18-.34s.11-.23,.17-.34c.09-.17,.17-.34,.24-.52,.08-.17,.15-.35,.23-.52,.15-.35,.29-.7,.41-1.06,.06-.17,.12-.34,.18-.51,0-.02,.01-.04,.02-.05,.06-.17,.11-.34,.16-.51h0c.06-.18,.11-.36,.16-.54,.05-.18,.1-.36,.15-.55,.57-2.21,.87-4.44,.94-6.7,.03-1.29,0-2.59,0-3.88Z"/>
      <path class="cls-5" d="M154.46,10.71c-.06,2.25-.36,4.49-.94,6.7-.05,.18-.1,.36-.15,.55-.05,.18-.1,.36-.16,.54h0c-.05,.17-.1,.34-.16,.51,0,.02,0,.04-.02,.05-.06,.17-.12,.34-.18,.51-.12,.36-.26,.71-.41,1.06-.07,.17-.15,.35-.23,.52-.08,.17-.16,.35-.24,.52-.06,.11-.11,.23-.17,.34s-.12,.22-.18,.34c-.08,.15-.16,.3-.24,.44-.07,.12-.14,.24-.21,.36-.06,.1-.13,.21-.19,.32-.18,.29-.37,.58-.57,.86-2.11,3.02-5.04,5.31-8.75,6.91-.16,.07-.29,.08-.46,0-2.54-1.1-4.74-2.54-6.56-4.33,3.17-2.31,5.73-5.68,7.66-9.31,1.11-2.08,2.01-4.25,2.71-6.34,.12-.36,.23-.72,.34-1.09h.27c.29,0,.3,0,.2,.27-.65,1.77-1.3,3.55-1.95,5.32-.22,.62-.45,1.23-.68,1.85-.22,.61-.45,1.23-.68,1.85-.04,.11-.07,.22,.05,.29,.11,.06,.19-.01,.26-.09,.19-.21,.37-.43,.56-.64,.38-.43,.76-.86,1.13-1.3,.54-.62,1.09-1.24,1.63-1.86,.86-.98,1.71-1.97,2.57-2.96,1.28-1.48,2.57-2.96,3.86-4.44,.38-.44,.76-.87,1.14-1.3,.13-.15,.23-.31,.14-.51-.02-.05-.05-.09-.08-.12,.09,0,.19,0,.28,0q.38,0,.38,.3c0,1.29,.04,2.59,0,3.88Z"/>
      <path class="cls-10" d="M158.16,8.75c-.08,2.9-.46,5.77-1.2,8.61-.8,3.11-2.04,6.09-3.97,8.85-2.71,3.87-6.48,6.82-11.24,8.87-.21,.09-.38,.1-.59,0-3.68-1.58-6.8-3.72-9.29-6.43,.49-.35,1.05-.64,1.57-.95,0,0,.01,0,.02-.01,.26,.27,.53,.53,.81,.79,1.94,1.81,4.26,3.28,6.92,4.41,.18,.08,.33,.07,.51,0,4.17-1.8,7.47-4.37,9.84-7.77,.29-.42,.57-.84,.82-1.27,1.23-2.05,2.07-4.23,2.66-6.48,.64-2.48,.97-5,1.05-7.52,.04-1.45,0-2.91,0-4.36q0-.35-.44-.34c-1.71,.05-3.4-.01-5.07-.21,.35-.61,.71-1.22,1.06-1.83,1.99,.25,4,.32,6.05,.26,.48,0,.49,0,.49,.38,0,1.66,.05,3.32,0,4.98Z"/>
    </g>
    <g>
      <g>
        <rect class="cls-3" x="1.26" y="113.73" width="12.46" height="12.46"/>
        <path d="M13.72,127.46H1.26c-.7,0-1.26-.56-1.26-1.26v-12.46c0-.7,.56-1.26,1.26-1.26H13.72c.7,0,1.26,.56,1.26,1.26v12.46c0,.7-.56,1.26-1.26,1.26Zm-11.2-2.52H12.46v-9.94H2.52v9.94Z"/>
      </g>
      <g>
        <rect class="cls-9" x="1.26" y="126.2" width="12.46" height="12.46"/>
        <path d="M13.72,139.92H1.26c-.7,0-1.26-.56-1.26-1.26v-12.46c0-.7,.56-1.26,1.26-1.26H13.72c.7,0,1.26,.56,1.26,1.26v12.46c0,.7-.56,1.26-1.26,1.26Zm-11.2-2.52H12.46v-9.94H2.52v9.94Z"/>
      </g>
      <g>
        <rect class="cls-3" x="1.26" y="138.66" width="12.46" height="12.46"/>
        <path d="M13.72,152.38H1.26c-.7,0-1.26-.56-1.26-1.26v-12.46c0-.7,.56-1.26,1.26-1.26H13.72c.7,0,1.26,.56,1.26,1.26v12.46c0,.7-.56,1.26-1.26,1.26Zm-11.2-2.52H12.46v-9.94H2.52v9.94Z"/>
      </g>
      <g>
        <rect class="cls-3" x="25.75" y="138.66" width="12.46" height="12.46"/>
        <path d="M38.21,152.38h-12.46c-.7,0-1.26-.56-1.26-1.26v-12.46c0-.7,.56-1.26,1.26-1.26h12.46c.7,0,1.26,.56,1.26,1.26v12.46c0,.7-.56,1.26-1.26,1.26Zm-11.2-2.52h9.94v-9.94h-9.94v9.94Z"/>
      </g>
      <g>
        <rect class="cls-3" x="14.15" y="138.66" width="12.46" height="12.46"/>
        <path d="M26.62,152.38H14.15c-.7,0-1.26-.56-1.26-1.26v-12.46c0-.7,.56-1.26,1.26-1.26h12.46c.7,0,1.26,.56,1.26,1.26v12.46c0,.7-.56,1.26-1.26,1.26Zm-11.2-2.52h9.94v-9.94H15.41v9.94Z"/>
      </g>
      <g>
        <rect class="cls-3" x="25.75" y="126.2" width="12.46" height="12.46"/>
        <path d="M38.21,139.92h-12.46c-.7,0-1.26-.56-1.26-1.26v-12.46c0-.7,.56-1.26,1.26-1.26h12.46c.7,0,1.26,.56,1.26,1.26v12.46c0,.7-.56,1.26-1.26,1.26Zm-11.2-2.52h9.94v-9.94h-9.94v9.94Z"/>
      </g>
      <g>
        <rect class="cls-9" x="25.75" y="113.73" width="12.46" height="12.46"/>
        <path d="M38.21,127.46h-12.46c-.7,0-1.26-.56-1.26-1.26v-12.46c0-.7,.56-1.26,1.26-1.26h12.46c.7,0,1.26,.56,1.26,1.26v12.46c0,.7-.56,1.26-1.26,1.26Zm-11.2-2.52h9.94v-9.94h-9.94v9.94Z"/>
      </g>
      <g>
        <rect class="cls-9" x="13.72" y="126.2" width="12.46" height="12.46"/>
        <path d="M26.18,139.92H13.72c-.7,0-1.26-.56-1.26-1.26v-12.46c0-.7,.56-1.26,1.26-1.26h12.46c.7,0,1.26,.56,1.26,1.26v12.46c0,.7-.56,1.26-1.26,1.26Zm-11.2-2.52h9.94v-9.94H14.98v9.94Z"/>
      </g>
      <g>
        <rect class="cls-3" x="13.72" y="113.73" width="12.46" height="12.46"/>
        <path d="M26.18,127.46H13.72c-.7,0-1.26-.56-1.26-1.26v-12.46c0-.7,.56-1.26,1.26-1.26h12.46c.7,0,1.26,.56,1.26,1.26v12.46c0,.7-.56,1.26-1.26,1.26Zm-11.2-2.52h9.94v-9.94H14.98v9.94Z"/>
      </g>
    </g>
    <g>
      <g>
        <path class="cls-6" d="M49.44,192.65c-.74-.17-1.48,.02-2.03,.47-.34,.28-.79,.4-1.21,.29l-.83-.2c-.37-.09-.65-.41-.69-.79-.08-.69-.24-1.39-.5-2.07-.37-.96-.91-1.81-1.57-2.53-.29-.31-.33-.79-.08-1.14l.68-.98c.19-.27,.47-.48,.79-.55,.41-.08,.79-.31,1.04-.68,.52-.75,.34-1.79-.42-2.31-.75-.53-1.79-.34-2.31,.41-.25,.36-.34,.78-.28,1.17,.05,.35-.03,.69-.23,.98l-.63,.91c-.25,.36-.73,.49-1.13,.3-1.53-.71-3.28-.94-5.01-.57-.44,.09-.88-.14-1.04-.56l-.14-.34c-.16-.41-.1-.86,.13-1.24,.45-.73,.49-1.7-.04-2.53-.49-.76-1.43-1.18-2.32-1.02-1.53,.25-2.36,1.81-1.84,3.17,.28,.71,.86,1.21,1.53,1.4,.42,.12,.78,.42,.94,.83l.17,.45c.15,.39,.02,.83-.34,1.07-.99,.68-1.8,1.56-2.38,2.56-.18,.3-.51,.47-.86,.43l-.91-.09c-.38-.04-.72-.23-.95-.53-.3-.37-.75-.63-1.27-.67-1.02-.1-1.92,.66-2.02,1.67-.09,1.02,.66,1.92,1.67,2.02,.53,.05,1.03-.14,1.4-.46,.28-.24,.64-.35,1.01-.32h.06c.52,.05,.88,.53,.81,1.05-.16,1.28-.02,2.62,.49,3.91,.1,.25,.21,.5,.33,.74,.2,.38,.11,.84-.21,1.12l-.36,.3c-.34,.29-.79,.38-1.22,.29-.68-.15-1.43,.02-2.01,.51-.98,.85-1.09,2.33-.25,3.32,.85,.98,2.33,1.09,3.31,.24,.57-.49,.85-1.2,.81-1.9-.03-.44,.14-.87,.47-1.17l.25-.22c.34-.29,.84-.28,1.19,0,1.66,1.4,3.86,2.09,6.07,1.85,.43-.05,.84,.21,.98,.62l.28,.87c.1,.33,.08,.68-.07,1-.17,.36-.21,.79-.08,1.2,.28,.87,1.21,1.36,2.09,1.07,.87-.28,1.36-1.21,1.08-2.09-.13-.41-.41-.74-.76-.94-.3-.17-.53-.44-.64-.78l-.27-.85c-.14-.42,.05-.86,.43-1.07,1.88-1.04,3.22-2.76,3.81-4.72,.14-.47,.63-.73,1.11-.62l.33,.08c.43,.1,.76,.41,.94,.81,.29,.64,.86,1.15,1.59,1.33,1.27,.3,2.54-.47,2.83-1.73,.3-1.26-.47-2.53-1.73-2.83Zm-10.61,6.22c-3.09,1.2-6.57-.33-7.77-3.42-1.2-3.09,.34-6.57,3.43-7.77,3.09-1.2,6.56,.33,7.77,3.42,1.2,3.09-.33,6.57-3.42,7.77Z"/>
        <circle class="cls-6" cx="34.45" cy="193.75" r="1.8"/>
        <circle class="cls-6" cx="38.49" cy="195.88" r="1.17"/>
        <circle class="cls-6" cx="38.2" cy="191.53" r="1.07"/>
      </g>
      <path d="M36.96,213.7c-11.46,0-20.79-9.33-20.79-20.79,0-4.64,1.5-9.03,4.32-12.69,.24-.31,.68-.36,.99-.13,.31,.24,.37,.68,.13,.99-2.64,3.41-4.03,7.5-4.03,11.83,0,10.68,8.69,19.38,19.38,19.38s19.37-8.69,19.37-19.38-8.69-19.38-19.37-19.38c-4.31,0-8.38,1.38-11.79,3.99-.31,.24-.75,.18-.99-.13-.24-.31-.18-.75,.13-.99,3.65-2.8,8.02-4.29,12.65-4.29,11.46,0,20.78,9.33,20.78,20.79s-9.32,20.79-20.78,20.79Z"/>
      <path d="M36.95,209.6c-7.85,0-14.86-5.57-16.39-13.56-1.73-9.04,4.22-17.8,13.26-19.53,9.04-1.73,17.8,4.22,19.53,13.26,.7,3.66,.18,7.35-1.5,10.66-.12,.23-.4,.32-.63,.21-.23-.12-.32-.4-.21-.63,1.58-3.13,2.07-6.61,1.41-10.06-1.63-8.53-9.9-14.14-18.43-12.51-8.53,1.63-14.14,9.9-12.51,18.43,1.63,8.53,9.9,14.15,18.43,12.51,.26-.05,.5,.12,.55,.37,.05,.26-.12,.5-.37,.55-1.05,.2-2.1,.3-3.14,.3Z"/>
      <path class="cls-6" d="M33.51,205.5c-.18,0-.36-.11-.43-.29-.1-.24,.01-.52,.25-.62l2.04-.86c.24-.1,.52,.01,.62,.25,.1,.24-.01,.52-.25,.62l-2.04,.86c-.06,.03-.12,.04-.18,.04Z"/>
      <path class="cls-6" d="M48.26,189.11c-.07,0-.14-.01-.2-.04l-2.32-1.09c-.24-.11-.34-.39-.23-.63,.11-.24,.39-.34,.63-.23l2.32,1.09c.24,.11,.34,.39,.23,.63-.08,.17-.25,.27-.43,.27Z"/>
      <path class="cls-6" d="M25.51,195.67c-.07,0-.14-.01-.2-.04l-2.32-1.09c-.23-.11-.34-.39-.23-.63,.11-.24,.39-.34,.63-.23l2.32,1.09c.23,.11,.34,.39,.23,.63-.08,.17-.25,.27-.43,.27Z"/>
      <circle class="cls-6" cx="28.78" cy="185.41" r=".86"/>
      <circle class="cls-6" cx="38.35" cy="179.81" r=".86"/>
      <path d="M48.48,204.91c0,.08-.04,.13-.14,.17-.19,.07-.38,.15-.56,.25-.39,.2-.73,.46-1.03,.79-.31,.34-.54,.74-.71,1.17-.03,.07-.06,.15-.09,.23-.03,.07-.09,.11-.16,.11-.08,0-.14-.03-.17-.1-.06-.13-.12-.27-.18-.4-.16-.34-.33-.68-.56-.98-.17-.22-.38-.4-.62-.55-.31-.2-.65-.34-.99-.48-.03-.01-.07-.03-.1-.05-.11-.09-.09-.25,.04-.31,.08-.04,.17-.07,.26-.1,.3-.12,.58-.27,.84-.46,.33-.23,.61-.52,.84-.85,.2-.29,.36-.6,.48-.92,.05-.13,.17-.17,.29-.1,.04,.03,.06,.07,.08,.11,.14,.37,.33,.72,.57,1.04,.29,.37,.63,.67,1.04,.91,.23,.13,.46,.25,.71,.33,.03,0,.06,.02,.08,.03,.07,.03,.1,.09,.1,.18Z"/>
      <path d="M49.49,202.26s-.01,.05-.05,.06c-.07,.03-.14,.06-.21,.09-.15,.08-.28,.17-.39,.3-.12,.13-.2,.28-.27,.44-.01,.03-.02,.06-.03,.08-.01,.03-.03,.04-.06,.04-.03,0-.05-.01-.07-.04-.02-.05-.05-.1-.07-.15-.06-.13-.12-.26-.21-.37-.06-.08-.14-.15-.23-.21-.12-.07-.25-.13-.37-.18-.01,0-.03,0-.04-.02-.04-.03-.03-.1,.02-.12,.03-.01,.06-.02,.1-.04,.11-.05,.22-.1,.32-.17,.12-.09,.23-.19,.32-.32,.08-.11,.14-.22,.18-.35,.02-.05,.07-.06,.11-.04,.02,0,.02,.02,.03,.04,.05,.14,.12,.27,.22,.39,.11,.14,.24,.25,.39,.34,.09,.05,.17,.09,.27,.13,.01,0,.02,0,.03,.01,.02,.01,.04,.03,.04,.07Z"/>
      <path d="M43.99,207.6s-.01,.05-.05,.06c-.07,.03-.14,.06-.21,.09-.15,.08-.28,.17-.39,.3-.12,.13-.2,.28-.27,.44-.01,.03-.02,.06-.03,.08-.01,.03-.03,.04-.06,.04-.03,0-.05-.01-.07-.04-.02-.05-.05-.1-.07-.15-.06-.13-.12-.26-.21-.37-.06-.08-.14-.15-.23-.21-.12-.07-.25-.13-.37-.18-.01,0-.03,0-.04-.02-.04-.03-.03-.1,.02-.12,.03-.01,.06-.02,.1-.04,.11-.05,.22-.1,.32-.17,.12-.09,.23-.19,.32-.32,.08-.11,.14-.22,.18-.35,.02-.05,.07-.06,.11-.04,.02,0,.02,.02,.03,.04,.05,.14,.12,.27,.22,.39,.11,.14,.24,.25,.39,.34,.09,.05,.17,.09,.27,.13,.01,0,.02,0,.03,.01,.02,.01,.04,.03,.04,.07Z"/>
    </g>
    <g>
      <circle class="cls-9" cx="81.83" cy="233.61" r="17.25"/>
      <g>
        <path class="cls-3" d="M72.64,238c.03,.27,.19,.47,.42,.65,.11,.08,.21,.18,.31,.27,.4,.34,.9,.34,1.3,0,.98-.85,1.95-1.7,2.93-2.55,1.27-1.1,2.54-2.21,3.8-3.31,.46-.4,.46-.82,0-1.22-2.22-1.93-4.43-3.86-6.65-5.79-.16-.14-.33-.26-.54-.32h-.39c-.17,.05-.32,.12-.45,.23-.11,.1-.23,.21-.35,.31-.2,.15-.33,.34-.38,.57v.16c.05,.22,.19,.4,.37,.55,1.79,1.56,3.58,3.12,5.37,4.68q.27,.23,0,.46c-1.78,1.55-3.56,3.1-5.34,4.65-.21,.18-.38,.37-.41,.64v.05Z"/>
        <path class="cls-3" d="M90.04,241.5h-8.39c-.54,0-.98-.54-.98-1.21s.44-1.21,.98-1.21h8.39c.54,0,.98,.54,.98,1.21s-.44,1.21-.98,1.21Z"/>
      </g>
    </g>
    <g>
      <path class="cls-2" d="M159.26,246.58v2.85c0,.77-.03,1.54,0,2.3,.06,1.15-.46,2.05-1.36,2.78-1.26,1.02-2.8,1.62-4.38,2.05-2.48,.67-5.01,.88-7.57,.8-2.75-.08-5.44-.48-7.98-1.57-1.12-.48-2.16-1.07-2.9-2.03-.42-.53-.64-1.12-.64-1.78,.02-1.76,0-3.54,0-5.3,0-.51,.05-.53,.56-.34,3.28,1.2,6.54,2.43,9.84,3.6,1.31,.45,2.69,.46,4,0,2.7-.94,5.39-1.95,8.08-2.94,.64-.22,1.26-.46,1.9-.7,.37-.13,.45-.1,.45,.27Z"/>
      <path class="cls-2" d="M165.32,237.61c0,.5-.22,.8-.77,1.01-2.03,.82-4.08,1.63-6.11,2.43-3.25,1.28-6.48,2.56-9.73,3.86-1.26,.5-2.51,.51-3.78,0-1.01-.43-2.05-.83-3.09-1.23-1.55-.64-3.12-1.25-4.69-1.86l-.18-.08-8.32-3.41c-.11-.06-.19-.19-.29-.3v-.82c.18-.32,.45-.53,.78-.64,.98-.38,1.94-.78,2.91-1.17,2.91-1.14,5.81-2.29,8.69-3.44,1.76-.67,3.49-1.44,5.3-2.02h1.57c1.49,.46,2.9,1.09,4.34,1.65,2.88,1.14,5.74,2.29,8.61,3.41,1.34,.53,2.66,1.06,3.98,1.58,.46,.19,.78,.48,.77,1.02Z"/>
      <path class="cls-14" d="M159.26,249.43c0,.77-.03,1.54,0,2.3,.06,1.15-.46,2.05-1.36,2.78-1.26,1.02-2.8,1.62-4.38,2.05-2.48,.67-5.01,.88-7.57,.8-2.75-.08-5.44-.48-7.98-1.57-1.12-.48-2.16-1.07-2.9-2.03-.42-.53-.64-1.12-.64-1.78,.02-1.76,0-3.54,0-5.3,0-.51,.05-.53,.56-.34,3.28,1.2,6.54,2.43,9.84,3.6,1.31,.45,2.69,.46,4,0,2.7-.94,5.39-1.95,8.08-2.94,.64-.22,1.26-.46,1.9-.7,.37-.13,.45-.1,.45,.27v2.85Z"/>
      <g id="kmQvjB.tif">
        <path class="cls-14" d="M165.32,237.61c0,.5-.22,.8-.77,1.01-2.03,.82-4.08,1.63-6.11,2.43-3.25,1.28-6.48,2.56-9.73,3.86-1.26,.5-2.51,.51-3.78,0-1.01-.43-2.05-.83-3.09-1.23-1.55-.64-3.12-1.25-4.69-1.86l-.18-.08-8.32-3.41c-.11-.06-.19-.19-.29-.3v-.82c.18-.32,.45-.53,.78-.64,.98-.38,1.94-.78,2.91-1.17,2.91-1.14,5.81-2.29,8.69-3.44,1.76-.67,3.49-1.44,5.3-2.02h1.57c1.49,.46,2.9,1.09,4.34,1.65,2.88,1.14,5.74,2.29,8.61,3.41,1.34,.53,2.66,1.06,3.98,1.58,.46,.19,.78,.48,.77,1.02Z"/>
      </g>
      <polygon class="cls-11" points="129.63 244.04 129.08 244.04 128.33 237.61 130.31 237.61 129.63 244.04"/>
      <g id="_2DXTTK.tif-2" data-name="2DXTTK.tif">
        <path class="cls-11" d="M129.6,244.88c.45,1.08,1.22,1.84,2.33,2.27,.23,.09,.23,.41,0,.51-1.33,.56-1.64,.89-2.3,2.34-.1,.22-.42,.22-.5,0-.43-1.12-1.19-1.9-2.33-2.36-.23-.09-.23-.41,0-.5,1.12-.44,1.87-1.19,2.31-2.25,.09-.22,.4-.22,.5,0Z"/>
      </g>
    </g>
  </g>
</svg>