<?xml version="1.0" encoding="UTF-8"?>
<svg id="Layer_2" data-name="Layer 2" xmlns="http://www.w3.org/2000/svg" viewBox="0 0 186.34 180.85">
  <defs>
    <style>
      .cls-1 {
        fill: #f8f8f8;
      }

      .cls-2 {
        fill: #020202;
      }

      .cls-3 {
        fill: #fefefe;
      }
    </style>
  </defs>
  <g id="Layer_1-2" data-name="Layer 1">
    <g id="_2DXTTK.tif" data-name="2DXTTK.tif">
      <path d="M163.42,12.69c3.04,12.13,10.6,19.6,22.92,22.57-15.2,6.01-16.01,6.81-23.05,22.93-3-12.21-10.41-19.72-23.2-22.82,12.85-3.12,20.27-10.63,23.33-22.68Z"/>
    </g>
    <g id="rHuDRN.tif">
      <g>
        <path d="M25.21,90.5c-.04-35.63,28.38-64.65,63.93-65.28,33.43-.59,64.07,25.64,66.34,59.54,2.42,36.19-25.14,69.68-62.26,70.86-2.59,.08-5.19,0-7.77-.25-34.74-3.37-60.2-30.8-60.24-64.87Z"/>
        <path class="cls-3" d="M127.5,52.49h-.01c-.78,.69-1.7,1.7-2.95,3.06-3.53,3.87-8.13,2.41-12.22,1.77-3.61-.57-3.24-4.08-3.23-6.93,0-3.02-.09-6.04,.03-9.06,.09-2.36-.57-3.81-3.12-4.52-13.27-3.73-26.14-2.78-38.71,2.87-1.52,.69-2.89,1.38-1.3,3.21,1.84,2.11,2.19,6.09,6.32,5.43,4.27-.69,9.67,2.52,12.36-3.71,2.22-5.14,4.82-.82,7.15-.05,3.52,1.18,1.91,3.14,.72,5.2-4.09,7-7.78,14.24-12.14,21.07-2.98,4.68-4.64,9.42-3.86,14.89,.55,3.77-.94,4.81-4.64,4.76-3.47-.06-5.48-.65-4.79-4.61,.98-5.61-2.83-5.01-6.25-4.64-2.25,.24-3.64,2.16-4.79,3.73-1.8,2.48-6.66,3.5-4.83,7.79,1.9,4.51,4.82,7.74,10.76,6.83,4.25-.65,8.67-.15,13.02-.11,8.71,.06,16.53,11.43,13.4,19.44-2.82,7.2-5.4,14.49-8.48,21.59-.39,.91-.61,1.66-.67,2.27-.23,2.06,1.27,2.66,4.02,2.92,19.11,1.79,35.34-3.88,48.6-17.97,3-3.19,3.93-6.32,2.64-10.34-.02-.11-.06-.23-.1-.34-1.01-2.9-2.41-5.96-2.3-8.9,.13-3.67-1.74-4.77-4.41-6.12q-14.4-7.25-11.43-23.27,2.16-11.71,14.67-11.7c2.76-.65,7.76,1.76,8.92-1.1,1.13-2.79-2.83-6.12-4.85-9.05-.22-.31-.48-.58-.71-.88-1.63-2.02-2.7-3.36-3.6-4.02l-3.22,.47Z"/>
        <path class="cls-1" d="M61.92,138.27c-15.84-10.27-24.82-24.02-26.91-42.23-.39-3.39,1.08-3.6,3.42-2.46,5.49,2.67,9.23,8.2,9.57,13.11,.5,7.31,4.3,11.43,9.03,15.35,5.08,4.2,6.68,9.15,4.88,16.23Z"/>
      </g>
    </g>
    <path class="cls-2" d="M179.84,77.05c2.78,18.6-.2,37.28-8.63,54.02-4.56,9.02-10.51,17.12-17.68,24.09-13.64,13.32-30.84,21.87-49.72,24.69C54.5,187.23,8.39,153.12,1,103.82-6.38,54.51,27.73,8.4,77.03,1.02c19.67-2.94,39.27,.54,56.69,10.07,2.61,1.42,3.57,4.7,2.14,7.3-1.42,2.61-4.69,3.56-7.3,2.14-15.35-8.39-32.61-11.46-49.94-8.86C35.19,18.16,5.14,58.79,11.64,102.23c6.5,43.44,47.13,73.49,90.57,66.99,16.64-2.49,31.79-10.01,43.81-21.76,6.32-6.15,11.56-13.29,15.58-21.23,7.42-14.74,10.05-31.2,7.6-47.58-.44-2.94,1.58-5.68,4.52-6.11,2.94-.44,5.68,1.58,6.11,4.52Z"/>
  </g>
</svg>