<?xml version="1.0" encoding="UTF-8"?>
<svg id="Layer_2" data-name="Layer 2" xmlns="http://www.w3.org/2000/svg" viewBox="0 0 221 220.87">
  <defs>
    <style>
      .cls-1 {
        stroke: #000;
        stroke-width: 1.05px;
      }

      .cls-1, .cls-2 {
        fill: none;
        stroke-miterlimit: 10;
      }

      .cls-3 {
        fill: #f7c442;
      }

      .cls-4 {
        fill: #020202;
      }

      .cls-5, .cls-6 {
        fill: #fff;
      }

      .cls-7 {
        fill: #818281;
      }

      .cls-8 {
        fill: #86cc5c;
      }

      .cls-9 {
        fill: #070707;
      }

      .cls-10 {
        fill: #0a0a0a;
      }

      .cls-11 {
        fill: #47abe2;
      }

      .cls-2 {
        stroke: #47abe2;
        stroke-width: 4px;
      }

      .cls-6 {
        opacity: .3;
      }
    </style>
  </defs>
  <g id="Layer_1-2" data-name="Layer 1">
    <path class="cls-7" d="M89.81,197.98c-.8-.22-1.62,.26-1.84,1.06-.21,.8,.27,1.62,1.07,1.84,2.04,.54,4.12,1.02,6.21,1.41,.21-.99,.5-1.96,.86-2.88-2.12-.4-4.22-.88-6.3-1.43Zm50.44,.6c-.23-.79-1.05-1.26-1.85-1.03-2.06,.58-4.15,1.1-6.25,1.53,.38,.92,.69,1.88,.91,2.88,2.07-.43,4.14-.95,6.16-1.53,.8-.22,1.26-1.05,1.03-1.85Zm-59.79-3.64c-3.05-1.18-6.07-2.53-8.97-4.04-.74-.37-1.64-.09-2.02,.65-.38,.74-.09,1.64,.64,2.02,3,1.55,6.12,2.95,9.27,4.17,.17,.06,.36,.1,.54,.1,.6,0,1.17-.37,1.4-.96,.29-.78-.09-1.64-.86-1.94Zm78.15-4.17c-.39-.73-1.3-1.01-2.03-.61-2.88,1.55-5.87,2.96-8.89,4.19-.77,.31-1.13,1.18-.82,1.95,.23,.58,.8,.94,1.39,.94,.19,0,.38-.04,.56-.11,3.12-1.27,6.21-2.73,9.18-4.33,.73-.39,1.01-1.3,.61-2.03Zm-122.83-32.83c-1.73-2.77-3.32-5.67-4.74-8.61-.36-.75-1.26-1.06-2-.7-.75,.36-1.06,1.26-.7,2,1.46,3.04,3.11,6.03,4.89,8.9,.29,.45,.78,.7,1.28,.7,.27,0,.54-.07,.79-.22,.7-.44,.92-1.37,.48-2.07Zm162.51-10.79c-.76-.35-1.65-.02-1.99,.73-1.37,2.97-2.91,5.9-4.59,8.7-.43,.71-.2,1.63,.51,2.06,.24,.14,.51,.21,.77,.21,.51,0,1.01-.26,1.29-.73,1.74-2.9,3.33-5.92,4.74-8.98,.35-.75,.02-1.64-.73-1.99Zm-171.03-6.89c-.77-2.19-1.47-4.43-2.08-6.68-.86,.63-1.76,1.14-2.69,1.52,.57,2.08,1.22,4.14,1.94,6.16,.22,.62,.8,1,1.41,1,.17,0,.34-.03,.51-.09,.78-.27,1.19-1.13,.91-1.91Zm174.75-8.79c-.59,2.45-1.29,4.89-2.09,7.27-.26,.79,.16,1.64,.95,1.9,.15,.06,.31,.08,.47,.08,.63,0,1.21-.4,1.42-1.02,.81-2.43,1.53-4.91,2.14-7.41-.99-.16-1.96-.44-2.89-.82Zm2.69-45.12c-.21-.8-1.02-1.29-1.83-1.08-.8,.2-1.28,1.02-1.08,1.82,.15,.59,.3,1.19,.43,1.79,.94-.37,1.9-.63,2.9-.78-.13-.59-.27-1.17-.42-1.75ZM28.93,71.09c-.76-.34-1.65,.01-1.98,.77-1.36,3.09-2.56,6.29-3.57,9.51-.25,.79,.19,1.63,.98,1.88,.15,.04,.3,.07,.45,.07,.64,0,1.23-.41,1.43-1.05,.98-3.12,2.15-6.21,3.46-9.21,.33-.76-.01-1.64-.77-1.97Zm172.73,5.57c-.62-1.65-1.29-3.3-2.02-4.93-.8,.61-1.65,1.16-2.55,1.64,.62,1.44,1.21,2.89,1.76,4.35,.22,.6,.79,.97,1.4,.97,.18,0,.35-.03,.53-.1,.77-.29,1.17-1.15,.88-1.93Zm-29.49-40.6c-.65-.52-1.59-.42-2.11,.23-.51,.65-.41,1.59,.24,2.11,1.5,1.2,2.98,2.46,4.41,3.76,.74-.69,1.53-1.32,2.37-1.88-1.59-1.48-3.23-2.88-4.91-4.22Zm-102.93-8.01c-.41-.72-1.32-.98-2.04-.57-2.94,1.65-5.82,3.48-8.57,5.44-.68,.49-.83,1.42-.35,2.1,.29,.41,.75,.63,1.22,.63,.3,0,.61-.1,.87-.28,2.66-1.9,5.46-3.67,8.3-5.27,.72-.41,.98-1.32,.57-2.05Zm94.67,2.1c-2.85-1.82-5.83-3.49-8.85-4.99-.74-.36-1.64-.06-2.01,.68-.36,.75-.06,1.64,.68,2.01,2.93,1.45,5.81,3.07,8.57,4.83,.25,.16,.53,.23,.81,.23,.49,0,.98-.24,1.26-.69,.45-.7,.24-1.63-.46-2.07Zm-76.19-9.64c-.25-.79-1.09-1.24-1.88-1-3.22,.99-6.43,2.16-9.54,3.48-.76,.33-1.11,1.21-.79,1.97,.25,.57,.8,.91,1.38,.91,.2,0,.4-.04,.59-.12,3.01-1.28,6.11-2.41,9.24-3.37,.79-.24,1.24-1.08,1-1.87Zm58.01,.65c-3.17-1.16-6.44-2.16-9.72-2.97-.8-.2-1.61,.3-1.81,1.1-.2,.8,.29,1.62,1.09,1.82,3.18,.78,6.34,1.75,9.41,2.87,.17,.06,.34,.09,.51,.09,.62,0,1.19-.38,1.41-.98,.29-.78-.11-1.64-.89-1.93Z"/>
    <g>
      <path d="M117.9,15.15c0,.14-.07,.23-.23,.29-.33,.12-.66,.26-.97,.43-.67,.35-1.27,.8-1.78,1.36-.54,.59-.94,1.27-1.23,2.02-.05,.13-.1,.26-.15,.39-.05,.12-.15,.19-.28,.19-.13,0-.24-.06-.3-.18-.11-.23-.21-.46-.32-.69-.28-.59-.57-1.17-.97-1.69-.3-.38-.65-.7-1.06-.95-.54-.34-1.13-.59-1.72-.83-.06-.02-.12-.05-.17-.09-.18-.15-.15-.44,.07-.54,.14-.07,.29-.11,.44-.17,.51-.21,1-.47,1.45-.79,.57-.41,1.05-.89,1.45-1.46,.35-.49,.62-1.03,.83-1.6,.08-.22,.3-.3,.49-.18,.07,.04,.1,.11,.13,.19,.24,.65,.56,1.25,.99,1.79,.5,.64,1.09,1.16,1.79,1.57,.39,.23,.8,.43,1.23,.58,.05,.02,.1,.04,.14,.06,.11,.06,.17,.15,.17,.3Z"/>
      <g id="bFspdn.tif">
        <g>
          <path d="M105.04,2.52c.45-.02,.8,.22,1.08,.5,.8,.78,1.58,.83,2.6,.32,.68-.34,1.01-.69,1.13-1.43,.28-1.83,.41-1.9,2.27-1.9,1.05,0,2.11-.01,3.16,0,1.08,.02,1.48,.33,1.53,1.38,.05,1.08,.39,1.74,1.54,2.09,.78,.24,1.32,.3,1.9-.27,.14-.14,.33-.24,.5-.35,.75-.51,1.11-.48,1.76,.17,.99,.99,1.98,1.98,2.97,2.97,.62,.62,.74,1.09,.17,1.7-.9,.98-1.02,1.93-.36,3.08,.22,.38,.35,.68,.84,.69,.44,0,.89,.07,1.33,.13,.57,.08,.95,.41,.98,.99,.08,1.64,.1,3.28,0,4.92-.04,.59-.45,.88-1,.99-.5,.1-.99,.2-1.49,.27-.28,.04-.44,.18-.5,.45,0,.04-.02,.08-.04,.11-.68,1.26-.66,2.4,.41,3.49,.5,.51,.39,1.05-.12,1.57-1.04,1.06-2.08,2.1-3.14,3.14-.51,.5-1.06,.61-1.57,.11-1.06-1.03-2.11-1.1-3.34-.34-.32,.2-.56,.33-.6,.73-.05,.46-.15,.92-.25,1.37-.15,.68-.49,1.01-1.17,1.02-1.48,.03-2.96,.02-4.44,0-.62,0-1.03-.34-1.16-.96-.11-.5-.22-.99-.28-1.49-.05-.36-.23-.53-.56-.63-.31-.09-.65-.16-.91-.34-.69-.47-1.26-.32-1.83,.21-.2,.19-.46,.34-.7,.49-.51,.33-1.01,.3-1.45-.12-1.1-1.08-2.19-2.17-3.27-3.27-.43-.43-.52-1.01-.1-1.43,1.06-1.06,1.09-2.15,.37-3.4-.19-.32-.31-.57-.72-.62-.46-.05-.92-.16-1.37-.26-.68-.15-1-.47-1.01-1.17-.03-1.48-.02-2.96,0-4.44,0-.61,.33-1.13,.97-1.13,1.57,0,2.32-.85,2.68-2.27,.08-.33,.12-.56-.09-.83-.28-.37-.54-.76-.81-1.14-.36-.52-.36-1.04,.09-1.49,1.08-1.1,2.17-2.19,3.27-3.27,.21-.2,.45-.34,.76-.34Zm18.57,20.77c-.24-.35-.5-.76-.8-1.14-.36-.47-.41-.94-.15-1.47,.41-.84,.72-1.72,.91-2.64,.15-.71,.54-1.06,1.27-1.18,1.53-.25,1.53-.28,1.53-1.81q0-1.48-1.5-1.62c-.78-.07-1.07-.28-1.25-1.01-.23-.93-.57-1.82-1.06-2.64-.3-.5-.23-.95,.09-1.42,.29-.43,.86-.83,.81-1.31-.05-.5-.68-.81-1.06-1.2-.93-.96-.94-.95-2.01-.2-.13,.09-.27,.18-.4,.27-.39,.26-.81,.28-1.21,.04-.88-.52-1.82-.89-2.81-1.13-.56-.14-.85-.51-.92-1.08-.05-.4-.11-.8-.17-1.2-.05-.3-.2-.46-.53-.45-.65,.02-1.3,.01-1.95,0-.34,0-.53,.11-.58,.47-.06,.44-.16,.88-.25,1.31-.1,.48-.36,.81-.85,.93-.91,.23-1.77,.6-2.59,1.04-.64,.34-1.2,.3-1.8-.14-1.14-.84-1.16-.82-2.14,.18-.36,.36-.9,.69-.99,1.11-.1,.48,.48,.88,.78,1.31,.35,.51,.39,.99,.07,1.53-.43,.72-.8,1.48-.94,2.3-.15,.86-.64,1.23-1.46,1.37-1.38,.24-1.37,.26-1.37,1.64,0,1.56,0,1.59,1.51,1.83,.76,.12,1.14,.51,1.29,1.23,.16,.76,.4,1.5,.83,2.14,.48,.71,.43,1.31-.09,1.99-.8,1.05-.77,1.07,.18,2.01,.37,.37,.71,.93,1.16,1.04,.51,.12,.92-.49,1.36-.79,.5-.33,.95-.38,1.47-.05,.67,.43,1.4,.77,2.18,.91,.98,.17,1.4,.71,1.54,1.66,.18,1.21,.22,1.2,1.46,1.2,1.67,0,1.68,0,2-1.67,.11-.56,.41-.89,.96-1.05,.54-.16,1.13-.28,1.59-.58,1.28-.85,2.43-.82,3.53,.29,.22,.22,.41,.17,.62-.05,.51-.53,1.03-1.03,1.55-1.55,.1-.1,.22-.19,.2-.42Z"/>
          <path d="M113.39,23.16c-4.35,0-7.95-3.61-7.93-7.96,.01-4.32,3.62-7.91,7.94-7.91,4.34,0,7.95,3.63,7.94,7.97-.01,4.32-3.62,7.9-7.94,7.9Zm0-2.12c3.23,0,5.81-2.56,5.81-5.77,0-3.26-2.57-5.86-5.79-5.87-3.25,0-5.84,2.57-5.84,5.82,0,3.27,2.55,5.82,5.82,5.82Z"/>
        </g>
      </g>
    </g>
    <g>
      <path d="M32.35,31.46c0,.09-.04,.14-.15,.18-.21,.08-.41,.16-.61,.27-.42,.22-.8,.5-1.11,.85-.34,.37-.59,.8-.77,1.27-.03,.08-.06,.16-.09,.24-.03,.08-.1,.12-.18,.12-.08,0-.15-.04-.19-.11-.07-.14-.13-.29-.2-.43-.17-.37-.36-.73-.61-1.06-.19-.24-.41-.44-.67-.6-.34-.21-.71-.37-1.08-.52-.04-.02-.08-.03-.11-.06-.12-.1-.09-.28,.04-.34,.09-.04,.19-.07,.28-.11,.32-.13,.63-.29,.91-.5,.36-.25,.66-.56,.91-.92,.22-.31,.39-.65,.52-1,.05-.14,.19-.19,.31-.11,.04,.03,.07,.07,.08,.12,.15,.41,.35,.78,.62,1.13,.31,.4,.68,.73,1.12,.98,.25,.14,.5,.27,.77,.36,.03,.01,.06,.02,.09,.04,.07,.04,.11,.1,.1,.19Z"/>
      <path d="M51.94,59.01H22.91c-.54,0-.98-.44-.98-.98s.44-.98,.98-.98h25.06l-26.04-13.63c-.48-.25-.66-.84-.41-1.32s.84-.66,1.32-.41l29.55,15.47c.4,.21,.6,.66,.49,1.1-.11,.44-.5,.74-.95,.74Z"/>
      <path d="M43.66,54.63c-.16,0-.31-.04-.45-.11l-15.5-8.11c-.48-.25-.66-.84-.41-1.32l8.11-15.5c.12-.23,.33-.4,.57-.48,.25-.08,.51-.05,.74,.07l15.5,8.11c.48,.25,.66,.84,.41,1.32l-8.11,15.5c-.12,.23-.33,.4-.57,.48-.1,.03-.19,.04-.29,.04Zm-14.18-9.5l13.77,7.21,7.21-13.77-13.77-7.21-7.21,13.77Z"/>
      <path d="M53.77,50.32c-.16,0-.32-.04-.46-.12l-13.8-7.5c-.47-.26-.65-.85-.39-1.32,.26-.47,.85-.65,1.32-.39l13.8,7.5c.47,.26,.65,.85,.39,1.32-.18,.33-.51,.51-.86,.51Z"/>
      <polygon points="53.03 45.6 56.69 50.82 50.35 50.72 53.03 45.6"/>
    </g>
    <g>
      <path class="cls-5" d="M216.1,115.04h0s0,0,0,0c-.05,.82-.34,1.64-.74,2.36-.66,1.16-1.63,2.12-2.58,3.05-.84,.82-1.7,1.66-2.72,2.25-1.02,.6-2.24,.94-3.39,.7-1.28-.27-2.3-1.2-3.26-2.09-.85-.8-1.71-1.59-2.56-2.39-.23-.22-.47-.44-.7-.65-1.03-.96-2.06-1.92-3.09-2.88l-.89-1.18c.24-.22,.48-.44,.73-.64,.31-.26,.63-.5,.96-.73,2.83-2.01,6.31-3.1,9.78-3.1,.25,0,.5,0,.76,.02-.19,.52-.38,1.04-.57,1.56-.03,.09-.06,.18,.04,.24,.09,.05,.16-.01,.22-.08,.16-.18,.31-.36,.47-.54,.32-.36,.64-.73,.96-1.09,.58,.06,1.16,.16,1.73,.3,1.84,.42,3.79,1.35,4.55,3.03,.05,.12,.1,.25,.15,.38,.16,.48,.21,.98,.18,1.49Z"/>
      <path d="M220.99,98.1c0-.33,0-.33-.41-.32-1.72,.05-3.42-.01-5.1-.22-.3,.51-.59,1.03-.89,1.54,1.41,.16,2.83,.21,4.28,.17q.37-.01,.37,.28c0,1.23,.03,2.45,0,3.68-.06,2.13-.34,4.25-.88,6.35-.5,1.91-1.21,3.74-2.24,5.47h0s0,0,0,0c-.02,.04-.05,.08-.08,.13-.09,.16-.19,.31-.3,.47-.1,.16-.21,.31-.31,.46-2,2.87-4.78,5.04-8.3,6.55-.15,.06-.28,.07-.43,0-2.24-.96-4.2-2.2-5.84-3.72-.23-.22-.46-.44-.68-.67-.48-.48-.91-.99-1.32-1.52-.78-1.01-1.42-2.08-1.95-3.18-.58-1.2-1.03-2.45-1.38-3.72-.45-1.62-.71-3.26-.84-4.92-.08-.97-.12-1.96-.18-2.94h.08c0-.86,0-1.71,0-2.56,0-.14,.06-.19,.24-.18,1.72,.07,3.43-.01,5.11-.26,2.4-.35,4.68-.98,6.71-2.15,.21-.12,.34-.12,.56,0,.91,.55,1.9,.97,2.94,1.29h0c.26-.51,.53-1.03,.79-1.54-1.31-.4-2.55-.89-3.69-1.58-.25-.14-.39-.14-.64,0-2.32,1.33-4.93,2.04-7.67,2.45-1.94,.29-3.88,.37-5.85,.31-.2,0-.27,.03-.27,.21,0,.96,0,1.94,0,2.91h-.07c.06,1.13,.1,2.25,.2,3.37,.14,1.89,.46,3.76,.96,5.61,.77,2.8,1.94,5.46,3.81,7.89,.35,.46,.73,.9,1.12,1.32,2.1,2.28,4.73,4.08,7.83,5.42,.18,.08,.32,.08,.5,0,4.01-1.73,7.2-4.22,9.48-7.48,1.62-2.33,2.67-4.84,3.35-7.46,.62-2.4,.94-4.82,1.01-7.26,.04-1.39,0-2.8,0-4.2Z"/>
      <path d="M217.86,100.67q0-.26-.32-.25c-.08,0-.16,0-.24,0,.03,.02,.05,.06,.07,.1,.07,.17,0,.3-.12,.43-.32,.36-.65,.73-.96,1.1-1.09,1.25-2.17,2.5-3.25,3.74-.72,.83-1.44,1.66-2.16,2.49-.46,.52-.92,1.05-1.37,1.57-.32,.37-.64,.73-.96,1.09-.16,.18-.31,.36-.47,.54-.06,.06-.12,.13-.22,.08-.1-.06-.08-.15-.04-.24,.19-.52,.38-1.04,.57-1.56,.19-.52,.38-1.04,.57-1.56,.55-1.5,1.1-2.99,1.64-4.49,.08-.23,.08-.23-.17-.23h-2.47c-.36,0-.49-.22-.32-.54,.62-1.2,1.24-2.41,1.86-3.61-.83-.28-1.62-.62-2.36-1.06-.19-.11-.31-.11-.49,0h0c-1.81,1.04-3.84,1.6-5.98,1.91-1.51,.22-3.03,.28-4.55,.23-.15,0-.21,.03-.21,.17v2.27h-.06c.05,.87,.08,1.75,.15,2.62,.12,1.48,.36,2.94,.76,4.38,.13,.47,.28,.93,.44,1.39,.19,.55,.41,1.08,.65,1.61,.5,1.09,1.12,2.14,1.88,3.13,.45,.58,.93,1.12,1.44,1.62,1.53,1.51,3.39,2.72,5.53,3.65,.15,.06,.25,.05,.39,0,3.13-1.35,5.6-3.28,7.38-5.82,.17-.24,.33-.48,.48-.72,.05-.09,.11-.18,.16-.27,.06-.1,.12-.2,.18-.3,.07-.12,.14-.25,.2-.37,.05-.09,.1-.19,.15-.28s.09-.19,.14-.29c.07-.14,.14-.29,.2-.44,.07-.14,.13-.29,.19-.44,.12-.29,.24-.59,.35-.89,.05-.14,.1-.29,.15-.43,0-.01,.01-.03,.01-.04,.05-.14,.09-.28,.14-.43h0c.05-.15,.09-.31,.13-.46,.04-.15,.08-.31,.12-.46,.48-1.86,.73-3.75,.79-5.65,.02-1.09,0-2.18,0-3.27Z"/>
      <path d="M217.87,103.94c-.05,1.9-.31,3.79-.79,5.65-.04,.15-.08,.31-.12,.46-.04,.15-.09,.3-.13,.46h0c-.04,.15-.09,.29-.14,.43,0,.01,0,.03-.01,.04-.05,.14-.1,.29-.15,.43-.1,.3-.22,.6-.35,.89-.06,.15-.12,.29-.19,.44-.06,.15-.13,.29-.2,.44-.05,.09-.09,.19-.14,.29s-.1,.19-.15,.28c-.06,.12-.13,.25-.2,.37-.06,.1-.11,.2-.18,.3-.05,.09-.11,.18-.16,.27-.15,.24-.31,.49-.48,.72-1.78,2.55-4.25,4.48-7.38,5.82-.14,.06-.24,.07-.39,0-2.14-.93-4-2.14-5.53-3.65,2.67-1.95,4.83-4.79,6.46-7.85,.94-1.76,1.7-3.58,2.29-5.34,.1-.3,.2-.61,.29-.92h.23c.25,0,.25,0,.17,.23-.55,1.5-1.09,2.99-1.64,4.49-.19,.52-.38,1.04-.57,1.56-.19,.52-.38,1.04-.57,1.56-.03,.09-.06,.18,.04,.24,.09,.05,.16-.01,.22-.08,.16-.18,.31-.36,.47-.54,.32-.36,.64-.73,.96-1.09,.46-.52,.92-1.05,1.37-1.57,.72-.83,1.44-1.66,2.16-2.49,1.08-1.25,2.17-2.5,3.25-3.74,.32-.37,.64-.73,.96-1.1,.11-.13,.19-.26,.12-.43-.02-.04-.04-.08-.07-.1,.08,0,.16,0,.24,0q.32,0,.32,.25c0,1.09,.03,2.18,0,3.27Z"/>
      <path d="M220.99,102.3c-.07,2.45-.39,4.87-1.01,7.26-.67,2.62-1.72,5.14-3.35,7.46-2.28,3.26-5.47,5.75-9.48,7.48-.18,.08-.32,.08-.5,0-3.1-1.33-5.73-3.14-7.83-5.42,.42-.29,.88-.54,1.32-.8,0,0,.01,0,.02-.01,.22,.23,.45,.45,.68,.67,1.64,1.52,3.6,2.76,5.84,3.72,.15,.07,.28,.06,.43,0,3.52-1.52,6.3-3.69,8.3-6.55,.25-.35,.48-.71,.69-1.07,1.04-1.73,1.75-3.56,2.24-5.47,.54-2.09,.82-4.21,.88-6.35,.03-1.23,0-2.45,0-3.68q0-.3-.37-.28c-1.44,.04-2.87,0-4.28-.17,.3-.51,.6-1.03,.89-1.54,1.68,.21,3.38,.27,5.1,.22,.41,0,.41,0,.41,.32,0,1.4,.04,2.8,0,4.2Z"/>
    </g>
    <g>
      <g>
        <rect class="cls-5" x="34.79" y="169.87" width="8.52" height="8.52"/>
        <path d="M43.31,179.25h-8.52c-.48,0-.86-.39-.86-.86v-8.52c0-.48,.39-.86,.86-.86h8.52c.48,0,.86,.39,.86,.86v8.52c0,.48-.39,.86-.86,.86Zm-7.66-1.72h6.8v-6.8h-6.8v6.8Z"/>
      </g>
      <g>
        <rect class="cls-9" x="34.79" y="178.39" width="8.52" height="8.52"/>
        <path d="M43.31,187.76h-8.52c-.48,0-.86-.39-.86-.86v-8.52c0-.48,.39-.86,.86-.86h8.52c.48,0,.86,.39,.86,.86v8.52c0,.48-.39,.86-.86,.86Zm-7.66-1.72h6.8v-6.8h-6.8v6.8Z"/>
      </g>
      <g>
        <rect class="cls-5" x="34.79" y="186.9" width="8.52" height="8.52"/>
        <path d="M43.31,196.28h-8.52c-.48,0-.86-.39-.86-.86v-8.52c0-.48,.39-.86,.86-.86h8.52c.48,0,.86,.39,.86,.86v8.52c0,.48-.39,.86-.86,.86Zm-7.66-1.72h6.8v-6.8h-6.8v6.8Z"/>
      </g>
      <g>
        <rect class="cls-5" x="51.53" y="186.9" width="8.52" height="8.52"/>
        <path d="M60.05,196.28h-8.52c-.48,0-.86-.39-.86-.86v-8.52c0-.48,.39-.86,.86-.86h8.52c.48,0,.86,.39,.86,.86v8.52c0,.48-.39,.86-.86,.86Zm-7.66-1.72h6.8v-6.8h-6.8v6.8Z"/>
      </g>
      <g>
        <rect class="cls-5" x="43.61" y="186.9" width="8.52" height="8.52"/>
        <path d="M52.12,196.28h-8.52c-.48,0-.86-.39-.86-.86v-8.52c0-.48,.39-.86,.86-.86h8.52c.48,0,.86,.39,.86,.86v8.52c0,.48-.39,.86-.86,.86Zm-7.66-1.72h6.8v-6.8h-6.8v6.8Z"/>
      </g>
      <g>
        <rect class="cls-5" x="51.53" y="178.39" width="8.52" height="8.52"/>
        <path d="M60.05,187.76h-8.52c-.48,0-.86-.39-.86-.86v-8.52c0-.48,.39-.86,.86-.86h8.52c.48,0,.86,.39,.86,.86v8.52c0,.48-.39,.86-.86,.86Zm-7.66-1.72h6.8v-6.8h-6.8v6.8Z"/>
      </g>
      <g>
        <rect class="cls-9" x="51.53" y="169.87" width="8.52" height="8.52"/>
        <path d="M60.05,179.25h-8.52c-.48,0-.86-.39-.86-.86v-8.52c0-.48,.39-.86,.86-.86h8.52c.48,0,.86,.39,.86,.86v8.52c0,.48-.39,.86-.86,.86Zm-7.66-1.72h6.8v-6.8h-6.8v6.8Z"/>
      </g>
      <g>
        <rect class="cls-9" x="43.31" y="178.39" width="8.52" height="8.52"/>
        <path d="M51.83,187.76h-8.52c-.48,0-.86-.39-.86-.86v-8.52c0-.48,.39-.86,.86-.86h8.52c.48,0,.86,.39,.86,.86v8.52c0,.48-.39,.86-.86,.86Zm-7.66-1.72h6.8v-6.8h-6.8v6.8Z"/>
      </g>
      <g>
        <rect class="cls-5" x="43.31" y="169.87" width="8.52" height="8.52"/>
        <path d="M51.83,179.25h-8.52c-.48,0-.86-.39-.86-.86v-8.52c0-.48,.39-.86,.86-.86h8.52c.48,0,.86,.39,.86,.86v8.52c0,.48-.39,.86-.86,.86Zm-7.66-1.72h6.8v-6.8h-6.8v6.8Z"/>
      </g>
    </g>
    <g>
      <circle class="cls-9" cx="113.33" cy="206.32" r="14.55"/>
      <g>
        <path class="cls-5" d="M105.58,210.03c.02,.23,.16,.4,.35,.55,.09,.07,.17,.15,.26,.23,.34,.29,.76,.29,1.09,0,.83-.72,1.65-1.43,2.47-2.15,1.07-.93,2.14-1.86,3.21-2.79,.39-.34,.39-.69,0-1.03-1.87-1.63-3.74-3.26-5.61-4.89-.13-.12-.27-.22-.46-.27h-.33c-.14,.04-.27,.1-.38,.2-.1,.09-.19,.18-.3,.26-.17,.13-.28,.28-.32,.48v.13c.04,.19,.16,.33,.32,.47,1.51,1.31,3.02,2.63,4.53,3.94q.22,.2,0,.39c-1.5,1.31-3,2.62-4.5,3.92-.18,.15-.32,.31-.35,.54v.04Z"/>
        <path class="cls-5" d="M120.26,212.98h-7.08c-.46,0-.83-.46-.83-1.02s.37-1.02,.83-1.02h7.08c.46,0,.83,.46,.83,1.02s-.37,1.02-.83,1.02Z"/>
      </g>
    </g>
    <g>
      <path class="cls-4" d="M189.51,178.22v2.4c0,.65-.03,1.3,0,1.94,.05,.97-.39,1.73-1.15,2.35-1.07,.86-2.36,1.36-3.7,1.73-2.09,.57-4.22,.74-6.38,.67-2.32-.07-4.59-.4-6.73-1.32-.94-.4-1.82-.9-2.44-1.71-.35-.45-.54-.94-.54-1.5,.01-1.48,0-2.98,0-4.47,0-.43,.04-.45,.47-.28,2.77,1.01,5.52,2.05,8.3,3.04,1.11,.38,2.27,.39,3.37,0,2.28-.8,4.55-1.65,6.82-2.48,.54-.19,1.07-.39,1.61-.59,.31-.11,.38-.08,.38,.23Z"/>
      <path class="cls-4" d="M194.62,170.65c0,.42-.19,.67-.65,.85-1.71,.69-3.44,1.38-5.16,2.05-2.74,1.08-5.47,2.16-8.21,3.25-1.07,.42-2.12,.43-3.18,0-.85-.36-1.73-.7-2.6-1.04-1.31-.54-2.63-1.05-3.95-1.57l-.15-.07-7.02-2.87c-.09-.05-.16-.16-.24-.26v-.69c.15-.27,.38-.45,.66-.54,.82-.32,1.63-.66,2.46-.99,2.46-.96,4.9-1.93,7.33-2.9,1.48-.57,2.94-1.21,4.47-1.7h1.32c1.26,.39,2.44,.92,3.66,1.39,2.43,.96,4.84,1.93,7.26,2.87,1.13,.45,2.24,.89,3.36,1.34,.39,.16,.66,.4,.65,.86Z"/>
      <path class="cls-1" d="M189.51,180.63c0,.65-.03,1.3,0,1.94,.05,.97-.39,1.73-1.15,2.35-1.07,.86-2.36,1.36-3.7,1.73-2.09,.57-4.22,.74-6.38,.67-2.32-.07-4.59-.4-6.73-1.32-.94-.4-1.82-.9-2.44-1.71-.35-.45-.54-.94-.54-1.5,.01-1.48,0-2.98,0-4.47,0-.43,.04-.45,.47-.28,2.77,1.01,5.52,2.05,8.3,3.04,1.11,.38,2.27,.39,3.37,0,2.28-.8,4.55-1.65,6.82-2.48,.54-.19,1.07-.39,1.61-.59,.31-.11,.38-.08,.38,.23v2.4Z"/>
      <g id="kmQvjB.tif">
        <path class="cls-1" d="M194.62,170.65c0,.42-.19,.67-.65,.85-1.71,.69-3.44,1.38-5.16,2.05-2.74,1.08-5.47,2.16-8.21,3.25-1.07,.42-2.12,.43-3.18,0-.85-.36-1.73-.7-2.6-1.04-1.31-.54-2.63-1.05-3.95-1.57l-.15-.07-7.02-2.87c-.09-.05-.16-.16-.24-.26v-.69c.15-.27,.38-.45,.66-.54,.82-.32,1.63-.66,2.46-.99,2.46-.96,4.9-1.93,7.33-2.9,1.48-.57,2.94-1.21,4.47-1.7h1.32c1.26,.39,2.44,.92,3.66,1.39,2.43,.96,4.84,1.93,7.26,2.87,1.13,.45,2.24,.89,3.36,1.34,.39,.16,.66,.4,.65,.86Z"/>
      </g>
      <polygon class="cls-10" points="164.52 176.08 164.05 176.08 163.42 170.66 165.09 170.66 164.52 176.08"/>
      <g id="_2DXTTK.tif" data-name="2DXTTK.tif">
        <path class="cls-10" d="M164.49,176.79c.38,.91,1.03,1.55,1.97,1.91,.19,.07,.19,.35,0,.43-1.12,.47-1.39,.75-1.94,1.97-.08,.18-.35,.19-.42,0-.36-.94-1-1.6-1.97-1.99-.19-.08-.19-.34,0-.42,.94-.37,1.58-1.01,1.95-1.9,.08-.19,.34-.19,.42,0Z"/>
      </g>
    </g>
    <g>
      <g>
        <path d="M28.06,109.52c-.62-.15-1.25,.02-1.71,.39-.29,.23-.66,.33-1.02,.25l-.7-.16c-.32-.08-.55-.34-.58-.66-.06-.59-.21-1.17-.43-1.75-.32-.81-.77-1.53-1.33-2.13-.24-.27-.27-.66-.07-.96l.57-.82c.16-.23,.39-.41,.67-.46,.34-.06,.66-.26,.88-.57,.44-.64,.28-1.51-.35-1.95-.64-.44-1.51-.29-1.95,.35-.21,.3-.28,.65-.24,.99,.04,.29-.03,.59-.19,.83l-.53,.76c-.21,.31-.61,.41-.96,.26-1.29-.6-2.77-.79-4.23-.48-.37,.08-.74-.12-.87-.47l-.11-.28c-.13-.35-.08-.73,.11-1.04,.38-.62,.41-1.44-.03-2.13-.42-.64-1.2-.99-1.96-.86-1.29,.21-1.99,1.53-1.55,2.67,.23,.6,.72,1.02,1.29,1.18,.36,.11,.66,.35,.79,.7l.15,.38c.13,.33,.01,.7-.28,.91-.84,.57-1.52,1.32-2.01,2.16-.15,.25-.43,.39-.73,.37l-.76-.07c-.32-.03-.6-.2-.8-.45-.26-.32-.63-.53-1.07-.57-.86-.08-1.62,.55-1.7,1.41-.08,.86,.55,1.62,1.41,1.7,.45,.04,.87-.11,1.18-.39,.23-.21,.54-.3,.85-.27h.05c.44,.05,.74,.45,.69,.89-.14,1.08-.01,2.21,.41,3.3,.08,.21,.17,.42,.28,.62,.16,.32,.1,.71-.17,.95l-.3,.26c-.28,.25-.66,.32-1.03,.25-.58-.12-1.21,.02-1.69,.43-.83,.72-.92,1.97-.21,2.8,.71,.83,1.96,.92,2.79,.21,.48-.42,.72-1.01,.69-1.6-.02-.37,.11-.74,.4-.98l.21-.18c.29-.25,.71-.24,1,0,1.4,1.18,3.25,1.76,5.12,1.56,.37-.04,.71,.17,.82,.52l.23,.73c.09,.28,.06,.58-.05,.84-.14,.31-.17,.67-.06,1.01,.24,.74,1.02,1.14,1.76,.91,.74-.23,1.15-1.02,.91-1.76-.11-.35-.35-.62-.64-.79-.26-.14-.45-.37-.54-.65l-.23-.72c-.11-.35,.05-.73,.37-.91,1.59-.88,2.72-2.33,3.21-3.98,.12-.39,.53-.62,.93-.52l.27,.07c.36,.09,.64,.35,.8,.69,.24,.54,.73,.97,1.34,1.12,1.07,.26,2.14-.4,2.39-1.46,.26-1.07-.4-2.13-1.46-2.39Zm-8.95,5.25c-2.61,1.01-5.54-.28-6.56-2.88-1.01-2.61,.28-5.54,2.89-6.55,2.61-1.01,5.54,.28,6.55,2.88,1.01,2.61-.28,5.54-2.88,6.55Z"/>
        <circle cx="15.42" cy="110.45" r="1.52"/>
        <circle cx="18.83" cy="112.24" r=".98"/>
        <circle cx="18.58" cy="108.58" r=".9"/>
      </g>
      <path d="M17.53,127.27c-9.67,0-17.53-7.86-17.53-17.53,0-3.92,1.26-7.62,3.65-10.71,.2-.26,.57-.31,.83-.11,.26,.2,.31,.57,.11,.83-2.22,2.88-3.4,6.33-3.4,9.98,0,9.01,7.33,16.34,16.34,16.34s16.34-7.33,16.34-16.34-7.33-16.34-16.34-16.34c-3.63,0-7.07,1.16-9.94,3.37-.26,.2-.63,.15-.83-.11-.2-.26-.15-.63,.11-.83,3.08-2.36,6.77-3.61,10.67-3.61,9.66,0,17.53,7.86,17.53,17.53s-7.86,17.53-17.53,17.53Z"/>
      <path d="M17.52,123.82c-6.62,0-12.53-4.7-13.82-11.44-1.46-7.62,3.56-15.01,11.18-16.47,7.62-1.46,15.01,3.56,16.47,11.18,.59,3.09,.15,6.2-1.26,8.99-.1,.2-.34,.27-.53,.17-.2-.1-.27-.34-.17-.53,1.34-2.64,1.75-5.57,1.19-8.49-1.38-7.19-8.35-11.93-15.54-10.55-7.19,1.38-11.93,8.35-10.55,15.54,1.38,7.19,8.35,11.93,15.54,10.55,.22-.04,.42,.1,.46,.32,.04,.22-.1,.42-.32,.46-.89,.17-1.78,.25-2.65,.25Z"/>
      <path d="M14.62,120.36c-.15,0-.3-.09-.37-.24-.09-.2,0-.43,.21-.52l1.72-.73c.2-.08,.43,0,.52,.21,.09,.2,0,.43-.21,.52l-1.72,.73c-.05,.02-.1,.03-.15,.03Z"/>
      <path d="M27.07,106.53c-.06,0-.11-.01-.17-.04l-1.95-.92c-.2-.09-.28-.33-.19-.53,.09-.2,.33-.28,.53-.19l1.95,.92c.2,.09,.28,.33,.19,.53-.07,.14-.21,.23-.36,.23Z"/>
      <path d="M7.87,112.07c-.06,0-.11-.01-.17-.04l-1.95-.92c-.2-.09-.28-.33-.19-.53,.09-.2,.33-.28,.53-.19l1.95,.92c.2,.09,.28,.33,.19,.53-.07,.14-.21,.23-.36,.23Z"/>
      <circle cx="10.63" cy="103.41" r=".73"/>
      <circle cx="18.71" cy="98.69" r=".73"/>
      <path d="M27.25,119.86c0,.07-.03,.11-.11,.14-.16,.06-.32,.13-.47,.21-.33,.17-.62,.39-.87,.66-.26,.29-.46,.62-.6,.98-.02,.06-.05,.13-.07,.19-.02,.06-.07,.09-.14,.09-.07,0-.12-.03-.15-.09-.05-.11-.1-.22-.15-.33-.14-.29-.28-.57-.47-.82-.14-.19-.32-.34-.52-.47-.27-.16-.55-.29-.84-.41-.03-.01-.06-.02-.08-.04-.09-.08-.07-.21,.03-.26,.07-.03,.14-.05,.22-.08,.25-.1,.49-.23,.71-.39,.28-.2,.51-.44,.71-.71,.17-.24,.3-.5,.41-.78,.04-.11,.15-.15,.24-.09,.03,.02,.05,.05,.06,.09,.12,.32,.28,.61,.48,.88,.24,.31,.53,.57,.87,.76,.19,.11,.39,.21,.6,.28,.02,0,.05,.02,.07,.03,.05,.03,.08,.07,.08,.15Z"/>
      <path d="M28.1,117.63s-.01,.04-.04,.05c-.06,.02-.12,.05-.18,.08-.12,.06-.23,.15-.33,.25-.1,.11-.17,.23-.23,.37,0,.02-.02,.05-.03,.07,0,.02-.03,.03-.05,.04-.02,0-.04-.01-.06-.03-.02-.04-.04-.08-.06-.13-.05-.11-.1-.22-.18-.31-.05-.07-.12-.13-.2-.18-.1-.06-.21-.11-.32-.15-.01,0-.02,0-.03-.02-.03-.03-.03-.08,.01-.1,.03-.01,.05-.02,.08-.03,.09-.04,.18-.09,.27-.15,.1-.07,.19-.16,.27-.27,.06-.09,.11-.19,.15-.29,.02-.04,.06-.05,.09-.03,.01,0,.02,.02,.02,.03,.04,.12,.1,.23,.18,.33,.09,.12,.2,.21,.33,.29,.07,.04,.15,.08,.23,.11,0,0,.02,0,.03,.01,.02,.01,.03,.03,.03,.06Z"/>
      <path d="M23.47,122.13s-.01,.04-.04,.05c-.06,.02-.12,.05-.18,.08-.12,.06-.23,.15-.33,.25-.1,.11-.17,.23-.23,.37,0,.02-.02,.05-.03,.07,0,.02-.03,.03-.05,.04-.02,0-.04-.01-.06-.03-.02-.04-.04-.08-.06-.13-.05-.11-.1-.22-.18-.31-.05-.07-.12-.13-.2-.18-.1-.06-.21-.11-.32-.15-.01,0-.02,0-.03-.02-.03-.03-.03-.08,.01-.1,.03-.01,.05-.02,.08-.03,.09-.04,.18-.09,.27-.15,.1-.07,.19-.16,.27-.27,.06-.09,.11-.19,.15-.29,.02-.04,.06-.05,.09-.03,.01,0,.02,.02,.02,.03,.04,.12,.1,.23,.18,.33,.09,.12,.2,.21,.33,.29,.07,.04,.15,.08,.23,.11,0,0,.02,0,.03,.01,.02,.01,.03,.03,.03,.06Z"/>
    </g>
    <g>
      <g>
        <path class="cls-8" d="M186.21,109.82c0,9.27-1.73,18.13-4.89,26.27-.81,2.08-1.7,4.1-2.68,6.08-2.48,5.02-5.53,9.7-9.06,13.97-.01,.01-.03,.04-.04,.05-1.79,2.16-3.7,4.21-5.71,6.13-.2,.21-.41,.39-.61,.59-.48,.44-.97,.89-1.46,1.31-.38,.34-.76,.67-1.14,.98-.8,.68-1.59,1.33-2.42,1.97-.35,.27-.69,.54-1.05,.81-1.16,.89-2.34,1.73-3.53,2.51-.35,.24-.72,.47-1.07,.71-.29,.18-.56,.35-.85,.54-1.35,.85-2.72,1.63-4.1,2.38-.07,.04-.13,.07-.2,.1-1.02,.55-2.05,1.06-3.1,1.54-.08,.04-.17,.08-.25,.13-.9,.42-1.8,.81-2.72,1.18-.43,.18-.85,.35-1.28,.52-.48,.18-.98,.37-1.48,.55-7.85,2.91-16.34,4.51-25.2,4.51-3.15,0-6.26-.2-9.31-.6-.08-.01-.17-.01-.25-.03-.51-.07-1.02-.13-1.53-.21-.04-.01-.09-.01-.13-.03-34.89-5.4-61.61-35.55-61.61-71.96,0-22.71,10.4-43.01,26.71-56.37,2.12-1.74,4.34-3.36,6.65-4.85,2.44-1.57,4.98-3.01,7.61-4.27,.03-.01,.04-.03,.07-.04,9.61-4.68,20.4-7.29,31.78-7.29,7.7,0,15.12,1.2,22.1,3.42,11.92,3.78,22.5,10.56,30.87,19.45,4.74,5.01,8.77,10.7,11.93,16.9,5.07,9.92,7.92,21.16,7.92,33.05Z"/>
        <path class="cls-11" d="M178.29,76.77c-.03,.37-.1,.73-.25,1.08-1.53,3.72-8.05,.58-11.67,1.42-9.42-.01-13.41-.01-15.63,2.93-.2,.26-.38,.54-.55,.84-1.27,2.23-1.93,5.82-2.98,11.53q-3.86,20.87,14.94,30.41c3.49,1.75,5.93,3.2,5.76,8-.14,3.83,1.69,7.83,3.01,11.63,.05,.14,.1,.29,.13,.44,1.36,4.23,.84,7.71-1.46,11.08-.01,.01-.03,.04-.04,.05-.55,.8-1.2,1.58-1.95,2.38-1.23,1.31-2.48,2.56-3.76,3.75-.2,.21-.41,.39-.61,.59-.48,.44-.97,.89-1.46,1.31-.38,.34-.76,.67-1.14,.98-.8,.69-1.61,1.35-2.42,1.97-.35,.27-.69,.54-1.05,.81-1.16,.89-2.34,1.73-3.53,2.51-.64,.43-1.27,.84-1.92,1.24-1.35,.85-2.72,1.63-4.1,2.38-.07,.04-.13,.07-.2,.1-1.02,.55-2.05,1.06-3.1,1.54-.08,.04-.17,.08-.25,.13-.9,.42-1.8,.81-2.72,1.18-.43,.18-.85,.35-1.28,.52-.48,.18-.98,.37-1.48,.55-10.56,3.82-22.06,5.07-34.5,3.91-.08-.01-.17-.01-.25-.03-.51-.07-1.02-.13-1.53-.21-.04-.01-.09-.01-.13-.03-2.37-.46-3.59-1.4-3.35-3.55,.09-.81,.38-1.78,.88-2.97,4.03-9.28,7.4-18.82,11.08-28.22,4.09-10.47-6.12-25.34-17.51-25.41-5.69-.05-11.46-.71-17.02,.14-7.76,1.2-11.58-3.03-14.06-8.93-2.39-5.61,3.96-6.94,6.31-10.18,1.49-2.05,3.32-4.56,6.26-4.87,4.46-.5,9.45-1.27,8.17,6.05-.91,5.19,1.71,5.96,6.25,6.04,4.84,.05,6.78-1.31,6.06-6.22-1.02-7.16,1.15-13.36,5.04-19.47,4.51-7.06,8.46-14.45,12.56-21.76,.55-.98,1.11-1.96,1.66-2.94,.55-.95,1.1-1.9,1.65-2.84,1.56-2.69,3.66-5.25-.94-6.8-3.05-1.02-6.44-6.65-9.34,.07-1.23,2.86-2.9,4.2-4.8,4.76-3.49,1.07-7.74-.5-11.36,.09-3.78,.6-5.12-1.76-6.43-4.2-.55-1.03-1.1-2.08-1.82-2.9-1.45-1.67-1.01-2.61,.07-3.35,.03-.01,.04-.03,.07-.04,.44-.3,1.01-.55,1.57-.81,16.41-7.37,33.25-8.63,50.59-3.74,.68,.18,1.24,.41,1.73,.68,1.91,1.06,2.44,2.77,2.35,5.23-.17,3.95-.05,7.89-.05,11.84-.01,3.72-.5,8.31,4.22,9.06,5.35,.84,11.37,2.74,15.98-2.31,1.62-1.78,2.84-3.11,3.84-4h.01l4.21-.61c.09,.07,.2,.14,.3,.25,1.12,.9,2.44,2.59,4.4,5.01,.3,.39,.64,.74,.93,1.15,2.38,3.44,6.84,7.33,6.6,10.74Z"/>
        <path class="cls-11" d="M76.15,172.35c-20.7-13.42-32.43-31.39-35.16-55.19-.51-4.43,1.41-4.7,4.47-3.21,7.17,3.49,12.06,10.71,12.51,17.14,.66,9.55,5.62,14.94,11.8,20.06,6.64,5.49,8.73,11.96,6.38,21.21Z"/>
      </g>
      <path class="cls-6" d="M186.42,109.74c0,8.74-1.53,17.11-4.35,24.88-8.36-20.81-24.91-38.14-43.8-50.63-6.25-4.13-12.78-7.82-19.49-11.16-12.14-6.06-24.81-10.98-37.58-15.56-2.86-1.03-9.95-2.2-13.23-4.84,12.46-9.88,28.22-15.78,45.36-15.78,40.37,0,73.09,32.72,73.09,73.09Z"/>
      <path class="cls-2" d="M186.42,109.74c0,8.74-1.53,17.11-4.35,24.88-10.17,28.11-37.11,48.21-68.74,48.21-40.36,0-73.09-32.73-73.09-73.09,0-23.23,10.84-43.92,27.73-57.31,12.46-9.88,28.22-15.78,45.36-15.78,40.37,0,73.09,32.72,73.09,73.09Z"/>
    </g>
    <g id="_2DXTTK.tif-2" data-name="2DXTTK.tif">
      <path class="cls-3" d="M191.73,42.39c2.38,6.72,6.98,11.18,13.87,13.45,.75,.25,.8,1.29,.07,1.59-8.49,3.45-9.83,4.83-13.89,13.98-.32,.71-1.34,.65-1.58-.09-2.27-6.91-6.76-11.52-13.85-13.93-.75-.25-.75-1.34,0-1.59,6.97-2.37,11.43-6.82,13.78-13.4,.27-.77,1.33-.77,1.6,0Z"/>
    </g>
  </g>
</svg>