<?xml version="1.0" encoding="UTF-8"?>
<svg id="Layer_2" data-name="Layer 2" xmlns="http://www.w3.org/2000/svg" viewBox="0 0 108.02 112.29">
  <defs>
    <style>
      .cls-1 {
        stroke-width: 2px;
      }

      .cls-1, .cls-2 {
        fill: none;
        stroke: #201d1d;
        stroke-miterlimit: 10;
      }
    </style>
  </defs>
  <g id="Layer_1-2" data-name="Layer 1">
    <polygon class="cls-1" points="1.97 38.14 1.01 72.46 20.39 99.96 53.39 111.24 85.52 101.82 106.26 74.36 107.01 39.97 87.21 12.33 54.74 1.05 22.49 10.61 1.97 38.14"/>
    <path d="M84.77,55.71c0,.9-.45,1.52-1.55,1.92-2.19,.8-4.33,1.73-6.4,2.81-4.43,2.31-8.37,5.27-11.72,8.98-3.55,3.92-6.2,8.41-8.14,13.31-.34,.85-.63,1.72-.98,2.57-.34,.81-1,1.24-1.86,1.27-.88,.03-1.6-.37-1.98-1.17-.72-1.49-1.37-3.02-2.08-4.52-1.84-3.88-3.74-7.73-6.39-11.15-1.96-2.53-4.31-4.61-7.03-6.29-3.59-2.23-7.45-3.89-11.34-5.49-.39-.16-.8-.3-1.13-.58-1.21-1.02-.99-2.9,.46-3.56,.95-.43,1.95-.74,2.91-1.14,3.38-1.38,6.58-3.1,9.56-5.22,3.75-2.67,6.94-5.9,9.59-9.65,2.31-3.26,4.1-6.8,5.5-10.54,.55-1.47,1.99-1.96,3.26-1.16,.46,.29,.69,.74,.87,1.23,1.61,4.26,3.73,8.24,6.53,11.84,3.27,4.2,7.2,7.66,11.81,10.34,2.59,1.5,5.27,2.81,8.1,3.8,.32,.11,.63,.24,.92,.39,.74,.39,1.11,1.01,1.09,2.01Z"/>
    <polygon class="cls-2" points="7.66 40.12 6.81 70.69 24.07 95.18 53.47 105.24 82.09 96.84 100.56 72.39 101.23 41.75 83.6 17.13 54.67 7.08 25.95 15.6 7.66 40.12"/>
  </g>
</svg>