<?xml version="1.0" encoding="UTF-8"?>
<svg id="Layer_2" data-name="Layer 2" xmlns="http://www.w3.org/2000/svg" viewBox="0 0 199.57 191.75">
  <defs>
    <style>
      .cls-1 {
        fill: #020202;
      }

      .cls-2 {
        fill: #c95959;
      }

      .cls-3 {
        fill: #e08380;
      }

      .cls-4 {
        fill: #f7c442;
        stroke: #0a0a0a;
        stroke-linecap: round;
        stroke-linejoin: round;
        stroke-width: 4px;
      }
    </style>
  </defs>
  <g id="Layer_1-2" data-name="Layer 1">
    <g id="_2DXTTK.tif" data-name="2DXTTK.tif">
      <path class="cls-4" d="M173.27,13.46c3.22,12.86,11.24,20.79,24.3,23.93-16.12,6.38-16.97,7.23-24.44,24.31-3.18-12.95-11.03-20.91-24.6-24.2,13.62-3.31,21.49-11.27,24.74-24.04Z"/>
    </g>
    <path class="cls-1" d="M190.68,81.69c2.95,19.72-.21,39.52-9.15,57.28-4.84,9.56-11.14,18.15-18.74,25.54-14.46,14.13-32.69,23.18-52.72,26.18C57.79,198.52,8.89,162.35,1.06,110.08-6.76,57.8,29.4,8.9,81.68,1.08c20.85-3.12,41.64,.57,60.11,10.67,2.76,1.51,3.78,4.98,2.27,7.74-1.51,2.76-4.97,3.78-7.74,2.27-16.27-8.9-34.58-12.15-52.95-9.4C37.31,19.25,5.45,62.33,12.34,108.39c6.9,46.06,49.98,77.92,96.03,71.02,17.64-2.64,33.7-10.62,46.45-23.07,6.7-6.52,12.26-14.09,16.52-22.51,7.87-15.63,10.66-33.08,8.06-50.45-.47-3.11,1.68-6.02,4.79-6.48,3.11-.47,6.02,1.68,6.48,4.79Z"/>
    <g>
      <path class="cls-3" d="M164.92,84.52c-.12-2.65-1.85-4.14-4.43-4.52-2.01-.28-4.03-.57-6.04-.59-2.25-.05-2.82-1.42-3.84-3.15-3.01-5.21-2.46-9.52,1.63-13.97,2.56-2.79,2.01-4.9-.78-7.72-4.48-4.5-8.97-9-13.47-13.47-2.94-2.91-4.59-3.05-8-.76-.76,.52-1.59,.95-2.25,1.59-2.6,2.56-5.09,2.27-8.6,1.21-5.23-1.59-6.77-4.55-7.01-9.47-.21-4.78-2.01-6.18-6.91-6.25-4.81-.09-9.59-.05-14.37-.05-8.45,.02-9.05,.36-10.32,8.64-.52,3.39-2.04,4.97-5.11,6.54-4.62,2.3-8.17,2.08-11.79-1.47-1.28-1.25-2.87-2.37-4.9-2.27-1.37,0-2.51,.64-3.43,1.56-4.97,4.93-9.94,9.85-14.82,14.85-2.01,2.06-2.04,4.43-.4,6.8,1.21,1.73,2.37,3.53,3.67,5.19,.95,1.25,.78,2.3,.4,3.79-1.63,6.42-5.07,10.28-12.19,10.3-2.27,0-3.67,1.47-4.14,3.46-.17,.52-.24,1.09-.24,1.68-.09,6.72-.12,13.45,.02,20.17,.07,3.17,1.52,4.64,4.59,5.33,2.08,.45,4.14,.95,6.25,1.18,1.82,.19,2.42,1.33,3.24,2.79,3.27,5.64,3.13,10.58-1.68,15.41-1.89,1.89-1.47,4.52,.47,6.49,4.9,5,9.85,9.94,14.85,14.85,1.97,1.92,4.24,2.04,6.56,.57,1.09-.69,2.23-1.35,3.15-2.23,2.58-2.42,5.16-3.13,8.31-.97,1.18,.83,2.7,1.16,4.12,1.56,1.47,.43,2.32,1.21,2.53,2.84,.31,2.27,.81,4.52,1.28,6.77,.62,2.82,2.46,4.33,5.28,4.36,6.72,.07,13.45,.09,20.17-.02,3.1-.05,4.64-1.54,5.33-4.62,.45-2.06,.92-4.14,1.14-6.23,.19-1.85,1.3-2.44,2.72-3.34,5.56-3.43,10.35-3.13,15.15,1.56,2.3,2.23,4.81,1.75,7.13-.52,4.81-4.71,9.57-9.45,14.28-14.25,2.32-2.37,2.82-4.81,.54-7.13-4.85-4.97-4.97-10.11-1.87-15.84,.07-.17,.14-.33,.17-.52,.12-.52,.31-.92,.59-1.23,.4-.45,.95-.69,1.68-.8,2.27-.36,4.52-.81,6.8-1.26,2.46-.5,4.36-1.78,4.52-4.48,.47-7.46,.43-14.92,.02-22.35Zm-68.22-7.41c10.73,.02,19.3,8.67,19.27,19.51-.02,10.7-8.6,19.23-19.35,19.2-10.89,0-19.39-8.48-19.37-19.35,0-10.82,8.62-19.39,19.44-19.37Z"/>
      <path class="cls-2" d="M152.46,138.13c-4.71,4.81-9.47,9.54-14.28,14.25-2.32,2.27-4.83,2.75-7.13,.52-4.81-4.69-9.59-5-15.15-1.56-1.42,.9-2.53,1.49-2.72,3.34-.21,2.08-.69,4.17-1.14,6.23-.69,3.08-2.23,4.57-5.33,4.62-6.72,.12-13.45,.09-20.17,.02-2.82-.02-4.66-1.54-5.28-4.36-.47-2.25-.97-4.5-1.28-6.77-.21-1.63-1.07-2.42-2.53-2.84-1.42-.4-2.94-.73-4.12-1.56-3.15-2.15-5.73-1.44-8.31,.97-.92,.88-2.06,1.54-3.15,2.23-2.32,1.47-4.59,1.35-6.56-.57-5-4.9-9.94-9.85-14.85-14.85-1.94-1.97-2.37-4.59-.47-6.49,4.81-4.83,4.95-9.78,1.68-15.41-.83-1.47-1.42-2.6-3.24-2.79-2.11-.24-4.17-.73-6.25-1.18-3.08-.69-4.52-2.15-4.59-5.33-.14-6.72-.12-13.45-.02-20.17,0-.59,.07-1.16,.24-1.68,2.6,.19,5.23,.36,7.77-.19,9.28-1.92,19.37-2.51,27.51,3.22,6.2,4.36,9.76,11.46,13.97,17.76,4.19,6.3,10.13,12.48,17.69,12.93,9.31,.57,16.62-7.48,25.15-11.22,10.13-4.48,22.8-2.37,30.95,5.14,.38,.33,.73,.69,1.07,1.04-.28,.31-.47,.71-.59,1.23-.02,.19-.09,.36-.17,.52-3.1,5.73-2.98,10.87,1.87,15.84,2.27,2.32,1.78,4.76-.54,7.13Z"/>
      <g id="bFspdn.tif">
        <g>
          <path d="M164.92,84.52c-.12-2.65-1.85-4.14-4.43-4.52-2.01-.28-4.03-.57-6.04-.59-2.25-.05-2.82-1.42-3.84-3.15-3.01-5.21-2.46-9.52,1.63-13.97,2.56-2.79,2.01-4.9-.78-7.72-4.48-4.5-8.97-9-13.47-13.47-2.94-2.91-4.59-3.05-8-.76-.76,.52-1.59,.95-2.25,1.59-2.6,2.56-5.09,2.27-8.6,1.21-5.23-1.59-6.77-4.55-7.01-9.47-.21-4.78-2.01-6.18-6.91-6.25-4.81-.09-9.59-.05-14.37-.05-8.45,.02-9.05,.36-10.32,8.64-.52,3.39-2.04,4.97-5.11,6.54-4.62,2.3-8.17,2.08-11.79-1.47-1.28-1.25-2.87-2.37-4.9-2.27-1.37,0-2.51,.64-3.43,1.56-4.97,4.93-9.94,9.85-14.82,14.85-2.01,2.06-2.04,4.43-.4,6.8,1.21,1.73,2.37,3.53,3.67,5.19,.95,1.25,.78,2.3,.4,3.79-1.63,6.42-5.07,10.28-12.19,10.3-2.89,0-4.33,2.34-4.38,5.14-.09,6.72-.12,13.45,.02,20.17,.07,3.17,1.52,4.64,4.59,5.33,2.08,.45,4.14,.95,6.25,1.18,1.82,.19,2.42,1.33,3.24,2.79,3.27,5.64,3.13,10.58-1.68,15.41-1.89,1.89-1.47,4.52,.47,6.49,4.9,5,9.85,9.94,14.85,14.85,1.97,1.92,4.24,2.04,6.56,.57,1.09-.69,2.23-1.35,3.15-2.23,2.58-2.42,5.16-3.13,8.31-.97,1.18,.83,2.7,1.16,4.12,1.56,1.47,.43,2.32,1.21,2.53,2.84,.31,2.27,.81,4.52,1.28,6.77,.62,2.82,2.46,4.33,5.28,4.36,6.72,.07,13.45,.09,20.17-.02,3.1-.05,4.64-1.54,5.33-4.62,.45-2.06,.92-4.14,1.14-6.23,.19-1.85,1.3-2.44,2.72-3.34,5.56-3.43,10.35-3.13,15.15,1.56,2.3,2.23,4.81,1.75,7.13-.52,4.81-4.71,9.57-9.45,14.28-14.25,2.32-2.37,2.82-4.81,.54-7.13-4.85-4.97-4.97-10.11-1.87-15.84,.07-.17,.14-.33,.17-.52,.26-1.23,1.02-1.85,2.27-2.04,2.27-.36,4.52-.81,6.8-1.26,2.46-.5,4.36-1.78,4.52-4.48,.47-7.46,.43-14.92,.02-22.35Zm-9.35,11.15c0,6.96,.02,7.08-6.94,8.22-3.27,.54-5.07,2.15-5.73,5.37-.88,4.17-2.27,8.17-4.14,11.98-1.18,2.44-.97,4.55,.66,6.68,1.33,1.75,2.53,3.6,3.62,5.19,.12,1.07-.45,1.49-.88,1.94-2.34,2.34-4.71,4.66-7.03,7.03-.92,.99-1.82,1.23-2.82,.21-4.97-5.04-10.18-5.16-16.01-1.33-2.08,1.37-4.76,1.94-7.22,2.65-2.51,.73-3.86,2.23-4.36,4.78-1.47,7.58-1.52,7.58-9.09,7.58-5.64,0-5.85,.05-6.65-5.45-.62-4.31-2.53-6.75-6.99-7.53-3.53-.62-6.84-2.18-9.9-4.12-2.32-1.49-4.38-1.25-6.65,.24-2.04,1.33-3.88,4.12-6.18,3.55-2.01-.47-3.55-3.01-5.26-4.69-4.29-4.24-4.4-4.36-.81-9.12,2.34-3.08,2.58-5.82,.4-9.05-1.97-2.94-3.05-6.3-3.79-9.73-.69-3.29-2.44-5.07-5.87-5.61-6.89-1.11-6.87-1.23-6.87-8.33,0-6.23-.02-6.35,6.23-7.41,3.74-.64,5.94-2.34,6.63-6.25,.66-3.72,2.32-7.17,4.26-10.42,1.49-2.46,1.28-4.64-.31-6.94-1.33-1.94-3.95-3.76-3.53-5.94,.4-1.89,2.89-3.41,4.5-5.04,4.48-4.52,4.57-4.62,9.73-.81,2.72,2.01,5.26,2.18,8.17,.62,3.74-1.99,7.65-3.67,11.77-4.71,2.2-.57,3.41-2.06,3.86-4.24,.4-1.99,.88-3.95,1.16-5.97,.21-1.63,1.09-2.15,2.6-2.11,2.96,.05,5.9,.05,8.86-.02,1.52-.05,2.2,.69,2.39,2.06,.28,1.82,.57,3.62,.78,5.47,.31,2.56,1.61,4.26,4.17,4.88,4.5,1.09,8.78,2.75,12.76,5.11,1.82,1.09,3.69,.99,5.49-.17,.62-.4,1.21-.83,1.82-1.25,4.85-3.41,4.88-3.43,9.12,.9,1.73,1.75,4.57,3.17,4.78,5.45,.24,2.15-2.32,3.98-3.67,5.94-1.42,2.11-1.73,4.17-.38,6.44,2.23,3.76,3.74,7.79,4.81,12,.83,3.32,2.15,4.26,5.68,4.59q6.82,.59,6.8,7.34Z"/>
          <path d="M96.63,70.07c-14.37-.02-26.38,11.96-26.42,26.31-.05,14.47,11.93,26.5,26.4,26.5s26.38-11.91,26.43-26.28c.05-14.44-11.96-26.52-26.4-26.52Zm0,45.75c-10.89,0-19.39-8.48-19.37-19.35,0-10.82,8.62-19.39,19.44-19.37,10.73,.02,19.3,8.67,19.27,19.51-.02,10.7-8.6,19.23-19.35,19.2Z"/>
        </g>
      </g>
    </g>
  </g>
</svg>