<?xml version="1.0" encoding="UTF-8"?>
<svg id="Layer_2" data-name="Layer 2" xmlns="http://www.w3.org/2000/svg" viewBox="0 0 167.62 168.24">
  <g id="Layer_1-2" data-name="Layer 1">
    <path d="M109.04,83.71c0,.75-.38,1.27-1.3,1.61-1.84,.67-3.62,1.45-5.36,2.35-3.71,1.93-7.01,4.41-9.81,7.52-2.97,3.28-5.19,7.04-6.81,11.14-.28,.71-.53,1.44-.82,2.15-.28,.68-.84,1.04-1.56,1.06-.74,.03-1.34-.31-1.66-.98-.61-1.25-1.15-2.53-1.74-3.79-1.54-3.25-3.13-6.47-5.35-9.33-1.64-2.12-3.61-3.86-5.88-5.27-3-1.86-6.23-3.26-9.49-4.6-.33-.13-.67-.25-.94-.48-1.01-.85-.83-2.43,.39-2.98,.79-.36,1.63-.62,2.44-.95,2.83-1.16,5.5-2.59,8-4.37,3.14-2.24,5.8-4.94,8.02-8.08,1.93-2.73,3.43-5.69,4.61-8.82,.46-1.23,1.67-1.64,2.73-.97,.39,.24,.58,.62,.73,1.03,1.34,3.57,3.12,6.9,5.47,9.91,2.74,3.52,6.03,6.41,9.89,8.65,2.17,1.26,4.41,2.35,6.78,3.18,.26,.09,.53,.2,.77,.33,.62,.32,.93,.84,.91,1.68Z"/>
    <g id="bFspdn.tif">
      <g>
        <path d="M38.01,13.94c2.46-.13,4.4,1.23,5.96,2.75,4.42,4.33,8.74,4.59,14.34,1.78,3.75-1.88,5.6-3.81,6.23-7.93C66.11,.45,66.81,.04,77.1,.02c5.83-.01,11.66-.06,17.48,.03,5.98,.09,8.16,1.8,8.43,7.62,.28,5.98,2.17,9.59,8.51,11.52,4.28,1.31,7.29,1.64,10.47-1.47,.79-.77,1.81-1.31,2.74-1.94,4.15-2.8,6.15-2.63,9.72,.92,5.49,5.45,10.96,10.92,16.41,16.4,3.4,3.42,4.07,6,.94,9.4-4.98,5.42-5.66,10.65-1.98,17.01,1.21,2.1,1.92,3.77,4.65,3.81,2.45,.04,4.91,.4,7.34,.74,3.15,.45,5.25,2.27,5.41,5.49,.47,9.06,.53,18.14-.04,27.2-.21,3.28-2.5,4.85-5.52,5.46-2.74,.55-5.49,1.09-8.26,1.52-1.53,.24-2.45,.97-2.76,2.48-.04,.22-.12,.44-.23,.63-3.76,6.96-3.62,13.24,2.29,19.27,2.76,2.82,2.15,5.8-.67,8.68-5.73,5.84-11.51,11.63-17.36,17.35-2.83,2.77-5.88,3.35-8.68,.62-5.85-5.69-11.68-6.06-18.44-1.89-1.75,1.08-3.08,1.82-3.31,4.05-.26,2.55-.85,5.08-1.4,7.59-.82,3.75-2.68,5.55-6.47,5.62-8.18,.14-16.36,.1-24.54,.02-3.45-.04-5.68-1.87-6.42-5.3-.59-2.73-1.2-5.47-1.57-8.24-.26-1.99-1.29-2.93-3.09-3.46-1.72-.5-3.58-.91-5.01-1.89-3.82-2.62-6.98-1.76-10.1,1.17-1.13,1.06-2.52,1.86-3.84,2.71-2.82,1.8-5.6,1.65-7.98-.68-6.08-5.96-12.1-11.99-18.07-18.07-2.35-2.4-2.86-5.59-.57-7.9,5.83-5.87,6.01-11.89,2.06-18.77-1.03-1.79-1.73-3.15-3.97-3.4-2.55-.29-5.07-.89-7.58-1.44-3.77-.83-5.53-2.62-5.6-6.48-.16-8.18-.14-16.36-.02-24.54,.05-3.39,1.81-6.24,5.33-6.25,8.67-.03,12.84-4.72,14.83-12.54,.46-1.81,.67-3.09-.49-4.59-1.57-2.04-2.98-4.2-4.45-6.32-2-2.87-1.97-5.75,.47-8.26,5.95-6.09,12-12.09,18.04-18.09,1.13-1.12,2.51-1.89,4.19-1.88Zm102.6,114.76c-1.34-1.92-2.79-4.19-4.42-6.31-1.99-2.59-2.26-5.17-.81-8.14,2.27-4.64,3.98-9.52,5.03-14.58,.81-3.9,3-5.88,7-6.54,8.46-1.39,8.43-1.53,8.44-10.01q.01-8.19-8.28-8.93c-4.28-.38-5.9-1.56-6.91-5.57-1.3-5.15-3.15-10.05-5.86-14.61-1.64-2.76-1.27-5.27,.47-7.84,1.63-2.39,4.73-4.61,4.47-7.23-.28-2.78-3.74-4.49-5.83-6.64-5.15-5.28-5.19-5.24-11.1-1.09-.73,.51-1.47,1.02-2.22,1.51-2.18,1.42-4.45,1.54-6.67,.22-4.86-2.9-10.06-4.89-15.54-6.23-3.1-.76-4.69-2.81-5.06-5.95-.26-2.22-.62-4.43-.95-6.65-.25-1.66-1.08-2.55-2.92-2.5-3.58,.09-7.17,.07-10.76,.01-1.86-.03-2.92,.6-3.2,2.59-.34,2.44-.9,4.84-1.39,7.26-.54,2.64-2.01,4.47-4.7,5.15-5.03,1.27-9.76,3.32-14.31,5.75-3.56,1.9-6.63,1.68-9.96-.77-6.27-4.63-6.38-4.51-11.84,.99-1.97,1.98-4.98,3.82-5.46,6.14-.54,2.64,2.66,4.86,4.28,7.22,1.94,2.8,2.18,5.46,.39,8.44-2.37,3.95-4.4,8.15-5.2,12.7-.84,4.73-3.52,6.81-8.06,7.58-7.6,1.3-7.58,1.45-7.58,9.03,0,8.63-.03,8.79,8.35,10.14,4.18,.67,6.31,2.84,7.15,6.82,.88,4.19,2.22,8.28,4.61,11.84,2.63,3.93,2.37,7.26-.48,11.02-4.39,5.79-4.24,5.93,.97,11.09,2.06,2.04,3.94,5.13,6.38,5.72,2.8,.68,5.06-2.72,7.53-4.34,2.76-1.81,5.27-2.09,8.11-.29,3.71,2.37,7.75,4.28,12.04,5.03,5.42,.95,7.74,3.9,8.51,9.15,.97,6.67,1.23,6.63,8.09,6.63,9.22,0,9.27,0,11.06-9.23,.6-3.1,2.25-4.92,5.29-5.8,3-.87,6.26-1.55,8.8-3.23,7.09-4.68,13.44-4.53,19.48,1.62,1.2,1.22,2.29,.93,3.43-.25,2.8-2.9,5.7-5.72,8.54-8.58,.54-.54,1.21-1.05,1.08-2.35Z"/>
        <path d="M84.11,127.95c-24.03,0-43.91-19.96-43.83-43.99,.08-23.84,20.02-43.7,43.85-43.69,23.98,.01,43.92,20.04,43.84,44.04-.08,23.84-19.98,43.64-43.86,43.64Zm.04-11.7c17.84,.02,32.09-14.13,32.11-31.89,.02-18.01-14.18-32.39-32.01-32.41-17.96-.03-32.25,14.21-32.27,32.15-.02,18.05,14.07,32.13,32.18,32.15Z"/>
      </g>
    </g>
  </g>
</svg>