<?xml version="1.0" encoding="UTF-8"?>
<svg id="Layer_2" data-name="Layer 2" xmlns="http://www.w3.org/2000/svg" viewBox="0 0 162.76 140.25">
  <defs>
    <style>
      .cls-1 {
        fill: none;
        stroke: #000;
        stroke-linecap: round;
        stroke-linejoin: round;
        stroke-width: 9px;
      }
    </style>
  </defs>
  <g id="Layer_1-2" data-name="Layer 1">
    <path d="M50.47,13.16c0,.39-.2,.66-.68,.84-.96,.35-1.9,.76-2.81,1.23-1.94,1.01-3.67,2.31-5.14,3.94-1.56,1.72-2.72,3.69-3.57,5.84-.15,.37-.28,.76-.43,1.13-.15,.36-.44,.54-.82,.56-.39,.01-.7-.16-.87-.51-.32-.66-.6-1.33-.91-1.98-.81-1.7-1.64-3.39-2.8-4.89-.86-1.11-1.89-2.02-3.08-2.76-1.57-.98-3.27-1.71-4.97-2.41-.17-.07-.35-.13-.49-.25-.53-.45-.43-1.27,.2-1.56,.41-.19,.85-.33,1.28-.5,1.48-.61,2.88-1.36,4.19-2.29,1.65-1.17,3.04-2.59,4.2-4.23,1.01-1.43,1.8-2.98,2.41-4.62,.24-.64,.87-.86,1.43-.51,.2,.13,.3,.33,.38,.54,.7,1.87,1.64,3.61,2.86,5.19,1.43,1.84,3.16,3.36,5.18,4.53,1.13,.66,2.31,1.23,3.55,1.67,.14,.05,.28,.11,.41,.17,.33,.17,.49,.44,.48,.88Z"/>
    <path class="cls-1" d="M6.93,135.75H140.82L4.5,64.39"/>
    <rect class="cls-1" x="45.26" y="20.73" width="80.7" height="80.7" transform="translate(38.08 -32.73) rotate(27.63)"/>
    <line class="cls-1" x1="85.61" y1="61.08" x2="149.29" y2="95.67"/>
    <polygon points="145.84 78.38 162.76 102.45 133.48 102 145.84 78.38"/>
  </g>
</svg>