<?xml version="1.0" encoding="UTF-8"?>
<svg id="Layer_2" data-name="Layer 2" xmlns="http://www.w3.org/2000/svg" viewBox="0 0 167 159.26">
  <defs>
    <style>
      .cls-1 {
        fill: #f4b59d;
      }

      .cls-2 {
        fill: #fff;
      }

      .cls-3 {
        fill: #c6bee7;
      }

      .cls-4 {
        stroke: #d5d5d5;
        stroke-dasharray: 0 15;
        stroke-linecap: round;
        stroke-linejoin: round;
        stroke-width: 3px;
      }

      .cls-4, .cls-5 {
        fill: none;
      }

      .cls-5, .cls-6 {
        stroke: #050505;
        stroke-miterlimit: 10;
        stroke-width: 3.55px;
      }
    </style>
  </defs>
  <g id="Layer_1-2" data-name="Layer 1">
    <circle class="cls-4" cx="87.37" cy="79.63" r="78.13"/>
    <g>
      <path class="cls-6" d="M88.25,56.94c0-4.41,0-8.81,0-13.22"/>
      <ellipse class="cls-5" cx="88.47" cy="38.19" rx="3.97" ry="4.1"/>
      <path d="M123.78,72.9c.56,.08,.8,.14,1.04,.15,7.48,.27,9.41,2.27,9.41,9.8,0,2.52-.09,5.05,.02,7.56,.22,4.96-2.93,9.94-9.08,9.09-.4-.05-.81,.04-1.62,.08,0,1.51-.07,3.01,.01,4.51,.37,7.25-6.02,13.08-13.06,12.98-15.29-.22-30.58-.2-45.87,0-6.77,.08-13.15-5.46-12.97-12.57,.04-1.61,0-3.22,0-5.07-1.17,0-2.05,0-2.93,0-4.35,.03-6.93-2.36-7.49-6.53-.6-4.47-.4-9.11,0-13.63,.35-4.08,3.2-6.14,7.42-6.21,.96-.01,1.93,0,2.91,0,.24-2.71,.25-5.23,.72-7.67,.87-4.56,5.22-9.3,10.76-9.3,16.43,.01,32.87-.06,49.3,.04,5.74,.03,10.43,4.55,11.1,10.35,.24,2.08,.22,4.19,.32,6.41Zm-36.02,37.88c7.69,0,15.37,0,23.06,0,4.19,0,7.07-2.37,7.13-6.53,.16-11.95,.14-23.91,.02-35.87-.04-3.65-2.26-6-5.47-6.01-16.51-.06-33.03-.05-49.54,0-2.4,0-4.35,1.16-4.87,3.64-.45,2.11-.66,4.32-.67,6.48-.07,10.41-.06,20.82-.02,31.23,.02,4.52,2.61,7.06,7.06,7.07,7.77,0,15.53,0,23.3,0Zm-36.24-31.15c-3.61-.71-4.67-.4-4.72,1.56-.1,3.41-.12,6.82,.06,10.22,.03,.62,1.03,1.46,1.76,1.72,.84,.3,1.87,.07,2.91,.07v-13.56Zm72.22-.3v13.87c1,0,1.81-.03,2.62,0,1.42,.06,2.12-.53,2.11-2-.04-3.34,.08-6.68-.09-10-.03-.65-.97-1.53-1.69-1.8-.84-.31-1.9-.07-2.95-.07Z"/>
      <path class="cls-2" d="M87.76,110.79c-7.77,0-15.53,0-23.3,0-4.45,0-7.04-2.55-7.06-7.07-.04-10.41-.05-20.82,.02-31.23,.01-2.16,.22-4.37,.67-6.48,.53-2.47,2.47-3.63,4.87-3.64,16.51-.05,33.03-.06,49.54,0,3.21,.01,5.43,2.36,5.47,6.01,.12,11.95,.14,23.91-.02,35.87-.06,4.17-2.94,6.53-7.13,6.53-7.69,0-15.37,0-23.06,0Zm11.89-20.52c5.34,.04,9.31-4.13,9.44-9.7,.13-5.58-5.07-10.29-9.26-10.36-4.28-.07-9.57,4.91-9.42,10.19,.16,5.62,3.89,9.83,9.24,9.87Zm-14.79-9.51c.48-5.5-4.97-10.36-9.16-10.42-4.2-.06-9.5,4.64-9.48,10.21,.02,5.51,4.02,9.82,9.38,9.81,5.28,0,9.21-4.08,9.26-9.6Zm2.92,21.6c1.96,0,3.92,.04,5.88-.01,1.8-.05,3.12-.98,3.04-2.79-.07-1.74-.82-3.38-3.04-3.4-4-.04-8.01-.04-12.01,0-2.21,.02-2.97,1.66-3.05,3.4-.08,1.81,1.24,2.75,3.04,2.8,2.04,.05,4.08,.01,6.13,.01Z"/>
      <path class="cls-2" d="M51.52,79.64v13.56c-1.04,0-2.07,.23-2.91-.07-.73-.26-1.73-1.09-1.76-1.72-.17-3.4-.16-6.81-.06-10.22,.06-1.95,1.12-2.27,4.72-1.56Z"/>
      <path class="cls-2" d="M123.73,79.33c1.06,0,2.11-.24,2.95,.07,.71,.26,1.65,1.15,1.69,1.8,.17,3.33,.06,6.67,.09,10,.02,1.47-.69,2.06-2.11,2-.81-.03-1.63,0-2.62,0v-13.87Z"/>
      <path d="M99.64,90.27c-5.35-.04-9.08-4.25-9.24-9.87-.15-5.28,5.14-10.26,9.42-10.19,4.2,.07,9.39,4.78,9.26,10.36-.13,5.56-4.1,9.73-9.44,9.7Zm.06-13.77c-2.12,0-3.63,1.67-3.63,4.03,0,1.77,2.04,3.97,3.67,3.98,1.67,0,3.62-2.16,3.6-3.99-.03-2.36-1.53-4.02-3.65-4.01Z"/>
      <path d="M84.85,80.76c-.05,5.52-3.97,9.59-9.26,9.6-5.35,0-9.35-4.3-9.38-9.81-.02-5.57,5.28-10.27,9.48-10.21,4.18,.06,9.64,4.92,9.16,10.42Zm-5.62-.24c-.02-2.33-1.55-4.01-3.65-4.02-2.13,0-3.6,1.64-3.61,4.01,0,1.8,1.98,3.99,3.61,3.98,1.63,0,3.66-2.23,3.65-3.98Z"/>
      <path d="M87.77,102.36c-2.04,0-4.09,.04-6.13-.01-1.8-.05-3.12-.99-3.04-2.8,.08-1.73,.84-3.38,3.05-3.4,4-.04,8.01-.04,12.01,0,2.21,.02,2.96,1.67,3.04,3.4,.08,1.82-1.25,2.74-3.04,2.79-1.96,.05-3.92,.01-5.88,.01Z"/>
      <path class="cls-2" d="M99.71,76.5c2.12,0,3.62,1.65,3.65,4.01,.02,1.83-1.94,4-3.6,3.99-1.63,0-3.67-2.21-3.67-3.98,0-2.35,1.5-4.03,3.63-4.03Z"/>
      <path class="cls-2" d="M79.22,80.52c.01,1.76-2.02,3.98-3.65,3.98-1.64,0-3.62-2.18-3.61-3.98,0-2.38,1.49-4.02,3.61-4.01,2.11,0,3.63,1.68,3.65,4.02Z"/>
    </g>
    <path class="cls-1" d="M141.33,144.43v-32.79c0-1.62-1.42-2.93-3.17-2.93h-26.75l-16.51-7.5,3.55,7.5h-10.37c-1.75,0-3.17,1.31-3.17,2.93v32.79c0,1.61,1.42,2.93,3.17,2.93h50.08c1.75,0,3.17-1.31,3.17-2.93Z"/>
    <path class="cls-3" d="M19.02,64.85c-.26-.03-.52-.05-.79-.07-6.39-.56-13.83-4.09-16.72-10.12-2.08-4.33-1.9-9.51-.23-14.02,1.02-2.74,2.55-5.26,4.36-7.57,1.1-1.4,2.56-2.52,3.68-3.92,2.26-2.82,1.08-6.81,2.64-9.95,1.6-3.21,4.3-5.84,7.46-7.5,4.3-2.26,9.36-2.81,14.17-2.13,3.17,.45,6.26,1.42,9.45,1.73,4.82,.46,9.01-2.49,13.75-1.88,2.29,.3,4.71,1.98,6.4,3.49,2.81,2.52,4.72,6.02,5.33,9.74,.28,1.72,.29,3.5,.86,5.16,1.06,3.14,4.86,4.2,7.15,6.36,2.24,2.11,4.02,4.72,5.11,7.6,2.05,5.41,1.31,11.52-1.96,16.28-2.28,3.33-6.45,4.95-10.27,5.71-4.46,.89-8.8-.4-13.12,1.21-3.68,1.38-6.75,3.99-10.16,5.96s-7.61,3.27-11.25,1.76c-2.43-1.01-4.19-3.12-6.31-4.68-2.91-2.15-6.12-2.82-9.58-3.18Z"/>
    <circle class="cls-3" cx="54.87" cy="89.33" r="5.46"/>
    <circle class="cls-3" cx="61.64" cy="98.58" r="4.83"/>
  </g>
</svg>