<?xml version="1.0" standalone="no"?>
<!DOCTYPE svg PUBLIC "-//W3C//DTD SVG 20010904//EN"
 "http://www.w3.org/TR/2001/REC-SVG-20010904/DTD/svg10.dtd">
<svg version="1.0" xmlns="http://www.w3.org/2000/svg"
 width="640.000000pt" height="681.000000pt" viewBox="0 0 640.000000 681.000000"
 preserveAspectRatio="xMidYMid meet">

<g transform="translate(0.000000,681.000000) scale(0.100000,-0.100000)"
fill="#000000" stroke="none">
<path d="M1144 5302 c-35 -5 -66 -46 -66 -87 0 -28 8 -45 31 -69 l30 -31 -15
-239 c-8 -132 -16 -241 -17 -241 -111 -72 -147 -116 -177 -213 -22 -69 -26
-114 -8 -72 74 166 128 220 223 220 199 0 309 -299 200 -545 -49 -110 -121
-161 -217 -152 -74 7 -115 30 -157 92 -42 62 -32 21 11 -48 35 -55 72 -86 142
-116 42 -18 56 -20 107 -12 78 13 118 33 174 88 137 136 176 402 87 593 -47
101 -162 190 -244 190 -14 0 -18 8 -18 39 0 22 -6 97 -14 168 -26 226 -25 237
9 273 67 69 13 178 -81 162z"/>
<path d="M1410 3524 c0 -3 25 -32 56 -64 34 -36 54 -65 52 -77 -2 -11 -27 -27
-67 -44 -35 -15 -59 -29 -53 -33 6 -3 18 -31 26 -60 42 -145 259 -283 482
-308 78 -8 102 -7 151 7 126 36 162 80 164 195 2 119 1 119 109 161 l95 37
-110 -5 c-60 -3 -164 0 -230 6 -194 19 -483 97 -618 166 -52 27 -57 28 -57 19z"/>
<path d="M896 3115 c-64 -24 -130 -72 -175 -124 -52 -62 -53 -74 -1 -28 82 75
142 90 237 62 83 -25 136 -73 183 -168 60 -121 72 -232 50 -445 -20 -194 -29
-299 -36 -413 l-6 -117 -76 -4 c-125 -8 -219 -66 -294 -182 -37 -58 -40 -60
-83 -61 -35 0 -51 -7 -72 -27 l-27 -27 17 -53 c36 -114 112 -190 223 -224 74
-22 79 -18 40 28 -56 65 -69 135 -42 233 20 75 39 107 101 163 85 78 176 97
343 72 37 -6 157 -21 267 -35 274 -35 276 -35 282 -52 3 -8 -6 -26 -20 -41
-14 -15 -38 -53 -53 -86 -23 -51 -26 -68 -22 -130 5 -67 27 -132 52 -148 16
-11 114 -10 121 1 3 5 -4 12 -15 16 -58 18 -96 132 -70 210 16 48 71 109 129
143 45 26 50 27 206 27 152 0 265 -15 265 -35 0 -4 -34 -29 -75 -55 -115 -71
-183 -130 -193 -168 -13 -46 -4 -95 19 -102 24 -8 42 3 35 22 -9 23 21 82 48
94 22 10 30 8 63 -17 60 -45 103 -95 129 -149 30 -62 30 -80 2 -99 -29 -20
-63 -20 -97 0 -24 14 -47 12 -336 -30 -459 -67 -464 -68 -470 -88 -8 -24 20
-85 42 -92 35 -10 401 -88 813 -172 228 -46 434 -89 457 -94 71 -17 122 -12
388 40 266 52 534 101 1070 195 520 91 494 84 539 153 13 20 83 210 155 422
71 212 180 531 241 709 60 178 110 336 110 352 0 17 -11 41 -28 60 -34 38 -42
38 -312 14 -254 -22 -973 -83 -1125 -95 -384 -30 -424 -36 -450 -60 -14 -13
-25 -28 -25 -34 0 -11 -140 -458 -145 -464 -2 -2 -29 11 -60 29 -47 27 -61 30
-76 21 -10 -7 -40 -12 -67 -12 -177 0 -309 -175 -262 -347 15 -55 38 -91 93
-146 l37 -37 -6 39 c-6 36 -3 44 24 71 51 51 121 38 148 -27 13 -31 13 -41 0
-88 -20 -66 -37 -82 -72 -66 -14 6 -28 11 -32 11 -13 -1 40 -40 54 -40 17 0
17 -23 0 -69 -14 -40 -29 -46 -142 -56 l-77 -8 7 47 c7 45 7 47 -13 37 -27
-15 -74 -14 -93 2 -9 6 -33 39 -54 71 -22 33 -43 64 -48 70 -5 7 -2 27 7 48
12 28 24 39 48 45 l32 9 -34 21 c-32 21 -35 21 -63 5 -16 -9 -34 -31 -40 -48
-7 -21 -16 -29 -26 -26 -8 3 6 -18 32 -47 84 -93 140 -238 107 -277 -20 -24
-57 -36 -78 -24 -10 5 -31 35 -46 66 -17 35 -56 85 -102 130 -40 40 -73 80
-73 88 0 35 26 69 65 86 l40 17 -29 26 c-34 32 -29 53 15 69 41 14 28 22 -58
38 -40 7 -73 17 -73 22 0 5 9 30 19 56 155 373 203 569 204 822 0 117 -4 161
-22 227 -11 45 -21 90 -21 100 0 10 -13 32 -29 49 -31 35 -120 104 -132 104
-5 0 6 -20 25 -44 26 -34 40 -70 61 -158 49 -202 45 -458 -9 -678 -22 -90
-112 -339 -152 -425 l-19 -40 -102 -2 c-115 -1 -167 -8 -202 -27 -21 -12 -30
-10 -70 10 -33 16 -102 32 -241 53 -107 16 -211 32 -230 36 -19 3 -73 10 -120
16 -47 6 -87 13 -90 16 -3 2 -3 82 -2 176 3 167 4 174 32 228 73 143 99 349
62 496 -41 160 -122 277 -229 328 -49 24 -146 29 -197 10z m3724 -982 c0 -25
-22 -143 -26 -143 -2 0 -13 6 -24 12 -16 10 -22 10 -34 -2 -7 -8 -63 -70 -124
-137 -88 -97 -111 -129 -114 -157 l-4 -36 21 20 c24 23 45 26 45 8 0 -16 -49
-250 -52 -253 -9 -7 -130 -21 -133 -15 -2 3 0 24 5 46 5 21 9 55 9 74 0 29 -2
32 -9 15 -6 -13 -7 -1 -3 35 7 67 13 76 14 24 1 -28 3 -32 6 -14 7 35 23 51
44 45 14 -5 19 -1 19 13 0 11 5 22 12 24 6 2 -5 14 -25 27 -20 12 -40 28 -44
35 -5 7 -23 22 -41 35 l-34 23 -36 -34 c-83 -78 -273 -228 -282 -223 -21 13
-8 43 33 76 23 18 97 82 165 141 67 60 128 108 134 108 7 0 38 -21 71 -47 l59
-46 70 74 c39 41 92 99 119 130 48 56 49 57 28 71 -21 13 -19 15 47 51 79 42
84 43 84 20z m-1410 -157 c19 -7 35 -20 34 -27 -1 -8 -19 -67 -40 -133 -31
-94 -45 -122 -67 -138 -27 -19 -29 -19 -64 -3 -48 23 -101 14 -129 -21 l-22
-27 -15 24 c-24 38 -29 84 -17 145 10 47 20 65 59 103 82 82 173 109 261 77z
m1355 -73 c-13 -75 -77 -400 -81 -414 -3 -12 -21 -19 -60 -24 -31 -4 -58 -4
-61 -1 -5 4 19 151 50 304 12 64 25 81 101 140 40 30 57 29 51 -5z m-391 -240
c-5 -42 -20 -117 -43 -217 -8 -32 -20 -38 -108 -50 l-53 -7 6 33 c12 70 46
244 50 260 4 13 19 18 67 21 34 2 68 4 74 5 9 1 11 -11 7 -45z m-217 -107 c-3
-8 -13 -50 -23 -94 -19 -89 -14 -85 -118 -98 -54 -6 -58 -5 -53 12 3 11 8 34
12 52 4 21 16 37 33 47 15 8 50 32 77 54 51 41 81 52 72 27z m-977 -416 c0 -6
-7 -27 -15 -47 l-15 -36 -113 6 c-116 7 -157 14 -157 27 0 12 29 20 153 40
137 22 147 23 147 10z m-348 -72 c44 -9 58 -16 56 -28 -2 -11 -30 -18 -115
-29 -95 -12 -121 -12 -184 0 -40 8 -74 19 -76 25 -4 11 143 40 216 43 25 0 71
-4 103 -11z m304 -63 c-18 -70 -23 -75 -73 -75 -44 0 -136 12 -205 26 -50 10
-33 32 30 39 31 4 98 13 147 20 50 7 94 13 99 14 4 1 5 -10 2 -24z"/>
</g>
</svg>
