<?xml version="1.0" encoding="UTF-8"?>
<svg id="Layer_2" data-name="Layer 2" xmlns="http://www.w3.org/2000/svg" viewBox="0 0 113.55 119.07">
  <defs>
    <style>
      .cls-1 {
        fill: #fff;
      }
    </style>
  </defs>
  <g id="Layer_1-2" data-name="Layer 1">
    <g>
      <path class="cls-1" d="M93.86,80.84v.03s0,0,0,0c-.21,3.3-1.35,6.59-2.99,9.47-2.66,4.67-6.55,8.5-10.38,12.26-3.39,3.31-6.82,6.66-10.91,9.05-4.09,2.4-8.98,3.77-13.61,2.8-5.14-1.08-9.25-4.8-13.09-8.38-3.43-3.2-6.85-6.39-10.28-9.59-.94-.87-1.88-1.75-2.82-2.63-4.13-3.85-8.27-7.71-12.41-11.57l-3.57-4.74c.95-.89,1.92-1.75,2.92-2.58,1.24-1.03,2.52-2.01,3.84-2.94,11.37-8.06,25.32-12.45,39.26-12.46,1.01,0,2.02,.02,3.04,.07-.76,2.08-1.53,4.17-2.29,6.25-.14,.36-.24,.73,.17,.97,.38,.21,.65-.05,.88-.31,.63-.72,1.25-1.45,1.88-2.16,1.28-1.46,2.56-2.92,3.84-4.39,2.34,.26,4.66,.66,6.95,1.19,7.39,1.7,15.2,5.41,18.28,12.17,.22,.49,.42,.99,.59,1.51,.64,1.93,.84,3.95,.71,5.97Z"/>
      <path d="M113.48,12.79c0-1.33-.03-1.33-1.66-1.3-6.92,.2-13.75-.05-20.48-.89-1.19,2.06-2.38,4.13-3.58,6.19,5.66,.66,11.38,.86,17.17,.7q1.48-.06,1.48,1.14c0,4.93,.12,9.85,0,14.77-.25,8.56-1.36,17.08-3.54,25.48-1.99,7.65-4.84,15.01-9.01,21.96v.03s0,0,0,0c-.1,.18-.21,.34-.32,.51-.38,.63-.78,1.26-1.19,1.88-.41,.63-.83,1.25-1.26,1.86-8.03,11.51-19.2,20.22-33.32,26.31-.62,.25-1.11,.28-1.73,0-9-3.85-16.86-8.83-23.44-14.95-.94-.87-1.85-1.76-2.74-2.68-1.91-1.94-3.67-3.97-5.3-6.09-3.13-4.07-5.71-8.34-7.84-12.75-2.34-4.82-4.15-9.82-5.54-14.95-1.79-6.52-2.86-13.11-3.39-19.75-.31-3.91-.49-7.88-.74-11.79h.31c0-3.45,0-6.86-.03-10.28,0-.58,.25-.77,.95-.74,6.9,.28,13.76-.06,20.53-1.04,9.63-1.42,18.8-3.94,26.96-8.62,.86-.49,1.38-.49,2.24-.03,3.65,2.22,7.62,3.88,11.8,5.19h.01c1.06-2.06,2.13-4.13,3.19-6.2-5.26-1.59-10.24-3.58-14.81-6.34-.99-.56-1.57-.56-2.56,0-9.32,5.35-19.81,8.21-30.8,9.84-7.79,1.17-15.6,1.48-23.48,1.23-.8-.03-1.08,.13-1.08,.84,.03,3.87,.03,7.81,.03,11.69h-.3c.24,4.52,.4,9.05,.8,13.54,.58,7.6,1.84,15.11,3.87,22.52,3.08,11.24,7.79,21.91,15.3,31.67,1.41,1.84,2.92,3.63,4.49,5.32,8.43,9.17,18.99,16.4,31.45,21.76,.71,.34,1.29,.31,2,0,16.12-6.96,28.9-16.93,38.07-30.04,6.52-9.35,10.73-19.44,13.44-29.97,2.5-9.63,3.79-19.35,4.06-29.17,.16-5.6,0-11.23,0-16.86Z"/>
      <path d="M100.93,23.13q0-1.05-1.29-1.02c-.32,.01-.64,.02-.96,.03,.11,.09,.21,.23,.28,.4,.29,.68-.03,1.21-.48,1.72-1.3,1.45-2.59,2.92-3.87,4.4-4.36,5.01-8.72,10.02-13.07,15.03-2.9,3.34-5.79,6.68-8.69,10.01-1.84,2.1-3.68,4.2-5.52,6.3-1.28,1.47-2.56,2.93-3.84,4.39-.63,.71-1.25,1.44-1.88,2.16-.23,.26-.5,.52-.88,.31-.41-.24-.31-.61-.17-.97,.76-2.08,1.53-4.17,2.29-6.25,.77-2.09,1.53-4.18,2.29-6.27,2.2-6.01,4.4-12.02,6.59-18.03,.33-.91,.32-.92-.67-.92h-9.9c-1.46,0-1.96-.87-1.29-2.18,2.49-4.83,4.98-9.66,7.47-14.49-3.32-1.13-6.51-2.5-9.46-4.26-.77-.46-1.23-.46-1.97,0h-.03c-7.26,4.16-15.42,6.41-24,7.67-6.07,.89-12.16,1.14-18.28,.92-.62,0-.83,.12-.83,.68v9.11h-.25c.19,3.5,.34,7.01,.62,10.52,.49,5.94,1.44,11.79,3.04,17.57,.53,1.88,1.11,3.75,1.76,5.6,.76,2.2,1.63,4.35,2.61,6.47,2,4.37,4.48,8.58,7.54,12.58,1.79,2.31,3.73,4.49,5.79,6.49,6.15,6.06,13.6,10.93,22.21,14.65,.59,.25,1.02,.22,1.57-.03,12.56-5.42,22.5-13.17,29.64-23.39,.67-.96,1.31-1.93,1.92-2.91,.22-.36,.44-.72,.65-1.07,.25-.4,.48-.8,.71-1.21,.28-.49,.55-.99,.81-1.49,.21-.38,.41-.76,.6-1.14s.38-.77,.57-1.15c.29-.57,.56-1.16,.82-1.75,.27-.58,.52-1.17,.77-1.76,.5-1.18,.97-2.37,1.39-3.58,.21-.58,.41-1.15,.6-1.73,.03-.06,.05-.12,.06-.18,.2-.57,.38-1.14,.55-1.72h0c.19-.62,.37-1.23,.54-1.84,.17-.62,.34-1.23,.5-1.85,1.94-7.48,2.95-15.05,3.17-22.68,.09-4.37,0-8.77-.03-13.14Z"/>
      <path d="M100.96,36.27c-.22,7.63-1.23,15.2-3.17,22.68-.16,.62-.33,1.23-.5,1.85-.17,.61-.35,1.22-.54,1.83h0c-.17,.59-.35,1.16-.55,1.73-.01,.06-.03,.12-.06,.18-.19,.58-.39,1.15-.6,1.73-.42,1.21-.89,2.4-1.39,3.58-.25,.59-.5,1.18-.77,1.76-.26,.59-.53,1.18-.82,1.75-.19,.38-.38,.77-.57,1.15s-.39,.76-.6,1.14c-.26,.5-.53,1-.81,1.49-.23,.41-.46,.81-.71,1.21-.21,.35-.43,.71-.65,1.07-.61,.98-1.25,1.95-1.92,2.91-7.14,10.22-17.08,17.97-29.64,23.39-.55,.25-.98,.28-1.57,.03-8.61-3.72-16.06-8.59-22.21-14.65,10.73-7.82,19.39-19.25,25.93-31.53,3.76-7.05,6.82-14.38,9.18-21.46,.4-1.22,.79-2.45,1.15-3.69h.92c.99,0,1,.01,.67,.92-2.19,6.01-4.39,12.02-6.59,18.03-.76,2.09-1.52,4.18-2.29,6.27-.76,2.08-1.53,4.17-2.29,6.25-.14,.36-.24,.73,.17,.97,.38,.21,.65-.05,.88-.31,.63-.72,1.25-1.45,1.88-2.16,1.28-1.46,2.56-2.92,3.84-4.39,1.84-2.1,3.68-4.2,5.52-6.3,2.9-3.33,5.79-6.67,8.69-10.01,4.35-5.01,8.71-10.02,13.07-15.03,1.28-1.48,2.57-2.95,3.87-4.4,.45-.51,.77-1.04,.48-1.72-.07-.17-.17-.31-.28-.4,.32-.01,.64-.02,.96-.03q1.29-.03,1.29,1.02c.03,4.37,.12,8.77,.03,13.14Z"/>
      <path d="M113.48,29.65c-.27,9.82-1.56,19.54-4.06,29.17-2.71,10.53-6.92,20.62-13.44,29.97-9.17,13.11-21.95,23.08-38.07,30.04-.71,.31-1.29,.34-2,0-12.46-5.36-23.02-12.59-31.45-21.76,1.67-1.18,3.54-2.18,5.31-3.21,.03-.02,.05-.03,.08-.05,.89,.92,1.8,1.81,2.74,2.68,6.58,6.12,14.44,11.1,23.44,14.95,.62,.28,1.11,.25,1.73,0,14.12-6.09,25.29-14.8,33.32-26.31,.99-1.41,1.92-2.84,2.78-4.29,4.17-6.95,7.02-14.31,9.01-21.96,2.18-8.4,3.29-16.92,3.54-25.48,.12-4.92,0-9.84,0-14.77q0-1.2-1.48-1.14c-5.79,.16-11.51-.04-17.17-.7,1.2-2.06,2.39-4.13,3.58-6.19,6.73,.84,13.56,1.09,20.48,.89,1.63-.03,1.66-.03,1.66,1.3,0,5.63,.16,11.26,0,16.86Z"/>
    </g>
  </g>
</svg>