<svg viewBox="0 0 155 182"
     xmlns="http://www.w3.org/2000/svg"
     xml:space="preserve"
     fill="#003452"
     style="fill-rule:evenodd;clip-rule:evenodd;stroke-linecap:round;stroke-linejoin:round;stroke-miterlimit:1.5">
  <path
        d="M153.112 33.279c8.882 75.604-25.431 120.03-67.037 143.781l-8.408 4.478C24.454 157.755-5.945 107.949.975 33.604L76.81 0l76.302 33.279ZM95.902 145.22H58.489c4.077 3.463 17.209 12.594 19.215 13.844 2.101-1.053 18.438-13.636 18.198-13.844Zm-1.668-22.46H59.593c-2.037 4.502-3.321 9.125-4.072 13.451h42.974c-.799-4.329-2.151-8.952-4.261-13.451Zm27.451-82.351c-.089.977-.188 1.992-.303 3.033-1.795 16.377-7.915 34.363-23.545 47.451 9.843 8.524 16.031 19.79 19.674 30.331 12.019-18.397 17.976-41.473 17.306-74.977l-13.132-5.838Zm-89.278.174-12.849 5.709c-.911 42.209 10.081 64.082 16.931 74.674 3.545-10.451 9.57-21.612 19.223-30.073-15.445-13.101-21.313-31.081-23.034-47.432-.101-.959-.189-1.932-.271-2.878Zm44.314 62.816c-5.088 2.962-9.069 6.725-12.161 10.877h24.557a41.385 41.385 0 0 0-12.396-10.877Zm12.643-36.207H64.325c3.094 4.164 7.135 7.932 12.397 11.006 5.336-3.07 9.463-6.838 12.642-11.006Zm9.056-21.935H55.605c.725 4.487 1.921 9.061 3.836 13.451h34.962c1.985-4.386 3.247-8.96 4.017-13.451ZM54.091 30.948c.333.955.504 1.977.529 3.036.021.896.054 1.808.102 2.732h44.632c.05-.924.085-1.835.106-2.732a10.08 10.08 0 0 1 .577-3.198L77.253 20.657 54.091 30.948Z">
  </path>
  <path d="M499.901 850.842c-.661 28.994 4.481 56.314 16.931 74.674"
        style="fill:none;stroke:#003452;stroke-opacity:.18;stroke-width:.4px"
        transform="translate(-480.343 -804.55)">
  </path>
</svg>