<?xml version="1.0" encoding="UTF-8"?>
<svg id="Layer_2" data-name="Layer 2" xmlns="http://www.w3.org/2000/svg" viewBox="0 0 199.57 191.75">
  <defs>
    <style>
      .cls-1 {
        fill: none;
      }

      .cls-2 {
        stroke: #231f20;
        stroke-miterlimit: 10;
      }

      .cls-3 {
        fill: #020202;
      }

      .cls-4 {
        fill: #aadef6;
      }

      .cls-5 {
        fill: #6dc5e8;
      }

      .cls-6 {
        fill: #f7c442;
        stroke: #0a0a0a;
        stroke-linecap: round;
        stroke-linejoin: round;
        stroke-width: 4px;
      }
    </style>
  </defs>
  <g id="Layer_1-2" data-name="Layer 1">
    <g>
      <path class="cls-4" d="M150.12,104.41c3.96,7.78,2.38,16.56-4.04,22.05-.4,.35-.83,.7-1.28,1.01-1.18,.86-1.51,1.71-1.51,3.09-.13,8.88-4.27,15.05-12.16,18.92-1.11,.53-2.18,1.31-2.89,2.29-4.34,5.59-9.99,8.48-17.08,8.21-7.57-.32-13.09-4.14-17.03-10.84-.03,.03-.05,.07-.08,.1-.03-.03-.05-.07-.08-.1-3.94,6.7-9.46,10.53-17.03,10.84-7.08,.27-12.74-2.63-17.08-8.21-.72-.98-1.78-1.76-2.89-2.29-7.88-3.87-12.02-10.04-12.16-18.92,0-1.38-.33-2.23-1.51-3.09-4.56-3.28-7.1-8.06-7.43-13.17-.22-3.26,.47-6.67,2.11-9.89,.47-.85,.33-2.23-.07-3.14-3.34-6.97-2.76-13.54,1.91-19.79,.52-.72,1.05-1.83,.91-2.63-2.23-8.8,3.43-18.86,13.07-21.28,.2-.07,.4-.27,.47-.27,0-2.89-.52-5.77,.13-8.33,.67-2.44,2.1-5.14,4.07-6.52,5.72-3.87,11.69-7.35,17.88-10.44,2.56-1.38,5.84-1.58,8.8-1.85,3.56-.25,6.39,1.58,8.88,4.34l.02-.02,.02,.02c2.49-2.76,5.32-4.59,8.88-4.34,2.96,.27,6.24,.47,8.8,1.85,6.19,3.09,12.16,6.57,17.88,10.44,1.98,1.38,3.41,4.07,4.07,6.52,.65,2.56,.13,5.44,.13,8.33,.07,0,.27,.2,.47,.27,9.64,2.43,15.3,12.49,13.07,21.28-.13,.8,.4,1.91,.91,2.63,4.67,6.25,5.25,12.82,1.91,19.79-.4,.91-.53,2.29-.07,3.14Z"/>
      <path class="cls-5" d="M146.08,126.46c-.4,.35-.83,.7-1.28,1.01-1.18,.86-1.51,1.71-1.51,3.09-.13,8.88-4.27,15.05-12.16,18.92-1.11,.53-2.18,1.31-2.89,2.29-4.34,5.59-9.99,8.48-17.08,8.21-7.57-.32-13.09-4.14-17.03-10.84-.03,.03-.05,.07-.08,.1-.03-.03-.05-.07-.08-.1-3.94,6.7-9.46,10.53-17.03,10.84-7.08,.27-12.74-2.63-17.08-8.21-.72-.98-1.78-1.76-2.89-2.29-7.88-3.87-12.02-10.04-12.16-18.92,0-1.38-.33-2.23-1.51-3.09-4.56-3.28-7.1-8.06-7.43-13.17,.86,.05,1.83,.35,2.94,.98,6.04,3.44,10.78,6.17,17.81,2.59,5.44-2.76,9.45-7.62,14.22-11.39,6.3-5.02,14.03-8.2,22.03-9.08,.68,7.42,1.36,14.82,2.03,22.23,.2,2.11,.6,4.56,2.44,5.62,2.73,1.56,5.87-1.16,7.83-3.63,3.96-4.99,7.93-9.98,11.89-14.95,6.52,10.11,17.31,17.18,29.02,19.77Z"/>
      <g id="fMeo4K.tif">
        <path class="cls-1" d="M150.19,104.73c4.14,7.82,1.91,17.41-5.26,22.67-1.25,.85-1.71,1.77-1.71,3.29-.13,8.8-4.34,14.98-12.22,18.79-.92,.39-1.84,.99-2.37,1.71-9.26,12.22-25.49,11.76-33.84-.99-.2-.26-.39-.53-.85-1.05-3.94,6.7-9.46,10.51-17.02,10.84-7.1,.26-12.75-2.63-17.08-8.21-.72-.99-1.77-1.77-2.89-2.3-7.88-3.88-12.02-10.05-12.16-18.92,0-1.38-.33-2.23-1.51-3.09-7.49-5.39-9.53-14.78-5.32-23.06,.46-.85,.33-2.23-.07-3.15-3.35-6.96-2.76-13.54,1.91-19.78,.53-.72,1.05-1.84,.92-2.63-2.23-8.8,3.42-18.86,13.08-21.29,.2-.07,.39-.26,.46-.26,0-2.89-.53-5.78,.13-8.34,.66-2.43,2.1-5.13,4.07-6.5,5.72-3.88,11.7-7.36,17.87-10.45,2.56-1.38,5.85-1.58,8.8-1.84,3.55-.26,6.37,1.58,8.87,4.34,4.4-5.19,10.05-5.39,15.7-3.22,4.93,1.91,9.46,4.66,14.19,7.16,.79,.39,1.45,1.12,2.23,1.64,7.49,4.8,9.07,8.48,7.56,16.49,3.09,1.97,6.31,3.55,8.8,5.91,4.47,4.07,6.04,9.46,4.93,15.44-.33,1.58,0,2.63,.92,3.88,4.6,6.04,5.19,12.55,1.77,19.32-.66,1.38-.72,2.3,.07,3.61Z"/>
        <g>
          <path class="cls-2" d="M150.13,101.11c3.42-6.77,2.83-13.27-1.77-19.32-.92-1.25-1.25-2.3-.92-3.88,1.12-5.98-.46-11.37-4.93-15.44-2.5-2.37-5.72-3.94-8.8-5.91,1.51-8.02-.07-11.7-7.56-16.49-.79-.53-1.45-1.25-2.23-1.64-4.73-2.5-9.26-5.26-14.19-7.16-5.65-2.17-11.3-1.97-15.7,3.22-2.5-2.76-5.32-4.6-8.87-4.34-2.96,.26-6.24,.46-8.8,1.84-6.18,3.09-12.16,6.57-17.87,10.45-1.97,1.38-3.42,4.07-4.07,6.5-.66,2.56-.13,5.45-.13,8.34-.07,0-.26,.2-.46,.26-9.66,2.43-15.31,12.48-13.08,21.29,.13,.79-.39,1.91-.92,2.63-4.67,6.24-5.26,12.81-1.91,19.78,.39,.92,.53,2.3,.07,3.15-4.2,8.28-2.17,17.67,5.32,23.06,1.18,.85,1.51,1.71,1.51,3.09,.13,8.87,4.27,15.05,12.16,18.92,1.12,.53,2.17,1.31,2.89,2.3,4.34,5.59,9.99,8.48,17.08,8.21,7.56-.33,13.08-4.14,17.02-10.84,.46,.53,.66,.79,.85,1.05,8.34,12.75,24.57,13.21,33.84,.99,.53-.72,1.45-1.31,2.37-1.71,7.88-3.81,12.09-9.99,12.22-18.79,0-1.51,.46-2.43,1.71-3.29,7.16-5.26,9.4-14.85,5.26-22.67-.79-1.31-.72-2.23-.07-3.61Zm-69.65,23.65c3.55,1.18,6.5,3.15,8.67,6.31,4.93,7.29,3.09,17.02-4.21,21.95-7.16,4.93-16.89,3.02-22.01-4.14-.92-1.31-2.43-2.5-3.94-3.15-6.57-2.76-10.84-9.66-9.79-16.69,.33-2.1-.39-3.15-2.17-4.21-4.47-2.56-7.56-7.62-7.1-12.88,.26-2.83,1.45-4.66,1.18-7.62-.26-3.42-.66-6.83-1.05-10.25-.46-4.07,1.05-7.88,3.88-10.71,1.51-1.51,1.77-2.76,1.25-4.73-2.23-7.75,2.43-15.57,10.05-17.08,8.15-1.58,15.57,3.94,16.43,12.16,.13,.99,.53,2.3,1.18,2.83,1.38,1.12,2.96-.13,3.02-2.3,.2-7.49-5.98-15.05-13.73-16.75-3.42-.72-4.21-1.77-4.14-5.26,.13-5.45,5.39-8.61,9.4-11.24,.92-.66,1.91-1.25,2.89-1.84,4.27-2.43,9.13-4.47,13.93-4.8,9.53-.72,7.23,10.38,7.29,16.3,.26,25.16,.46,50.33,.39,75.5,0,.26-.07,.46-.07,.59-2.56-1.71-5.06-3.42-7.62-5.06-.72-.46-1.64-.85-2.37-.79-1.05,.07-2.5,.33-2.89,1.05-.79,1.31,.13,2.37,1.51,2.83Zm62.42-1.18c-.72,.59-1.51,1.12-2.37,1.51-1.45,.72-1.91,1.84-1.71,3.48,.99,8.08-2.89,14.32-10.51,17.35-1.05,.46-2.1,1.25-2.69,2.17-4.47,6.44-11.1,9.07-18,7.1-7.03-2.1-11.5-8.15-11.5-16.1-.07-21.88,0-43.83,0-65.71,0-1.58-.07-3.22,0-4.8,.13-4.07,2.17-6.44,6.11-7.23,1.51-.26,3.09-.59,2.76-2.5-.26-2.04-2.04-2.04-3.55-1.71-1.71,.46-3.35,1.12-5.19,1.71,0-6.31-.2-12.62,.13-18.86,.46-9.07,11.37-5.13,16.36-2.83,1.45,.66,3.15,1.38,4.93,2.3,5.91,2.89,12.62,7.16,12.42,13.27-.13,3.29-.79,4.07-3.94,4.73-7.56,1.58-13.47,8.34-13.93,15.83-.07,1.51-.33,3.35,1.84,3.48,2.17,.2,2.23-1.51,2.37-3.09,.72-7.16,6.7-12.55,13.67-12.48,6.96,.13,12.75,5.45,13.34,12.48,.13,1.58,0,3.22-.46,4.73-1.05,3.02,1.31,5.19,2.76,7.62,1.91,3.02,2.63,6.64,1.45,10.05-.72,2.04-1.97,3.81-2.43,5.91-.85,3.74,3.15,6.44,3.29,10.32,.2,4.27-1.77,8.61-5.12,11.24Z"/>
          <path class="cls-2" d="M67.07,108.44c-1.18-.33-2.08-.56-2.96-.82-7.8-2.3-13.6-9.49-14.12-17.47-.11-1.68-.05-3.44,2.04-3.69,2.16-.25,2.5,1.45,2.66,3.15,.6,6.25,3.78,10.72,9.6,13.05,5.75,2.3,11.02,1.07,15.66-2.94,1.28-1.11,2.64-1.76,3.89-.27,1.24,1.48,.47,3-.91,3.82-2.77,1.66-5.61,3.28-8.6,4.49-1.57,.63-2.57,1.06-3.12,2.9-1.73,5.86-7.34,9.99-13.14,10.11-1.59,.03-3.15-.36-2.95-2.08,.11-.94,1.61-2.3,2.63-2.45,4.65-.67,7.72-2.99,9.3-7.8Z"/>
          <path class="cls-2" d="M120.5,108.44c1.18-.33,2.08-.56,2.96-.82,7.8-2.3,13.6-9.49,14.12-17.47,.11-1.68,.05-3.44-2.04-3.69-2.16-.25-2.5,1.45-2.66,3.15-.6,6.25-3.78,10.72-9.6,13.05-5.75,2.3-11.02,1.07-15.66-2.94-1.28-1.11-2.64-1.76-3.89-.27-1.24,1.48-.47,3,.91,3.82,2.77,1.66,5.61,3.28,8.6,4.49,1.57,.63,2.57,1.06,3.12,2.9,1.73,5.86,7.34,9.99,13.14,10.11,1.59,.03,3.15-.36,2.95-2.08-.11-.94-1.61-2.3-2.63-2.45-4.65-.67-7.72-2.99-9.3-7.8Z"/>
        </g>
      </g>
    </g>
    <g id="_2DXTTK.tif" data-name="2DXTTK.tif">
      <path class="cls-6" d="M173.27,13.46c3.22,12.86,11.24,20.79,24.3,23.93-16.12,6.38-16.97,7.23-24.44,24.31-3.18-12.95-11.03-20.91-24.6-24.2,13.62-3.31,21.49-11.27,24.74-24.04Z"/>
    </g>
    <path class="cls-3" d="M190.68,81.69c2.95,19.72-.21,39.52-9.15,57.28-4.84,9.56-11.14,18.15-18.74,25.54-14.46,14.13-32.69,23.18-52.72,26.18C57.79,198.52,8.89,162.35,1.06,110.08-6.76,57.8,29.4,8.9,81.68,1.08c20.85-3.12,41.64,.57,60.11,10.67,2.76,1.51,3.78,4.98,2.27,7.74-1.51,2.76-4.97,3.78-7.74,2.27-16.27-8.9-34.58-12.15-52.95-9.4C37.31,19.25,5.45,62.33,12.34,108.39c6.9,46.06,49.98,77.92,96.03,71.02,17.64-2.64,33.7-10.62,46.45-23.07,6.7-6.52,12.26-14.09,16.52-22.51,7.87-15.63,10.66-33.08,8.06-50.45-.47-3.11,1.68-6.02,4.79-6.48,3.11-.47,6.02,1.68,6.48,4.79Z"/>
  </g>
</svg>