<?xml version="1.0" encoding="UTF-8"?>
<svg id="Layer_2" data-name="Layer 2" xmlns="http://www.w3.org/2000/svg" viewBox="0 0 71.08 79.23">
  <defs>
    <style>
      .cls-1 {
        fill: none;
      }

      .cls-2 {
        stroke: #231f20;
        stroke-miterlimit: 10;
      }

      .cls-3 {
        fill: #aadef6;
      }

      .cls-4 {
        fill: #6dc5e8;
      }
    </style>
  </defs>
  <g id="Layer_1-2" data-name="Layer 1">
    <path class="cls-3" d="M69.26,45.27c2.38,4.68,1.43,9.96-2.43,13.26-.24,.21-.5,.42-.77,.61-.71,.52-.91,1.03-.91,1.86-.08,5.34-2.57,9.05-7.31,11.38-.67,.32-1.31,.79-1.74,1.38-2.61,3.36-6.01,5.1-10.27,4.94-4.55-.19-7.87-2.49-10.24-6.52-.02,.02-.03,.04-.05,.06-.02-.02-.03-.04-.05-.06-2.37,4.03-5.69,6.33-10.24,6.52-4.26,.16-7.66-1.58-10.27-4.94-.43-.59-1.07-1.06-1.74-1.38-4.74-2.33-7.23-6.04-7.31-11.38,0-.83-.2-1.34-.91-1.86-2.74-1.97-4.27-4.85-4.47-7.92-.13-1.96,.28-4.01,1.27-5.95,.28-.51,.2-1.34-.04-1.89C-.23,39.19,.12,35.24,2.93,31.48c.31-.43,.63-1.1,.55-1.58-1.34-5.29,2.06-11.34,7.86-12.8,.12-.04,.24-.16,.28-.16,0-1.74-.31-3.47,.08-5.01,.4-1.47,1.26-3.09,2.45-3.92,3.44-2.33,7.03-4.42,10.75-6.28,1.54-.83,3.51-.95,5.29-1.11,2.14-.15,3.84,.95,5.34,2.61h0s.01,0,.01,0c1.5-1.66,3.2-2.76,5.34-2.61,1.78,.16,3.75,.28,5.29,1.11,3.72,1.86,7.31,3.95,10.75,6.28,1.19,.83,2.05,2.45,2.45,3.92,.39,1.54,.08,3.27,.08,5.01,.04,0,.16,.12,.28,.16,5.8,1.46,9.2,7.51,7.86,12.8-.08,.48,.24,1.15,.55,1.58,2.81,3.76,3.16,7.71,1.15,11.9-.24,.55-.32,1.38-.04,1.89Z"/>
    <path class="cls-4" d="M66.83,58.53c-.24,.21-.5,.42-.77,.61-.71,.52-.91,1.03-.91,1.86-.08,5.34-2.57,9.05-7.31,11.38-.67,.32-1.31,.79-1.74,1.38-2.61,3.36-6.01,5.1-10.27,4.94-4.55-.19-7.87-2.49-10.24-6.52-.02,.02-.03,.04-.05,.06-.02-.02-.03-.04-.05-.06-2.37,4.03-5.69,6.33-10.24,6.52-4.26,.16-7.66-1.58-10.27-4.94-.43-.59-1.07-1.06-1.74-1.38-4.74-2.33-7.23-6.04-7.31-11.38,0-.83-.2-1.34-.91-1.86-2.74-1.97-4.27-4.85-4.47-7.92,.52,.03,1.1,.21,1.77,.59,3.63,2.07,6.48,3.71,10.71,1.56,3.27-1.66,5.68-4.58,8.55-6.85,3.79-3.02,8.44-4.93,13.25-5.46,.41,4.46,.82,8.91,1.22,13.37,.12,1.27,.36,2.74,1.47,3.38,1.64,.94,3.53-.7,4.71-2.18,2.38-3,4.77-6,7.15-8.99,3.92,6.08,10.41,10.33,17.45,11.89Z"/>
    <g id="fMeo4K.tif">
      <path class="cls-1" d="M69.31,45.46c2.49,4.7,1.15,10.47-3.16,13.63-.75,.51-1.03,1.07-1.03,1.98-.08,5.29-2.61,9.01-7.35,11.3-.55,.24-1.11,.59-1.42,1.03-5.57,7.35-15.33,7.07-20.35-.59-.12-.16-.24-.32-.51-.63-2.37,4.03-5.69,6.32-10.23,6.52-4.27,.16-7.67-1.58-10.27-4.94-.43-.59-1.07-1.07-1.74-1.38-4.74-2.33-7.23-6.05-7.31-11.38,0-.83-.2-1.34-.91-1.86-4.5-3.24-5.73-8.89-3.2-13.87,.28-.51,.2-1.34-.04-1.9C-.24,39.18,.12,35.23,2.92,31.47c.32-.43,.63-1.11,.55-1.58-1.34-5.29,2.05-11.34,7.86-12.8,.12-.04,.24-.16,.28-.16,0-1.74-.32-3.48,.08-5.02,.4-1.46,1.26-3.08,2.45-3.91,3.44-2.33,7.03-4.43,10.75-6.28,1.54-.83,3.52-.95,5.29-1.11,2.13-.16,3.83,.95,5.33,2.61C38.17,.1,41.57-.02,44.97,1.28c2.96,1.15,5.69,2.81,8.53,4.31,.47,.24,.87,.67,1.34,.99,4.5,2.88,5.45,5.1,4.54,9.92,1.86,1.19,3.79,2.13,5.29,3.56,2.69,2.45,3.64,5.69,2.96,9.29-.2,.95,0,1.58,.55,2.33,2.77,3.64,3.12,7.55,1.07,11.62-.4,.83-.43,1.38,.04,2.17Z"/>
      <g>
        <path class="cls-2" d="M69.27,43.29c2.05-4.07,1.7-7.98-1.07-11.62-.55-.75-.75-1.38-.55-2.33,.67-3.6-.28-6.84-2.96-9.29-1.5-1.42-3.44-2.37-5.29-3.56,.91-4.82-.04-7.03-4.54-9.92-.47-.32-.87-.75-1.34-.99-2.84-1.5-5.57-3.16-8.53-4.31C41.57-.02,38.17,.1,35.52,3.22c-1.5-1.66-3.2-2.77-5.33-2.61-1.78,.16-3.75,.28-5.29,1.11-3.71,1.86-7.31,3.95-10.75,6.28-1.19,.83-2.05,2.45-2.45,3.91-.4,1.54-.08,3.28-.08,5.02-.04,0-.16,.12-.28,.16-5.81,1.46-9.21,7.51-7.86,12.8,.08,.47-.24,1.15-.55,1.58C.12,35.23-.24,39.18,1.78,43.37c.24,.55,.32,1.38,.04,1.9-2.53,4.98-1.3,10.63,3.2,13.87,.71,.51,.91,1.03,.91,1.86,.08,5.33,2.57,9.05,7.31,11.38,.67,.32,1.3,.79,1.74,1.38,2.61,3.36,6.01,5.1,10.27,4.94,4.54-.2,7.86-2.49,10.23-6.52,.28,.32,.4,.47,.51,.63,5.02,7.67,14.78,7.94,20.35,.59,.32-.43,.87-.79,1.42-1.03,4.74-2.29,7.27-6.01,7.35-11.3,0-.91,.28-1.46,1.03-1.98,4.31-3.16,5.65-8.93,3.16-13.63-.47-.79-.43-1.34-.04-2.17Zm-41.88,14.22c2.13,.71,3.91,1.9,5.22,3.79,2.96,4.39,1.86,10.23-2.53,13.2-4.31,2.96-10.15,1.82-13.24-2.49-.55-.79-1.46-1.5-2.37-1.9-3.95-1.66-6.52-5.81-5.89-10.04,.2-1.26-.24-1.9-1.3-2.53-2.69-1.54-4.54-4.58-4.27-7.74,.16-1.7,.87-2.81,.71-4.58-.16-2.05-.4-4.11-.63-6.16-.28-2.45,.63-4.74,2.33-6.44,.91-.91,1.07-1.66,.75-2.85-1.34-4.66,1.46-9.36,6.05-10.27,4.9-.95,9.36,2.37,9.88,7.31,.08,.59,.32,1.38,.71,1.7,.83,.67,1.78-.08,1.82-1.38,.12-4.5-3.6-9.05-8.26-10.08-2.05-.43-2.53-1.07-2.49-3.16,.08-3.28,3.24-5.18,5.65-6.76,.55-.4,1.15-.75,1.74-1.11,2.57-1.46,5.49-2.69,8.38-2.88,5.73-.43,4.35,6.24,4.39,9.8,.16,15.13,.28,30.27,.24,45.4,0,.16-.04,.28-.04,.36-1.54-1.03-3.04-2.05-4.58-3.04-.43-.28-.99-.51-1.42-.47-.63,.04-1.5,.2-1.74,.63-.47,.79,.08,1.42,.91,1.7Zm37.54-.71c-.43,.36-.91,.67-1.42,.91-.87,.43-1.15,1.11-1.03,2.09,.59,4.86-1.74,8.61-6.32,10.43-.63,.28-1.26,.75-1.62,1.3-2.69,3.87-6.68,5.45-10.83,4.27-4.23-1.26-6.91-4.9-6.91-9.68-.04-13.16,0-26.36,0-39.51,0-.95-.04-1.94,0-2.88,.08-2.45,1.3-3.87,3.67-4.35,.91-.16,1.86-.36,1.66-1.5-.16-1.22-1.22-1.22-2.13-1.03-1.03,.28-2.02,.67-3.12,1.03,0-3.79-.12-7.59,.08-11.34,.28-5.45,6.84-3.08,9.84-1.7,.87,.4,1.9,.83,2.96,1.38,3.56,1.74,7.59,4.31,7.47,7.98-.08,1.98-.47,2.45-2.37,2.84-4.54,.95-8.1,5.02-8.38,9.52-.04,.91-.2,2.02,1.11,2.09,1.3,.12,1.34-.91,1.42-1.86,.43-4.31,4.03-7.55,8.22-7.51,4.19,.08,7.67,3.28,8.02,7.51,.08,.95,0,1.94-.28,2.85-.63,1.82,.79,3.12,1.66,4.58,1.15,1.82,1.58,3.99,.87,6.05-.43,1.22-1.19,2.29-1.46,3.56-.51,2.25,1.9,3.87,1.98,6.2,.12,2.57-1.07,5.18-3.08,6.76Z"/>
        <path class="cls-2" d="M19.32,47.69c-.71-.2-1.25-.34-1.78-.49-4.69-1.38-8.18-5.7-8.49-10.51-.07-1.01-.03-2.07,1.23-2.22,1.3-.15,1.5,.87,1.6,1.9,.36,3.76,2.27,6.45,5.77,7.85,3.46,1.38,6.63,.64,9.42-1.77,.77-.67,1.59-1.06,2.34-.16,.75,.89,.28,1.8-.55,2.3-1.67,1-3.38,1.97-5.17,2.7-.94,.38-1.55,.64-1.87,1.74-1.04,3.52-4.42,6.01-7.9,6.08-.95,.02-1.89-.22-1.77-1.25,.07-.57,.97-1.39,1.58-1.47,2.8-.41,4.64-1.8,5.59-4.69Z"/>
        <path class="cls-2" d="M51.45,47.69c.71-.2,1.25-.34,1.78-.49,4.69-1.38,8.18-5.7,8.49-10.51,.07-1.01,.03-2.07-1.23-2.22-1.3-.15-1.5,.87-1.6,1.9-.36,3.76-2.27,6.45-5.77,7.85-3.46,1.38-6.63,.64-9.42-1.77-.77-.67-1.59-1.06-2.34-.16-.75,.89-.28,1.8,.55,2.3,1.67,1,3.38,1.97,5.17,2.7,.94,.38,1.55,.64,1.87,1.74,1.04,3.52,4.42,6.01,7.9,6.08,.95,.02,1.89-.22,1.77-1.25-.07-.57-.97-1.39-1.58-1.47-2.8-.41-4.64-1.8-5.59-4.69Z"/>
      </g>
    </g>
  </g>
</svg>