<?xml version="1.0" encoding="UTF-8"?>
<svg id="Layer_2" data-name="Layer 2" xmlns="http://www.w3.org/2000/svg" viewBox="0 0 444.36 444.36">
  <g id="Layer_1-2" data-name="Layer 1">
    <g id="a2yzjf.tif">
      <g>
        <path d="M295.97,0c-.06,8.3-.13,16.6-.19,24.9l.36-.34c-49.58,0-99.16,0-148.74,0l.36,.34c-.06-8.3-.13-16.6-.19-24.9h148.39Z"/>
        <path d="M419.47,148.58c8.3-.06,16.6-.13,24.9-.19v148.39c-8.3-.06-16.6-.13-24.9-.19l.34,.36V148.22l-.34,.36Z"/>
        <path d="M24.09,296.59H0V148.58H24.09l-.34-.36c0,49.58,0,99.16,0,148.74l.34-.36Z"/>
        <path d="M295.78,420.28v24.09H147.77v-24.09l-.36,.34h148.74l-.36-.34Z"/>
        <path d="M98.31,49.63V24.9c16.83,0,33.15,0,49.46,0,0,0-.36-.34-.36-.34v24.73h-49.46l.36,.34Z"/>
        <path d="M24.09,148.58v-49.46h24.73l-.34-.36v49.46H23.75l.34,.36Z"/>
        <path d="M48.82,346.06H24.09c0-16.83,0-33.15,0-49.46,0,0-.34,.36-.34,.36,8.07,0,16.13,0,24.73,0v49.46l.34-.36Z"/>
        <path d="M419.47,296.59v49.46h-24.73l.34,.36v-49.46h24.73l-.34-.36Z"/>
        <path d="M147.77,420.28h-49.46v-24.73l-.36,.34h49.46v24.73l.36-.34Z"/>
        <path d="M345.25,395.55v24.73c-16.83,0-33.15,0-49.46,0,0,0,.36,.34,.36,.34v-24.73h49.46l-.36-.34Z"/>
        <path d="M73.57,74.36v-24.73c8.57,0,16.65,0,24.73,0,0,0-.36-.34-.36-.34,0,8.07,0,16.15,0,24.73h-24.73l.36,.34Z"/>
        <path d="M48.82,99.12v-24.76c8.59,0,16.67,0,24.76,0,0,0-.36-.34-.36-.34,0,8.07,0,16.15,0,24.73h-24.73l.34,.36Z"/>
        <path d="M73.55,370.79h-24.73c0-8.57,0-16.65,0-24.73,0,0-.34,.36-.34,.36h24.73v24.73l.34-.36Z"/>
        <path d="M394.73,346.06v24.73h-24.73l.34,.36v-24.73h24.73l-.34-.36Z"/>
        <path d="M98.31,395.55h-24.76c0-8.59,0-16.67,0-24.76,0,0-.34,.36-.34,.36h24.73v24.73l.36-.34Z"/>
        <path d="M370,370.79v24.76c-8.59,0-16.68,0-24.76,0,0,0,.36,.34,.36,.34v-24.73h24.73l-.34-.36Z"/>
        <path d="M295.78,24.9h49.46v24.73l.36-.34c-16.31,0-32.63,0-49.46,0V24.56l-.36,.34Z"/>
        <path d="M394.73,99.12h24.73c0,16.83,0,33.15,0,49.46,0,0,.34-.36,.34-.36h-24.73v-49.46l-.34,.36Z"/>
        <path d="M345.25,49.63h24.73v24.73l.36-.34h-24.73v-24.73l-.36,.34Z"/>
        <path d="M369.98,74.36h24.76c0,8.59,0,16.68,0,24.76,0,0,.34-.36,.34-.36h-24.73v-24.73l-.36,.34Z"/>
      </g>
    </g>
    <path d="M137.38,308.37c-5.27,0-10.55-1.7-15.18-5.1-.65-.48-1.29-.97-1.93-1.46-.84-.65-1.67-1.29-2.56-1.89-2.27-1.53-9.18-6.18-10.19-14.8l-.06-2.37,.1-.65c1.04-6.82,5.76-11.13,9.75-14.11,20.82-15.57,41.6-31.15,62.39-46.75l14.74-11.05-12.71-9.53c-21.66-16.24-43.31-32.48-65-48.7-3.17-2.37-7.56-6.23-9.03-12.29l-.24-1.01v-4.07l.2-.92c1.1-5.03,4.27-9.35,9.44-12.86,1.63-1.11,3.26-2.38,4.92-3.68,2.76-2.18,6.11-3.72,10.25-4.71l1-.24h8.09l.99,.23c5.06,1.2,8.7,3.58,11.59,5.75,25.43,19.1,50.88,38.18,76.34,57.27l26.26,19.69c7.29,5.46,8.81,11.21,8.81,15.08,0,3.87-1.53,9.63-8.83,15.1l-70.54,52.89c-11.13,8.35-22.27,16.7-33.42,25.04-4.6,3.43-9.88,5.15-15.19,5.15Zm-11.95-24.48c.39,.39,1.01,.92,2,1.59,1.2,.81,2.33,1.67,3.46,2.54,.54,.41,1.07,.82,1.62,1.22,3.06,2.25,6.66,2.26,9.64,.03,11.15-8.33,22.27-16.68,33.4-25.02l70.54-52.89c.63-.47,1.07-.86,1.37-1.17-.3-.3-.74-.69-1.36-1.15l-26.26-19.69c-25.45-19.09-50.91-38.17-76.35-57.27-1.5-1.12-2.84-1.99-4.33-2.5h-3.73c-1.16,.34-2.05,.75-2.63,1.21-1.92,1.52-3.82,2.99-5.93,4.43-.71,.48-1.21,.9-1.55,1.24,.38,.38,.96,.89,1.84,1.56,21.69,16.22,43.35,32.47,65.02,48.71l17.9,13.42c2.93,2.19,6.57,4.92,6.57,10.04s-3.59,7.8-6.48,9.97l-20.01,15.01c-20.79,15.59-41.59,31.19-62.41,46.76-1.16,.87-1.87,1.51-2.31,1.96Z"/>
    <path d="M225.22,335.6c-1,0-2-.2-2.94-.6l-23.31-10c-1.84-.79-3.28-2.28-4.01-4.14-.73-1.86-.68-3.93,.13-5.76,14.62-32.78,35.22-39.66,49.93-39.66s23.97,6.59,31.73,11.89c5.31,3.63,9.51,6.49,13.71,6.49s8.68-5.5,12.3-15.09c.72-1.91,2.19-3.44,4.07-4.23,1.88-.8,4-.79,5.87,.02l23.31,10.07c1.83,.79,3.27,2.28,4,4.14s.67,3.93-.14,5.75c-14.64,32.71-35.23,39.58-49.93,39.58s-23.98-6.59-31.74-11.89c-5.31-3.62-9.51-6.49-13.7-6.49s-8.77,5.79-12.3,15.1c-.72,1.9-2.19,3.43-4.06,4.22-.93,.4-1.92,.59-2.91,.59Zm19.28-34.83c8.8,0,15.57,4.62,22.11,9.08,7,4.78,13.62,9.29,23.33,9.29,13.2,0,24.26-8.06,32.96-23.97l-9.31-4.02c-7.33,14.33-16.4,17.59-23.12,17.59-8.8,0-15.57-4.62-22.12-9.09-7-4.78-13.62-9.29-23.32-9.29-13.21,0-24.27,8.07-32.96,24.02l9.32,4c7.83-15.14,17.58-17.61,23.1-17.61Z"/>
    <path d="M327.32,172.39c0,.91-.46,1.54-1.57,1.95-2.23,.82-4.4,1.76-6.5,2.86-4.5,2.34-8.5,5.36-11.91,9.12-3.6,3.98-6.29,8.54-8.27,13.52-.34,.87-.64,1.75-1,2.61-.34,.83-1.02,1.26-1.89,1.29-.9,.03-1.62-.38-2.01-1.19-.73-1.52-1.4-3.07-2.12-4.59-1.87-3.94-3.8-7.85-6.49-11.32-1.99-2.57-4.38-4.68-7.14-6.39-3.65-2.26-7.56-3.95-11.52-5.58-.4-.16-.81-.31-1.14-.59-1.23-1.04-1-2.94,.47-3.62,.96-.44,1.98-.75,2.96-1.15,3.43-1.4,6.68-3.15,9.71-5.3,3.81-2.72,7.04-5.99,9.74-9.8,2.34-3.31,4.17-6.91,5.59-10.7,.56-1.49,2.02-1.99,3.31-1.18,.47,.3,.7,.75,.89,1.25,1.63,4.33,3.79,8.37,6.63,12.02,3.32,4.27,7.32,7.78,12,10.5,2.63,1.53,5.35,2.85,8.22,3.86,.32,.11,.64,.24,.94,.4,.75,.39,1.13,1.02,1.11,2.04Z"/>
  </g>
</svg>