<?xml version="1.0" encoding="UTF-8"?>
<svg id="Layer_2" data-name="Layer 2" xmlns="http://www.w3.org/2000/svg" viewBox="0 0 88.37 88.38">
  <defs>
    <style>
      .cls-1 {
        fill: #96be55;
      }

      .cls-2 {
        fill: #b7d694;
      }
    </style>
  </defs>
  <g id="Layer_1-2" data-name="Layer 1">
    <g>
      <path class="cls-1" d="M67.36,43.72c-1.36-.32-2.73,.04-3.74,.86-.63,.51-1.45,.73-2.24,.54l-1.54-.36c-.69-.17-1.2-.75-1.27-1.45-.14-1.28-.45-2.56-.93-3.82-.69-1.77-1.68-3.34-2.9-4.66-.53-.58-.6-1.45-.15-2.1l1.25-1.8c.35-.5,.86-.89,1.46-1.01,.75-.14,1.45-.57,1.92-1.25,.96-1.39,.62-3.3-.77-4.26-1.39-.97-3.3-.63-4.26,.76-.46,.66-.62,1.43-.52,2.16,.09,.64-.06,1.28-.42,1.81l-1.17,1.67c-.46,.67-1.34,.9-2.09,.56-2.83-1.31-6.06-1.73-9.25-1.06-.81,.17-1.62-.26-1.91-1.03l-.25-.62c-.29-.76-.18-1.59,.24-2.28,.83-1.35,.9-3.14-.07-4.66-.91-1.41-2.63-2.17-4.28-1.89-2.83,.47-4.36,3.34-3.39,5.85,.51,1.31,1.58,2.23,2.83,2.59,.78,.23,1.44,.77,1.73,1.53l.32,.83c.28,.72,.03,1.54-.62,1.98-1.83,1.25-3.32,2.88-4.4,4.73-.33,.55-.95,.86-1.59,.8l-1.67-.16c-.7-.07-1.32-.43-1.76-.98-.56-.69-1.38-1.16-2.34-1.24-1.88-.18-3.55,1.21-3.72,3.08-.17,1.88,1.21,3.54,3.09,3.72,.98,.09,1.9-.25,2.58-.85,.51-.45,1.18-.65,1.86-.59l.11,.02c.96,.08,1.62,.96,1.5,1.92-.3,2.36-.03,4.83,.9,7.21,.18,.47,.38,.92,.61,1.36,.36,.7,.21,1.55-.38,2.07l-.66,.56c-.62,.54-1.45,.71-2.26,.54-1.26-.27-2.64,.04-3.7,.95-1.81,1.57-2.02,4.3-.46,6.12,1.56,1.81,4.29,2.02,6.11,.45,1.06-.91,1.57-2.22,1.5-3.51-.05-.82,.25-1.61,.87-2.15l.46-.4c.63-.54,1.55-.52,2.19,.01,3.07,2.58,7.12,3.86,11.19,3.41,.8-.09,1.55,.38,1.8,1.14l.51,1.6c.19,.61,.14,1.26-.12,1.84-.31,.67-.38,1.46-.14,2.22,.52,1.61,2.24,2.5,3.85,1.98,1.61-.51,2.51-2.24,1.99-3.85-.24-.76-.76-1.36-1.4-1.73-.56-.31-.98-.82-1.18-1.43l-.5-1.57c-.25-.77,.1-1.59,.8-1.98,3.47-1.92,5.94-5.09,7.03-8.71,.26-.86,1.17-1.35,2.04-1.14l.6,.15c.79,.19,1.41,.76,1.74,1.5,.53,1.19,1.59,2.13,2.94,2.45,2.34,.56,4.68-.87,5.23-3.2,.56-2.33-.87-4.67-3.2-5.23Zm-19.58,11.48c-5.7,2.22-12.12-.61-14.34-6.31-2.21-5.7,.62-12.12,6.32-14.33,5.7-2.22,12.11,.61,14.33,6.31,2.21,5.7-.61,12.12-6.31,14.33Z"/>
      <circle class="cls-1" cx="39.71" cy="45.74" r="3.32"/>
      <circle class="cls-1" cx="47.16" cy="49.67" r="2.15"/>
      <circle class="cls-1" cx="46.63" cy="41.65" r="1.97"/>
    </g>
    <path d="M44.19,88.38C19.82,88.38,0,68.56,0,44.19c0-9.87,3.18-19.2,9.19-26.99,.51-.66,1.45-.78,2.1-.27,.66,.51,.78,1.45,.27,2.1-5.6,7.25-8.57,15.95-8.57,25.15,0,22.71,18.48,41.19,41.19,41.19s41.18-18.48,41.18-41.19S66.9,3,44.19,3c-9.16,0-17.82,2.94-25.06,8.49-.66,.5-1.6,.38-2.1-.28-.5-.66-.38-1.6,.28-2.1C25.07,3.15,34.37,0,44.19,0c24.36,0,44.18,19.82,44.18,44.19s-19.82,44.19-44.18,44.19Z"/>
    <path d="M44.17,79.68c-16.68,0-31.59-11.85-34.83-28.82C5.66,31.64,18.3,13.01,37.52,9.34c19.22-3.67,37.84,8.97,41.52,28.19,1.49,7.78,.39,15.62-3.18,22.67-.25,.49-.85,.69-1.34,.44-.49-.25-.69-.85-.44-1.34,3.37-6.65,4.4-14.05,3-21.39-3.47-18.13-21.05-30.07-39.18-26.6C19.76,14.77,7.83,32.34,11.3,50.48c3.47,18.13,21.04,30.07,39.17,26.6,.55-.1,1.07,.25,1.17,.79,.1,.54-.25,1.07-.79,1.17-2.24,.43-4.47,.63-6.68,.63Z"/>
    <path class="cls-2" d="M36.85,70.96c-.39,0-.76-.23-.92-.61-.21-.51,.02-1.1,.53-1.31l4.34-1.83c.51-.21,1.1,.02,1.31,.53,.21,.51-.02,1.1-.53,1.31l-4.34,1.83c-.13,.05-.26,.08-.39,.08Z"/>
    <path class="cls-2" d="M68.22,36.12c-.14,0-.29-.03-.43-.1l-4.92-2.32c-.5-.24-.71-.83-.48-1.33,.24-.5,.83-.71,1.33-.48l4.92,2.32c.5,.24,.71,.83,.48,1.33-.17,.36-.53,.57-.91,.57Z"/>
    <path class="cls-2" d="M19.84,50.07c-.14,0-.29-.03-.43-.1l-4.92-2.32c-.5-.24-.71-.83-.48-1.33,.24-.5,.83-.71,1.33-.48l4.92,2.32c.5,.24,.71,.83,.48,1.33-.17,.36-.53,.57-.91,.57Z"/>
    <circle class="cls-2" cx="26.8" cy="28.25" r="1.84"/>
    <circle class="cls-2" cx="47.16" cy="16.35" r="1.84"/>
    <path d="M68.68,69.7c0,.17-.08,.28-.29,.36-.41,.15-.81,.32-1.19,.52-.83,.43-1.56,.98-2.18,1.67-.66,.73-1.15,1.57-1.52,2.48-.06,.16-.12,.32-.18,.48-.06,.15-.19,.23-.35,.24-.16,0-.3-.07-.37-.22-.13-.28-.26-.56-.39-.84-.34-.72-.7-1.44-1.19-2.08-.36-.47-.8-.86-1.31-1.17-.67-.42-1.39-.73-2.11-1.02-.07-.03-.15-.06-.21-.11-.23-.19-.18-.54,.09-.66,.18-.08,.36-.14,.54-.21,.63-.26,1.23-.58,1.78-.97,.7-.5,1.29-1.1,1.79-1.8,.43-.61,.76-1.27,1.03-1.96,.1-.27,.37-.37,.61-.22,.09,.05,.13,.14,.16,.23,.3,.79,.69,1.54,1.22,2.21,.61,.78,1.34,1.43,2.2,1.93,.48,.28,.98,.52,1.51,.71,.06,.02,.12,.04,.17,.07,.14,.07,.21,.19,.2,.37Z"/>
    <path d="M70.84,64.08c0,.06-.03,.11-.11,.13-.15,.06-.3,.12-.45,.2-.31,.16-.59,.37-.82,.63-.25,.28-.43,.59-.57,.93-.02,.06-.04,.12-.07,.18-.02,.06-.07,.09-.13,.09-.06,0-.11-.03-.14-.08-.05-.1-.1-.21-.15-.32-.13-.27-.26-.54-.45-.78-.14-.18-.3-.32-.49-.44-.25-.16-.52-.27-.8-.39-.03-.01-.06-.02-.08-.04-.08-.07-.07-.2,.03-.25,.07-.03,.14-.05,.2-.08,.24-.1,.46-.22,.67-.37,.26-.19,.49-.41,.67-.68,.16-.23,.29-.48,.39-.74,.04-.1,.14-.14,.23-.08,.03,.02,.05,.05,.06,.09,.11,.3,.26,.58,.46,.83,.23,.3,.51,.54,.83,.73,.18,.11,.37,.2,.57,.27,.02,0,.04,.02,.06,.03,.05,.03,.08,.07,.08,.14Z"/>
    <path d="M59.15,75.42c0,.06-.03,.11-.11,.13-.15,.06-.3,.12-.45,.2-.31,.16-.59,.37-.82,.63-.25,.28-.43,.59-.57,.93-.02,.06-.04,.12-.07,.18-.02,.06-.07,.09-.13,.09-.06,0-.11-.03-.14-.08-.05-.1-.1-.21-.15-.32-.13-.27-.26-.54-.45-.78-.14-.18-.3-.32-.49-.44-.25-.16-.52-.27-.8-.39-.03-.01-.06-.02-.08-.04-.08-.07-.07-.2,.03-.25,.07-.03,.14-.05,.2-.08,.24-.1,.46-.22,.67-.37,.26-.19,.49-.41,.67-.68,.16-.23,.29-.48,.39-.74,.04-.1,.14-.14,.23-.08,.03,.02,.05,.05,.06,.09,.11,.3,.26,.58,.46,.83,.23,.3,.51,.54,.83,.73,.18,.11,.37,.2,.57,.27,.02,0,.04,.02,.06,.03,.05,.03,.08,.07,.08,.14Z"/>
  </g>
</svg>