<?xml version="1.0" encoding="UTF-8"?>
<svg id="Layer_2" data-name="Layer 2" xmlns="http://www.w3.org/2000/svg" viewBox="0 0 182.84 88.42">
  <defs>
    <style>
      .cls-1 {
        fill: none;
        stroke: #000;
        stroke-miterlimit: 10;
        stroke-width: 1.5px;
      }

      .cls-2 {
        fill: #fff;
      }
    </style>
  </defs>
  <g id="Layer_1-2" data-name="Layer 1">
    <g>
      <path d="M182.8,44.25c-.07,1.08-.54,2.09-1.35,2.9-1.01,1.01-2.29,1.48-3.57,1.48s-2.5-.47-3.51-1.42c-1.08-1.01-2.09-2.02-3.17-2.97-17.94-16.72-36.75-27.45-56.31-31.9h-.07c-7.49-1.75-15.04-2.5-22.66-2.36-11.06,.13-21.51,2.23-30.95,5.33-24.48,7.89-42.62,22.66-49.56,28.93-1.96,1.75-3.03,2.83-3.1,2.9-1.89,1.96-5.06,2.02-7.08,.07-.88-.81-1.35-1.89-1.42-2.97-.2-1.42,.2-2.9,1.28-4.05C2.88,38.58,39.97,.75,91.9,.01c31.96-.47,61.77,13.01,89.49,40.06,1.15,1.15,1.62,2.7,1.42,4.18Z"/>
      <ellipse cx="89.46" cy="43.66" rx="35.72" ry="37.72"/>
      <path d="M182.8,44.25c.2,1.48-.27,2.97-1.42,4.11-27.24,26.57-56.78,40.06-87.87,40.06h-1.62C39.97,87.68,2.88,49.85,1.33,48.23c-1.08-1.08-1.48-2.56-1.28-3.98,.07-1.15,.54-2.23,1.42-3.03,2.02-1.96,5.19-1.89,7.08,.07,.07,.07,1.15,1.15,3.1,2.97,7.08,6.34,25.76,21.51,50.98,29.33,0,0,0,.07,.07,0,9.04,2.83,18.95,4.72,29.47,4.86,7.08,.07,14.09-.67,21.04-2.16,.07,.07,.07,0,.07,0,20.1-4.25,39.45-14.9,57.93-32.03,1.08-1.01,2.09-2.02,3.17-3.03,2.02-1.96,5.13-1.89,7.08,.07,.81,.81,1.28,1.89,1.35,2.97Z"/>
      <ellipse class="cls-1" cx="89.46" cy="43.66" rx="35.72" ry="37.72"/>
      <ellipse class="cls-2" cx="116.04" cy="29.91" rx="15.89" ry="8.09"/>
    </g>
  </g>
</svg>