<?xml version="1.0" encoding="UTF-8"?>
<svg id="Layer_2" data-name="Layer 2" xmlns="http://www.w3.org/2000/svg" viewBox="0 0 187.7 90.77">
  <defs>
    <style>
      .cls-1 {
        fill: #fff;
      }

      .cls-2 {
        fill: #a4c667;
      }

      .cls-3 {
        fill: #bde286;
      }

      .cls-4 {
        fill: none;
        stroke: #000;
        stroke-miterlimit: 10;
        stroke-width: 9px;
      }
    </style>
  </defs>
  <g id="Layer_1-2" data-name="Layer 1">
    <g>
      <path d="M187.65,45.42c-.07,1.11-.55,2.15-1.38,2.98-1.04,1.04-2.35,1.52-3.67,1.52s-2.56-.48-3.6-1.45c-1.11-1.04-2.15-2.08-3.25-3.05-18.41-17.17-37.73-28.17-57.8-32.74h-.07c-7.68-1.8-15.44-2.56-23.26-2.42-11.35,.14-22.08,2.28-31.77,5.47-25.13,8.1-43.75,23.26-50.88,29.7-2.01,1.8-3.12,2.91-3.18,2.98-1.94,2.01-5.19,2.08-7.27,.07-.9-.83-1.38-1.94-1.45-3.05-.21-1.45,.21-2.98,1.32-4.15C2.96,39.61,41.03,.77,94.34,.01c32.81-.48,63.41,13.36,91.86,41.12,1.18,1.18,1.66,2.77,1.45,4.29Z"/>
      <path class="cls-3" d="M128.5,44.82c0,10.02-3.61,19.15-9.52,26.02-6.71,7.8-16.39,12.7-27.15,12.7-20.25,0-36.67-17.34-36.67-38.72,0-12.98,6.05-24.47,15.33-31.5,6.02-4.55,13.38-7.23,21.34-7.23,20.25,0,36.67,17.34,36.67,38.73Z"/>
      <path class="cls-2" d="M118.98,70.84c-6.71,7.8-16.39,12.7-27.15,12.7-20.25,0-36.67-17.34-36.67-38.72,0-12.98,6.05-24.47,15.33-31.5-1.96,11.1-.22,22.27,5.89,31.97,7.51,11.93,20.18,20.1,33.79,23.77,2.9,.78,5.84,1.37,8.81,1.78Z"/>
      <path d="M187.65,45.42c.21,1.52-.28,3.05-1.45,4.22-27.97,27.27-58.29,41.12-90.2,41.12h-1.66C41.03,90,2.96,51.17,1.37,49.51c-1.11-1.11-1.52-2.63-1.32-4.08,.07-1.18,.55-2.28,1.45-3.12,2.08-2.01,5.33-1.94,7.27,.07,.07,.07,1.18,1.18,3.18,3.05,7.27,6.51,26.44,22.08,52.33,30.11,0,0,0,.07,.07,0,9.28,2.91,19.45,4.85,30.25,4.98,7.27,.07,14.47-.69,21.6-2.22,.07,.07,.07,0,.07,0,20.63-4.36,40.5-15.3,59.46-32.88,1.11-1.04,2.15-2.08,3.25-3.12,2.08-2.01,5.26-1.94,7.27,.07,.83,.83,1.32,1.94,1.38,3.05Z"/>
      <ellipse class="cls-4" cx="91.83" cy="44.82" rx="36.67" ry="38.72"/>
      <ellipse class="cls-1" cx="119.13" cy="30.7" rx="16.31" ry="8.3"/>
    </g>
  </g>
</svg>