<?xml version="1.0" encoding="UTF-8"?>
<svg id="Layer_2" data-name="Layer 2" xmlns="http://www.w3.org/2000/svg" viewBox="0 0 244.47 234.84">
  <defs>
    <style>
      .cls-1 {
        fill: #020202;
      }

      .cls-2 {
        fill: #fff;
      }

      .cls-3 {
        fill: #a4c667;
      }

      .cls-4 {
        fill: #bde286;
      }

      .cls-5 {
        fill: #f7c442;
        stroke: #0a0a0a;
        stroke-linecap: round;
        stroke-linejoin: round;
        stroke-width: 5px;
      }

      .cls-6 {
        fill: none;
        stroke: #000;
        stroke-miterlimit: 10;
        stroke-width: 9px;
      }
    </style>
  </defs>
  <g id="Layer_1-2" data-name="Layer 1">
    <g>
      <path d="M207.04,118.42c-.07,1.18-.54,2.28-1.34,3.17-1.01,1.1-2.28,1.62-3.56,1.62s-2.49-.52-3.49-1.55c-1.08-1.1-2.08-2.21-3.16-3.24-17.87-18.26-36.62-29.96-56.11-34.82h-.07c-7.46-1.91-14.98-2.72-22.58-2.58-11.02,.15-21.43,2.43-30.84,5.82-24.39,8.61-42.47,24.73-49.39,31.58-1.95,1.91-3.02,3.09-3.09,3.17-1.88,2.14-5.04,2.21-7.06,.07-.87-.88-1.34-2.06-1.41-3.24-.2-1.55,.2-3.17,1.28-4.42,1.55-1.77,38.5-43.06,90.24-43.87,31.85-.52,61.55,14.21,89.17,43.73,1.14,1.25,1.61,2.94,1.41,4.56Z"/>
      <path class="cls-4" d="M149.63,117.78c0,10.66-3.5,20.36-9.24,27.67-6.51,8.29-15.91,13.51-26.35,13.51-19.66,0-35.59-18.44-35.59-41.17,0-13.8,5.87-26.02,14.88-33.5,5.84-4.84,12.99-7.69,20.71-7.69,19.66,0,35.59,18.44,35.59,41.18Z"/>
      <path class="cls-3" d="M140.39,145.45c-6.51,8.29-15.91,13.51-26.35,13.51-19.66,0-35.59-18.44-35.59-41.17,0-13.8,5.87-26.02,14.88-33.5-1.9,11.8-.21,23.68,5.72,34,7.29,12.69,19.59,21.37,32.8,25.28,2.81,.83,5.67,1.46,8.55,1.89Z"/>
      <path d="M207.04,118.42c.2,1.62-.27,3.24-1.41,4.49-27.15,29-56.58,43.73-87.55,43.73h-1.61c-51.74-.81-88.69-42.11-90.24-43.87-1.07-1.18-1.48-2.8-1.28-4.34,.07-1.25,.54-2.43,1.41-3.31,2.02-2.13,5.17-2.06,7.06,.07,.07,.07,1.14,1.25,3.09,3.24,7.06,6.92,25.67,23.48,50.8,32.02,0,0,0,.07,.07,0,9,3.09,18.88,5.15,29.36,5.3,7.06,.07,14.04-.74,20.96-2.36,.07,.07,.07,0,.07,0,20.02-4.64,39.31-16.27,57.72-34.97,1.08-1.1,2.08-2.21,3.16-3.31,2.02-2.13,5.11-2.06,7.06,.07,.81,.88,1.28,2.06,1.34,3.24Z"/>
      <ellipse class="cls-6" cx="114.03" cy="117.78" rx="35.6" ry="41.18"/>
      <ellipse class="cls-2" cx="140.53" cy="102.77" rx="15.83" ry="8.83"/>
    </g>
    <g id="_2DXTTK.tif" data-name="2DXTTK.tif">
      <path class="cls-5" d="M212.2,16.48c3.95,15.75,13.77,25.46,29.76,29.31-19.74,7.81-20.79,8.85-29.93,29.77-3.9-15.86-13.51-25.61-30.13-29.64,16.68-4.05,26.33-13.8,30.3-29.44Z"/>
    </g>
    <path class="cls-1" d="M233.52,100.05c3.62,24.15-.26,48.4-11.21,70.15-5.93,11.71-13.64,22.23-22.95,31.28-17.71,17.3-40.04,28.39-64.56,32.06C70.77,243.12,10.89,198.84,1.3,134.81-8.28,70.79,36.01,10.9,100.03,1.32c25.54-3.82,50.99,.7,73.62,13.07,3.38,1.85,4.63,6.1,2.78,9.48-1.85,3.39-6.09,4.63-9.48,2.78-19.93-10.9-42.35-14.88-64.85-11.51C45.69,23.58,6.67,76.34,15.12,132.74c8.44,56.41,61.21,95.43,117.61,86.98,21.6-3.23,41.27-13,56.88-28.25,8.21-7.98,15.01-17.26,20.23-27.57,9.64-19.14,13.05-40.51,9.87-61.79-.57-3.81,2.06-7.37,5.87-7.94,3.81-.57,7.37,2.06,7.94,5.87Z"/>
  </g>
</svg>